<?xml version="1.0" encoding="utf-8" standalone="no"?>
<!DOCTYPE svg PUBLIC "-//W3C//DTD SVG 1.1//EN"
  "http://www.w3.org/Graphics/SVG/1.1/DTD/svg11.dtd">
<svg xmlns:xlink="http://www.w3.org/1999/xlink" width="1440pt" height="720pt" viewBox="0 0 1440 720" xmlns="http://www.w3.org/2000/svg" version="1.1">
 <metadata>
  <rdf:RDF xmlns:dc="http://purl.org/dc/elements/1.1/" xmlns:cc="http://creativecommons.org/ns#" xmlns:rdf="http://www.w3.org/1999/02/22-rdf-syntax-ns#">
   <cc:Work>
    <dc:type rdf:resource="http://purl.org/dc/dcmitype/StillImage"/>
    <dc:date>2025-01-21T11:38:00.543561</dc:date>
    <dc:format>image/svg+xml</dc:format>
    <dc:creator>
     <cc:Agent>
      <dc:title>Matplotlib v3.7.1, https://matplotlib.org/</dc:title>
     </cc:Agent>
    </dc:creator>
   </cc:Work>
  </rdf:RDF>
 </metadata>
 <defs>
  <style type="text/css">*{stroke-linejoin: round; stroke-linecap: butt}</style>
 </defs>
 <g id="figure_1">
  <g id="patch_1">
   <path d="M 0 720 
L 1440 720 
L 1440 0 
L 0 0 
z
" style="fill: #ffffff"/>
  </g>
  <g id="axes_1">
   <g id="patch_2">
    <path d="M 180 640.8 
L 1296 640.8 
L 1296 86.4 
L 180 86.4 
z
" style="fill: #ffffff"/>
   </g>
   <g id="matplotlib.axis_1">
    <g id="xtick_1">
     <g id="line2d_1">
      <defs>
       <path id="md807ed085b" d="M 0 0 
L 0 3.5 
" style="stroke: #000000; stroke-width: 0.8"/>
      </defs>
      <g>
       <use xlink:href="#md807ed085b" x="230.727273" y="640.8" style="stroke: #000000; stroke-width: 0.8"/>
      </g>
     </g>
     <g id="text_1">
      <!-- 0.0 -->
      <g transform="translate(222.77571 655.398438) scale(0.1 -0.1)">
       <defs>
        <path id="DejaVuSans-30" d="M 2034 4250 
Q 1547 4250 1301 3770 
Q 1056 3291 1056 2328 
Q 1056 1369 1301 889 
Q 1547 409 2034 409 
Q 2525 409 2770 889 
Q 3016 1369 3016 2328 
Q 3016 3291 2770 3770 
Q 2525 4250 2034 4250 
z
M 2034 4750 
Q 2819 4750 3233 4129 
Q 3647 3509 3647 2328 
Q 3647 1150 3233 529 
Q 2819 -91 2034 -91 
Q 1250 -91 836 529 
Q 422 1150 422 2328 
Q 422 3509 836 4129 
Q 1250 4750 2034 4750 
z
" transform="scale(0.015625)"/>
        <path id="DejaVuSans-2e" d="M 684 794 
L 1344 794 
L 1344 0 
L 684 0 
L 684 794 
z
" transform="scale(0.015625)"/>
       </defs>
       <use xlink:href="#DejaVuSans-30"/>
       <use xlink:href="#DejaVuSans-2e" x="63.623047"/>
       <use xlink:href="#DejaVuSans-30" x="95.410156"/>
      </g>
     </g>
    </g>
    <g id="xtick_2">
     <g id="line2d_2">
      <g>
       <use xlink:href="#md807ed085b" x="433.636364" y="640.8" style="stroke: #000000; stroke-width: 0.8"/>
      </g>
     </g>
     <g id="text_2">
      <!-- 0.2 -->
      <g transform="translate(425.684801 655.398438) scale(0.1 -0.1)">
       <defs>
        <path id="DejaVuSans-32" d="M 1228 531 
L 3431 531 
L 3431 0 
L 469 0 
L 469 531 
Q 828 903 1448 1529 
Q 2069 2156 2228 2338 
Q 2531 2678 2651 2914 
Q 2772 3150 2772 3378 
Q 2772 3750 2511 3984 
Q 2250 4219 1831 4219 
Q 1534 4219 1204 4116 
Q 875 4013 500 3803 
L 500 4441 
Q 881 4594 1212 4672 
Q 1544 4750 1819 4750 
Q 2544 4750 2975 4387 
Q 3406 4025 3406 3419 
Q 3406 3131 3298 2873 
Q 3191 2616 2906 2266 
Q 2828 2175 2409 1742 
Q 1991 1309 1228 531 
z
" transform="scale(0.015625)"/>
       </defs>
       <use xlink:href="#DejaVuSans-30"/>
       <use xlink:href="#DejaVuSans-2e" x="63.623047"/>
       <use xlink:href="#DejaVuSans-32" x="95.410156"/>
      </g>
     </g>
    </g>
    <g id="xtick_3">
     <g id="line2d_3">
      <g>
       <use xlink:href="#md807ed085b" x="636.545455" y="640.8" style="stroke: #000000; stroke-width: 0.8"/>
      </g>
     </g>
     <g id="text_3">
      <!-- 0.4 -->
      <g transform="translate(628.593892 655.398438) scale(0.1 -0.1)">
       <defs>
        <path id="DejaVuSans-34" d="M 2419 4116 
L 825 1625 
L 2419 1625 
L 2419 4116 
z
M 2253 4666 
L 3047 4666 
L 3047 1625 
L 3713 1625 
L 3713 1100 
L 3047 1100 
L 3047 0 
L 2419 0 
L 2419 1100 
L 313 1100 
L 313 1709 
L 2253 4666 
z
" transform="scale(0.015625)"/>
       </defs>
       <use xlink:href="#DejaVuSans-30"/>
       <use xlink:href="#DejaVuSans-2e" x="63.623047"/>
       <use xlink:href="#DejaVuSans-34" x="95.410156"/>
      </g>
     </g>
    </g>
    <g id="xtick_4">
     <g id="line2d_4">
      <g>
       <use xlink:href="#md807ed085b" x="839.454545" y="640.8" style="stroke: #000000; stroke-width: 0.8"/>
      </g>
     </g>
     <g id="text_4">
      <!-- 0.6 -->
      <g transform="translate(831.502983 655.398438) scale(0.1 -0.1)">
       <defs>
        <path id="DejaVuSans-36" d="M 2113 2584 
Q 1688 2584 1439 2293 
Q 1191 2003 1191 1497 
Q 1191 994 1439 701 
Q 1688 409 2113 409 
Q 2538 409 2786 701 
Q 3034 994 3034 1497 
Q 3034 2003 2786 2293 
Q 2538 2584 2113 2584 
z
M 3366 4563 
L 3366 3988 
Q 3128 4100 2886 4159 
Q 2644 4219 2406 4219 
Q 1781 4219 1451 3797 
Q 1122 3375 1075 2522 
Q 1259 2794 1537 2939 
Q 1816 3084 2150 3084 
Q 2853 3084 3261 2657 
Q 3669 2231 3669 1497 
Q 3669 778 3244 343 
Q 2819 -91 2113 -91 
Q 1303 -91 875 529 
Q 447 1150 447 2328 
Q 447 3434 972 4092 
Q 1497 4750 2381 4750 
Q 2619 4750 2861 4703 
Q 3103 4656 3366 4563 
z
" transform="scale(0.015625)"/>
       </defs>
       <use xlink:href="#DejaVuSans-30"/>
       <use xlink:href="#DejaVuSans-2e" x="63.623047"/>
       <use xlink:href="#DejaVuSans-36" x="95.410156"/>
      </g>
     </g>
    </g>
    <g id="xtick_5">
     <g id="line2d_5">
      <g>
       <use xlink:href="#md807ed085b" x="1042.363636" y="640.8" style="stroke: #000000; stroke-width: 0.8"/>
      </g>
     </g>
     <g id="text_5">
      <!-- 0.8 -->
      <g transform="translate(1034.412074 655.398438) scale(0.1 -0.1)">
       <defs>
        <path id="DejaVuSans-38" d="M 2034 2216 
Q 1584 2216 1326 1975 
Q 1069 1734 1069 1313 
Q 1069 891 1326 650 
Q 1584 409 2034 409 
Q 2484 409 2743 651 
Q 3003 894 3003 1313 
Q 3003 1734 2745 1975 
Q 2488 2216 2034 2216 
z
M 1403 2484 
Q 997 2584 770 2862 
Q 544 3141 544 3541 
Q 544 4100 942 4425 
Q 1341 4750 2034 4750 
Q 2731 4750 3128 4425 
Q 3525 4100 3525 3541 
Q 3525 3141 3298 2862 
Q 3072 2584 2669 2484 
Q 3125 2378 3379 2068 
Q 3634 1759 3634 1313 
Q 3634 634 3220 271 
Q 2806 -91 2034 -91 
Q 1263 -91 848 271 
Q 434 634 434 1313 
Q 434 1759 690 2068 
Q 947 2378 1403 2484 
z
M 1172 3481 
Q 1172 3119 1398 2916 
Q 1625 2713 2034 2713 
Q 2441 2713 2670 2916 
Q 2900 3119 2900 3481 
Q 2900 3844 2670 4047 
Q 2441 4250 2034 4250 
Q 1625 4250 1398 4047 
Q 1172 3844 1172 3481 
z
" transform="scale(0.015625)"/>
       </defs>
       <use xlink:href="#DejaVuSans-30"/>
       <use xlink:href="#DejaVuSans-2e" x="63.623047"/>
       <use xlink:href="#DejaVuSans-38" x="95.410156"/>
      </g>
     </g>
    </g>
    <g id="xtick_6">
     <g id="line2d_6">
      <g>
       <use xlink:href="#md807ed085b" x="1245.272727" y="640.8" style="stroke: #000000; stroke-width: 0.8"/>
      </g>
     </g>
     <g id="text_6">
      <!-- 1.0 -->
      <g transform="translate(1237.321165 655.398438) scale(0.1 -0.1)">
       <defs>
        <path id="DejaVuSans-31" d="M 794 531 
L 1825 531 
L 1825 4091 
L 703 3866 
L 703 4441 
L 1819 4666 
L 2450 4666 
L 2450 531 
L 3481 531 
L 3481 0 
L 794 0 
L 794 531 
z
" transform="scale(0.015625)"/>
       </defs>
       <use xlink:href="#DejaVuSans-31"/>
       <use xlink:href="#DejaVuSans-2e" x="63.623047"/>
       <use xlink:href="#DejaVuSans-30" x="95.410156"/>
      </g>
     </g>
    </g>
    <g id="text_7">
     <!-- Recall -->
     <g transform="translate(723.082813 669.076563) scale(0.1 -0.1)">
      <defs>
       <path id="DejaVuSans-52" d="M 2841 2188 
Q 3044 2119 3236 1894 
Q 3428 1669 3622 1275 
L 4263 0 
L 3584 0 
L 2988 1197 
Q 2756 1666 2539 1819 
Q 2322 1972 1947 1972 
L 1259 1972 
L 1259 0 
L 628 0 
L 628 4666 
L 2053 4666 
Q 2853 4666 3247 4331 
Q 3641 3997 3641 3322 
Q 3641 2881 3436 2590 
Q 3231 2300 2841 2188 
z
M 1259 4147 
L 1259 2491 
L 2053 2491 
Q 2509 2491 2742 2702 
Q 2975 2913 2975 3322 
Q 2975 3731 2742 3939 
Q 2509 4147 2053 4147 
L 1259 4147 
z
" transform="scale(0.015625)"/>
       <path id="DejaVuSans-65" d="M 3597 1894 
L 3597 1613 
L 953 1613 
Q 991 1019 1311 708 
Q 1631 397 2203 397 
Q 2534 397 2845 478 
Q 3156 559 3463 722 
L 3463 178 
Q 3153 47 2828 -22 
Q 2503 -91 2169 -91 
Q 1331 -91 842 396 
Q 353 884 353 1716 
Q 353 2575 817 3079 
Q 1281 3584 2069 3584 
Q 2775 3584 3186 3129 
Q 3597 2675 3597 1894 
z
M 3022 2063 
Q 3016 2534 2758 2815 
Q 2500 3097 2075 3097 
Q 1594 3097 1305 2825 
Q 1016 2553 972 2059 
L 3022 2063 
z
" transform="scale(0.015625)"/>
       <path id="DejaVuSans-63" d="M 3122 3366 
L 3122 2828 
Q 2878 2963 2633 3030 
Q 2388 3097 2138 3097 
Q 1578 3097 1268 2742 
Q 959 2388 959 1747 
Q 959 1106 1268 751 
Q 1578 397 2138 397 
Q 2388 397 2633 464 
Q 2878 531 3122 666 
L 3122 134 
Q 2881 22 2623 -34 
Q 2366 -91 2075 -91 
Q 1284 -91 818 406 
Q 353 903 353 1747 
Q 353 2603 823 3093 
Q 1294 3584 2113 3584 
Q 2378 3584 2631 3529 
Q 2884 3475 3122 3366 
z
" transform="scale(0.015625)"/>
       <path id="DejaVuSans-61" d="M 2194 1759 
Q 1497 1759 1228 1600 
Q 959 1441 959 1056 
Q 959 750 1161 570 
Q 1363 391 1709 391 
Q 2188 391 2477 730 
Q 2766 1069 2766 1631 
L 2766 1759 
L 2194 1759 
z
M 3341 1997 
L 3341 0 
L 2766 0 
L 2766 531 
Q 2569 213 2275 61 
Q 1981 -91 1556 -91 
Q 1019 -91 701 211 
Q 384 513 384 1019 
Q 384 1609 779 1909 
Q 1175 2209 1959 2209 
L 2766 2209 
L 2766 2266 
Q 2766 2663 2505 2880 
Q 2244 3097 1772 3097 
Q 1472 3097 1187 3025 
Q 903 2953 641 2809 
L 641 3341 
Q 956 3463 1253 3523 
Q 1550 3584 1831 3584 
Q 2591 3584 2966 3190 
Q 3341 2797 3341 1997 
z
" transform="scale(0.015625)"/>
       <path id="DejaVuSans-6c" d="M 603 4863 
L 1178 4863 
L 1178 0 
L 603 0 
L 603 4863 
z
" transform="scale(0.015625)"/>
      </defs>
      <use xlink:href="#DejaVuSans-52"/>
      <use xlink:href="#DejaVuSans-65" x="64.982422"/>
      <use xlink:href="#DejaVuSans-63" x="126.505859"/>
      <use xlink:href="#DejaVuSans-61" x="181.486328"/>
      <use xlink:href="#DejaVuSans-6c" x="242.765625"/>
      <use xlink:href="#DejaVuSans-6c" x="270.548828"/>
     </g>
    </g>
   </g>
   <g id="matplotlib.axis_2">
    <g id="ytick_1">
     <g id="line2d_7">
      <defs>
       <path id="m17c60be2bd" d="M 0 0 
L -3.5 0 
" style="stroke: #000000; stroke-width: 0.8"/>
      </defs>
      <g>
       <use xlink:href="#m17c60be2bd" x="180" y="573.358494" style="stroke: #000000; stroke-width: 0.8"/>
      </g>
     </g>
     <g id="text_8">
      <!-- 0.4 -->
      <g transform="translate(157.096875 577.157713) scale(0.1 -0.1)">
       <use xlink:href="#DejaVuSans-30"/>
       <use xlink:href="#DejaVuSans-2e" x="63.623047"/>
       <use xlink:href="#DejaVuSans-34" x="95.410156"/>
      </g>
     </g>
    </g>
    <g id="ytick_2">
     <g id="line2d_8">
      <g>
       <use xlink:href="#m17c60be2bd" x="180" y="496.398745" style="stroke: #000000; stroke-width: 0.8"/>
      </g>
     </g>
     <g id="text_9">
      <!-- 0.5 -->
      <g transform="translate(157.096875 500.197964) scale(0.1 -0.1)">
       <defs>
        <path id="DejaVuSans-35" d="M 691 4666 
L 3169 4666 
L 3169 4134 
L 1269 4134 
L 1269 2991 
Q 1406 3038 1543 3061 
Q 1681 3084 1819 3084 
Q 2600 3084 3056 2656 
Q 3513 2228 3513 1497 
Q 3513 744 3044 326 
Q 2575 -91 1722 -91 
Q 1428 -91 1123 -41 
Q 819 9 494 109 
L 494 744 
Q 775 591 1075 516 
Q 1375 441 1709 441 
Q 2250 441 2565 725 
Q 2881 1009 2881 1497 
Q 2881 1984 2565 2268 
Q 2250 2553 1709 2553 
Q 1456 2553 1204 2497 
Q 953 2441 691 2322 
L 691 4666 
z
" transform="scale(0.015625)"/>
       </defs>
       <use xlink:href="#DejaVuSans-30"/>
       <use xlink:href="#DejaVuSans-2e" x="63.623047"/>
       <use xlink:href="#DejaVuSans-35" x="95.410156"/>
      </g>
     </g>
    </g>
    <g id="ytick_3">
     <g id="line2d_9">
      <g>
       <use xlink:href="#m17c60be2bd" x="180" y="419.438996" style="stroke: #000000; stroke-width: 0.8"/>
      </g>
     </g>
     <g id="text_10">
      <!-- 0.6 -->
      <g transform="translate(157.096875 423.238215) scale(0.1 -0.1)">
       <use xlink:href="#DejaVuSans-30"/>
       <use xlink:href="#DejaVuSans-2e" x="63.623047"/>
       <use xlink:href="#DejaVuSans-36" x="95.410156"/>
      </g>
     </g>
    </g>
    <g id="ytick_4">
     <g id="line2d_10">
      <g>
       <use xlink:href="#m17c60be2bd" x="180" y="342.479247" style="stroke: #000000; stroke-width: 0.8"/>
      </g>
     </g>
     <g id="text_11">
      <!-- 0.7 -->
      <g transform="translate(157.096875 346.278466) scale(0.1 -0.1)">
       <defs>
        <path id="DejaVuSans-37" d="M 525 4666 
L 3525 4666 
L 3525 4397 
L 1831 0 
L 1172 0 
L 2766 4134 
L 525 4134 
L 525 4666 
z
" transform="scale(0.015625)"/>
       </defs>
       <use xlink:href="#DejaVuSans-30"/>
       <use xlink:href="#DejaVuSans-2e" x="63.623047"/>
       <use xlink:href="#DejaVuSans-37" x="95.410156"/>
      </g>
     </g>
    </g>
    <g id="ytick_5">
     <g id="line2d_11">
      <g>
       <use xlink:href="#m17c60be2bd" x="180" y="265.519498" style="stroke: #000000; stroke-width: 0.8"/>
      </g>
     </g>
     <g id="text_12">
      <!-- 0.8 -->
      <g transform="translate(157.096875 269.318717) scale(0.1 -0.1)">
       <use xlink:href="#DejaVuSans-30"/>
       <use xlink:href="#DejaVuSans-2e" x="63.623047"/>
       <use xlink:href="#DejaVuSans-38" x="95.410156"/>
      </g>
     </g>
    </g>
    <g id="ytick_6">
     <g id="line2d_12">
      <g>
       <use xlink:href="#m17c60be2bd" x="180" y="188.559749" style="stroke: #000000; stroke-width: 0.8"/>
      </g>
     </g>
     <g id="text_13">
      <!-- 0.9 -->
      <g transform="translate(157.096875 192.358968) scale(0.1 -0.1)">
       <defs>
        <path id="DejaVuSans-39" d="M 703 97 
L 703 672 
Q 941 559 1184 500 
Q 1428 441 1663 441 
Q 2288 441 2617 861 
Q 2947 1281 2994 2138 
Q 2813 1869 2534 1725 
Q 2256 1581 1919 1581 
Q 1219 1581 811 2004 
Q 403 2428 403 3163 
Q 403 3881 828 4315 
Q 1253 4750 1959 4750 
Q 2769 4750 3195 4129 
Q 3622 3509 3622 2328 
Q 3622 1225 3098 567 
Q 2575 -91 1691 -91 
Q 1453 -91 1209 -44 
Q 966 3 703 97 
z
M 1959 2075 
Q 2384 2075 2632 2365 
Q 2881 2656 2881 3163 
Q 2881 3666 2632 3958 
Q 2384 4250 1959 4250 
Q 1534 4250 1286 3958 
Q 1038 3666 1038 3163 
Q 1038 2656 1286 2365 
Q 1534 2075 1959 2075 
z
" transform="scale(0.015625)"/>
       </defs>
       <use xlink:href="#DejaVuSans-30"/>
       <use xlink:href="#DejaVuSans-2e" x="63.623047"/>
       <use xlink:href="#DejaVuSans-39" x="95.410156"/>
      </g>
     </g>
    </g>
    <g id="ytick_7">
     <g id="line2d_13">
      <g>
       <use xlink:href="#m17c60be2bd" x="180" y="111.6" style="stroke: #000000; stroke-width: 0.8"/>
      </g>
     </g>
     <g id="text_14">
      <!-- 1.0 -->
      <g transform="translate(157.096875 115.399219) scale(0.1 -0.1)">
       <use xlink:href="#DejaVuSans-31"/>
       <use xlink:href="#DejaVuSans-2e" x="63.623047"/>
       <use xlink:href="#DejaVuSans-30" x="95.410156"/>
      </g>
     </g>
    </g>
    <g id="text_15">
     <!-- Precision -->
     <g transform="translate(151.017188 385.907031) rotate(-90) scale(0.1 -0.1)">
      <defs>
       <path id="DejaVuSans-50" d="M 1259 4147 
L 1259 2394 
L 2053 2394 
Q 2494 2394 2734 2622 
Q 2975 2850 2975 3272 
Q 2975 3691 2734 3919 
Q 2494 4147 2053 4147 
L 1259 4147 
z
M 628 4666 
L 2053 4666 
Q 2838 4666 3239 4311 
Q 3641 3956 3641 3272 
Q 3641 2581 3239 2228 
Q 2838 1875 2053 1875 
L 1259 1875 
L 1259 0 
L 628 0 
L 628 4666 
z
" transform="scale(0.015625)"/>
       <path id="DejaVuSans-72" d="M 2631 2963 
Q 2534 3019 2420 3045 
Q 2306 3072 2169 3072 
Q 1681 3072 1420 2755 
Q 1159 2438 1159 1844 
L 1159 0 
L 581 0 
L 581 3500 
L 1159 3500 
L 1159 2956 
Q 1341 3275 1631 3429 
Q 1922 3584 2338 3584 
Q 2397 3584 2469 3576 
Q 2541 3569 2628 3553 
L 2631 2963 
z
" transform="scale(0.015625)"/>
       <path id="DejaVuSans-69" d="M 603 3500 
L 1178 3500 
L 1178 0 
L 603 0 
L 603 3500 
z
M 603 4863 
L 1178 4863 
L 1178 4134 
L 603 4134 
L 603 4863 
z
" transform="scale(0.015625)"/>
       <path id="DejaVuSans-73" d="M 2834 3397 
L 2834 2853 
Q 2591 2978 2328 3040 
Q 2066 3103 1784 3103 
Q 1356 3103 1142 2972 
Q 928 2841 928 2578 
Q 928 2378 1081 2264 
Q 1234 2150 1697 2047 
L 1894 2003 
Q 2506 1872 2764 1633 
Q 3022 1394 3022 966 
Q 3022 478 2636 193 
Q 2250 -91 1575 -91 
Q 1294 -91 989 -36 
Q 684 19 347 128 
L 347 722 
Q 666 556 975 473 
Q 1284 391 1588 391 
Q 1994 391 2212 530 
Q 2431 669 2431 922 
Q 2431 1156 2273 1281 
Q 2116 1406 1581 1522 
L 1381 1569 
Q 847 1681 609 1914 
Q 372 2147 372 2553 
Q 372 3047 722 3315 
Q 1072 3584 1716 3584 
Q 2034 3584 2315 3537 
Q 2597 3491 2834 3397 
z
" transform="scale(0.015625)"/>
       <path id="DejaVuSans-6f" d="M 1959 3097 
Q 1497 3097 1228 2736 
Q 959 2375 959 1747 
Q 959 1119 1226 758 
Q 1494 397 1959 397 
Q 2419 397 2687 759 
Q 2956 1122 2956 1747 
Q 2956 2369 2687 2733 
Q 2419 3097 1959 3097 
z
M 1959 3584 
Q 2709 3584 3137 3096 
Q 3566 2609 3566 1747 
Q 3566 888 3137 398 
Q 2709 -91 1959 -91 
Q 1206 -91 779 398 
Q 353 888 353 1747 
Q 353 2609 779 3096 
Q 1206 3584 1959 3584 
z
" transform="scale(0.015625)"/>
       <path id="DejaVuSans-6e" d="M 3513 2113 
L 3513 0 
L 2938 0 
L 2938 2094 
Q 2938 2591 2744 2837 
Q 2550 3084 2163 3084 
Q 1697 3084 1428 2787 
Q 1159 2491 1159 1978 
L 1159 0 
L 581 0 
L 581 3500 
L 1159 3500 
L 1159 2956 
Q 1366 3272 1645 3428 
Q 1925 3584 2291 3584 
Q 2894 3584 3203 3211 
Q 3513 2838 3513 2113 
z
" transform="scale(0.015625)"/>
      </defs>
      <use xlink:href="#DejaVuSans-50"/>
      <use xlink:href="#DejaVuSans-72" x="58.552734"/>
      <use xlink:href="#DejaVuSans-65" x="97.416016"/>
      <use xlink:href="#DejaVuSans-63" x="158.939453"/>
      <use xlink:href="#DejaVuSans-69" x="213.919922"/>
      <use xlink:href="#DejaVuSans-73" x="241.703125"/>
      <use xlink:href="#DejaVuSans-69" x="293.802734"/>
      <use xlink:href="#DejaVuSans-6f" x="321.585938"/>
      <use xlink:href="#DejaVuSans-6e" x="382.767578"/>
     </g>
    </g>
   </g>
   <g id="line2d_14">
    <path d="M 1245.272727 615.6 
L 1245.167136 569.811353 
L 1245.146017 569.815212 
L 1245.146017 569.702391 
L 1245.040426 563.325302 
L 1245.019307 563.329186 
L 1245.019307 563.217071 
L 1244.913716 555.571952 
L 1244.892597 555.575863 
L 1244.892597 555.463938 
L 1244.787006 538.448299 
L 1244.765887 538.452258 
L 1244.765887 538.340959 
L 1244.660296 529.313648 
L 1244.639178 529.317626 
L 1244.639178 529.207006 
L 1244.533586 514.669413 
L 1244.512468 514.673412 
L 1244.512468 514.560653 
L 1244.406876 509.280254 
L 1244.385758 509.284257 
L 1244.385758 509.17189 
L 1244.280166 503.114496 
L 1244.259048 503.118504 
L 1244.259048 503.006237 
L 1244.153456 495.587154 
L 1244.132338 495.591163 
L 1244.132338 495.478395 
L 1244.026746 486.667465 
L 1244.005628 486.671472 
L 1244.005628 486.561847 
L 1243.900036 478.191398 
L 1243.878918 478.195399 
L 1243.878918 478.085398 
L 1243.773326 471.216129 
L 1243.752208 471.220123 
L 1243.752208 471.110822 
L 1243.646616 462.169951 
L 1243.625498 462.17393 
L 1243.625498 462.064497 
L 1243.519906 458.702053 
L 1243.498788 458.706026 
L 1243.498788 458.59476 
L 1243.393196 453.635403 
L 1243.372078 453.639366 
L 1243.372078 453.530357 
L 1243.266486 450.002019 
L 1243.245368 450.005973 
L 1243.245368 449.89509 
L 1243.139776 446.781641 
L 1243.09754 446.789534 
L 1243.09754 446.676973 
L 1242.991948 444.148542 
L 1242.97083 444.152482 
L 1242.97083 444.043716 
L 1242.865238 438.884276 
L 1242.84412 438.888201 
L 1242.84412 438.776785 
L 1242.738528 433.46854 
L 1242.696292 433.378494 
L 1242.696292 433.367618 
L 1242.5907 431.305537 
L 1242.569582 431.309438 
L 1242.569582 431.199631 
L 1242.46399 428.206084 
L 1242.442872 428.209974 
L 1242.442872 428.098635 
L 1242.33728 425.834722 
L 1242.295043 425.831236 
L 1242.295043 425.729963 
L 1242.189452 423.134487 
L 1242.168333 423.138359 
L 1242.168333 423.030177 
L 1242.062742 420.581663 
L 1242.041624 420.585524 
L 1242.041624 420.476119 
L 1241.936032 415.028779 
L 1241.893795 415.030559 
L 1241.893795 414.924383 
L 1241.788204 412.171822 
L 1241.767085 412.175648 
L 1241.767085 412.068154 
L 1241.661494 409.129835 
L 1241.640375 409.133648 
L 1241.640375 409.024741 
L 1241.534784 405.660914 
L 1241.513665 405.66471 
L 1241.513665 405.554183 
L 1241.408074 402.979454 
L 1241.386955 402.983238 
L 1241.386955 402.871446 
L 1241.281364 399.114796 
L 1241.260246 399.11856 
L 1241.260246 399.011253 
L 1241.154654 396.727238 
L 1241.112417 396.721992 
L 1241.112417 396.626354 
L 1241.006826 395.128966 
L 1240.964589 395.104363 
L 1240.964589 395.027333 
L 1240.880116 392.888408 
L 1240.858997 392.89214 
L 1240.837879 392.895871 
L 1240.837879 392.78573 
L 1240.732287 391.836872 
L 1240.690051 391.81179 
L 1240.690051 391.733691 
L 1240.584459 390.675899 
L 1240.563341 390.679619 
L 1240.563341 390.568445 
L 1240.457749 389.031841 
L 1240.436631 389.035551 
L 1240.436631 388.923617 
L 1240.331039 388.183605 
L 1240.309921 388.187311 
L 1240.309921 388.074977 
L 1240.204329 387.060245 
L 1240.183211 387.063945 
L 1240.183211 386.957724 
L 1240.077619 385.457551 
L 1240.056501 385.461241 
L 1240.056501 385.354317 
L 1239.950909 383.75657 
L 1239.908673 383.710101 
L 1239.908673 383.656258 
L 1239.803081 382.527705 
L 1239.781963 382.531379 
L 1239.781963 382.423157 
L 1239.676371 381.804753 
L 1239.655253 381.808423 
L 1239.655253 381.699873 
L 1239.549661 377.6959 
L 1239.528543 377.699544 
L 1239.528543 377.589187 
L 1239.422951 376.881962 
L 1239.401833 376.885602 
L 1239.401833 376.774873 
L 1239.296241 376.09295 
L 1239.254005 376.051625 
L 1239.254005 375.989131 
L 1239.148413 374.335019 
L 1239.106176 374.23738 
L 1239.106176 374.230386 
L 1239.000585 373.119909 
L 1238.958348 373.127142 
L 1238.958348 373.014707 
L 1238.852756 371.813862 
L 1238.81052 371.792826 
L 1238.81052 371.715114 
L 1238.704928 371.138918 
L 1238.620455 371.103751 
L 1238.620455 371.047072 
L 1238.514863 370.09959 
L 1238.472627 370.021417 
L 1238.472627 370.00007 
L 1238.367035 368.826911 
L 1238.345917 368.830501 
L 1238.345917 368.723239 
L 1238.240325 367.644506 
L 1238.198088 367.551083 
L 1238.198088 367.543897 
L 1238.092497 365.643044 
L 1238.071378 365.646612 
L 1238.071378 365.537983 
L 1237.965787 364.852224 
L 1237.944668 364.855786 
L 1237.944668 364.746811 
L 1237.839077 364.284563 
L 1237.817959 364.288122 
L 1237.817959 364.178893 
L 1237.712367 363.109123 
L 1237.691249 363.112674 
L 1237.691249 363.002934 
L 1237.585657 361.979463 
L 1237.564539 361.983006 
L 1237.564539 361.872773 
L 1237.458947 360.970016 
L 1237.437829 360.973552 
L 1237.437829 360.862875 
L 1237.332237 360.030435 
L 1237.268882 359.989187 
L 1237.268882 359.929931 
L 1237.16329 359.562076 
L 1237.142172 359.565603 
L 1237.142172 359.454294 
L 1237.03658 358.393441 
L 1236.952107 358.362791 
L 1236.952107 358.29569 
L 1236.846516 357.887893 
L 1236.783161 357.793849 
L 1236.783161 357.786377 
L 1236.677569 357.08559 
L 1236.656451 357.0891 
L 1236.656451 356.976677 
L 1236.550859 355.897406 
L 1236.508622 355.89688 
L 1236.508622 355.798991 
L 1236.403031 355.009377 
L 1236.381912 355.012872 
L 1236.381912 354.907083 
L 1236.276321 353.970503 
L 1236.255202 353.973991 
L 1236.255202 353.86777 
L 1236.149611 353.376252 
L 1236.107374 353.307169 
L 1236.107374 353.276744 
L 1236.001783 352.669635 
L 1235.959546 352.569816 
L 1235.853954 351.409779 
L 1235.832836 351.413248 
L 1235.832836 351.305948 
L 1235.727244 350.278641 
L 1235.685008 350.223982 
L 1235.685008 350.177789 
L 1235.579416 349.284937 
L 1235.516061 349.202561 
L 1235.516061 349.187102 
L 1235.410469 348.003511 
L 1235.389351 348.006953 
L 1235.389351 347.898221 
L 1235.28376 347.65895 
L 1235.262641 347.66239 
L 1235.262641 347.553504 
L 1235.15705 346.869629 
L 1235.114813 346.821891 
L 1235.114813 346.767274 
L 1235.009221 346.190712 
L 1234.988103 346.194142 
L 1234.988103 346.084625 
L 1234.882511 345.066935 
L 1234.840275 345.073776 
L 1234.840275 344.963784 
L 1234.734683 343.783726 
L 1234.713565 343.787137 
L 1234.713565 343.676602 
L 1234.607973 343.219397 
L 1234.586855 343.222803 
L 1234.586855 343.112022 
L 1234.481263 342.669596 
L 1234.460145 342.672998 
L 1234.460145 342.561976 
L 1234.354553 342.142366 
L 1234.291198 342.065149 
L 1234.291198 342.041305 
L 1234.206725 341.617363 
L 1234.185607 341.620757 
L 1234.164488 341.624151 
L 1234.164488 341.512664 
L 1234.058897 341.011387 
L 1233.974423 340.945124 
L 1233.974423 340.913189 
L 1233.868832 339.689686 
L 1233.805477 339.627619 
L 1233.805477 339.587498 
L 1233.699885 338.615494 
L 1233.678767 338.618864 
L 1233.678767 338.514135 
L 1233.573175 337.635066 
L 1233.50982 337.572379 
L 1233.50982 337.540029 
L 1233.425347 336.986707 
L 1233.404229 336.990064 
L 1233.38311 336.993421 
L 1233.38311 336.888032 
L 1233.277519 336.092727 
L 1233.214164 336.029567 
L 1233.214164 335.997024 
L 1233.108572 335.777702 
L 1233.066335 335.719238 
L 1233.066335 335.678506 
L 1232.960744 334.748499 
L 1232.939625 334.751837 
L 1232.939625 334.645531 
L 1232.834034 333.867672 
L 1232.791797 333.775878 
L 1232.791797 333.767672 
L 1232.686206 333.22569 
L 1232.643969 333.232342 
L 1232.643969 333.125413 
L 1232.538377 332.656197 
L 1232.496141 332.555673 
L 1232.390549 332.010998 
L 1232.348312 332.017631 
L 1232.348312 331.910195 
L 1232.242721 331.06573 
L 1232.200484 331.030881 
L 1232.200484 330.964524 
L 1232.094892 330.283313 
L 1232.073774 330.286614 
L 1232.073774 330.17847 
L 1231.968182 329.695274 
L 1231.904828 329.596773 
L 1231.799236 328.660878 
L 1231.714763 328.573584 
L 1231.714763 328.565212 
L 1231.609171 328.221392 
L 1231.545816 328.130621 
L 1231.545816 328.122235 
L 1231.461343 327.539225 
L 1231.440224 327.542503 
L 1231.419106 327.545782 
L 1231.419106 327.436487 
L 1231.313514 326.720298 
L 1231.271278 326.718409 
L 1231.271278 326.617207 
L 1231.165686 325.864869 
L 1231.102331 325.773133 
L 1231.102331 325.764671 
L 1230.99674 325.069197 
L 1230.933385 325.03654 
L 1230.933385 324.968643 
L 1230.827793 324.126257 
L 1230.785556 324.064626 
L 1230.785556 324.022038 
L 1230.722201 323.62259 
L 1230.679965 323.629078 
L 1230.637728 323.618503 
L 1230.637728 323.524636 
L 1230.532136 322.917087 
L 1230.511018 322.920325 
L 1230.511018 322.809095 
L 1230.426545 322.222331 
L 1230.405426 322.225563 
L 1230.36319 322.214872 
L 1230.36319 322.120506 
L 1230.257598 321.518175 
L 1230.194243 321.476248 
L 1230.194243 321.416031 
L 1230.088652 320.708511 
L 1230.067533 320.711729 
L 1230.067533 320.599568 
L 1229.961942 320.01091 
L 1229.919705 320.000035 
L 1229.919705 319.91353 
L 1229.814113 319.34061 
L 1229.771877 319.286321 
L 1229.771877 319.242955 
L 1229.666285 318.850993 
L 1229.581812 318.785604 
L 1229.581812 318.759534 
L 1229.497338 318.276526 
L 1229.47622 318.279723 
L 1229.391747 318.240265 
L 1229.391747 318.188011 
L 1229.307274 317.590426 
L 1229.286155 317.593616 
L 1229.201682 317.597649 
L 1229.201682 317.501606 
L 1229.09609 316.844302 
L 1229.074972 316.847486 
L 1229.074972 316.742417 
L 1228.96938 316.328874 
L 1228.84267 316.268994 
L 1228.84267 316.24267 
L 1228.737079 315.573257 
L 1228.694842 315.579602 
L 1228.694842 315.47402 
L 1228.58925 315.07595 
L 1228.547014 315.047029 
L 1228.547014 314.976503 
L 1228.441422 314.648253 
L 1228.399186 314.583947 
L 1228.399186 314.548623 
L 1228.293594 313.910118 
L 1228.251357 313.836748 
L 1228.251357 313.810182 
L 1228.145766 313.160961 
L 1228.040174 313.123442 
L 1228.040174 313.070161 
L 1227.934582 312.338897 
L 1227.807872 312.295409 
L 1227.807872 312.25087 
L 1227.702281 311.767236 
L 1227.660044 311.764586 
L 1227.660044 311.666393 
L 1227.554453 311.083225 
L 1227.512216 311.089487 
L 1227.512216 310.982095 
L 1227.406624 310.513956 
L 1227.343269 310.469526 
L 1227.343269 310.415709 
L 1227.237678 309.910552 
L 1227.153204 309.815161 
L 1227.047613 309.236709 
L 1227.026494 309.239822 
L 1227.026494 309.13168 
L 1226.920903 308.343865 
L 1226.878666 308.313913 
L 1226.878666 308.241578 
L 1226.773075 307.913239 
L 1226.730838 307.828881 
L 1226.730838 307.810766 
L 1226.625246 306.882638 
L 1226.540773 306.804099 
L 1226.540773 306.785916 
L 1226.4563 305.723354 
L 1226.435181 305.726433 
L 1226.32959 305.705317 
L 1226.32959 305.632281 
L 1226.223998 305.419305 
L 1226.181761 305.40718 
L 1226.181761 305.315775 
L 1226.07617 304.525488 
L 1226.012815 304.442992 
L 1226.012815 304.424649 
L 1225.907223 303.824779 
L 1225.864987 303.775741 
L 1225.864987 303.720573 
L 1225.759395 303.036118 
L 1225.738277 303.03917 
L 1225.738277 302.928527 
L 1225.632685 302.509999 
L 1225.56933 302.42676 
L 1225.56933 302.40828 
L 1225.463738 301.831501 
L 1225.421502 301.744969 
L 1225.421502 301.726443 
L 1225.31591 301.389399 
L 1225.273673 301.349091 
L 1225.273673 301.284146 
L 1225.168082 300.462971 
L 1225.104727 300.397589 
L 1225.104727 300.360351 
L 1224.999135 299.872273 
L 1224.93578 299.844025 
L 1224.93578 299.76939 
L 1224.830189 299.233431 
L 1224.787952 299.220761 
L 1224.787952 299.12725 
L 1224.703479 298.671276 
L 1224.68236 298.674284 
L 1224.661242 298.677293 
L 1224.661242 298.574223 
L 1224.55565 297.99822 
L 1224.513414 297.9009 
L 1224.407822 297.615103 
L 1224.386704 297.618101 
L 1224.386704 297.514628 
L 1224.281112 297.002242 
L 1224.175521 296.913491 
L 1224.069929 296.258132 
L 1224.048811 296.261115 
L 1224.048811 296.157125 
L 1223.943219 295.736746 
L 1223.879864 295.698327 
L 1223.879864 295.641491 
L 1223.774272 295.153818 
L 1223.710917 295.096293 
L 1223.710917 295.058319 
L 1223.605326 294.778696 
L 1223.563089 294.784634 
L 1223.563089 294.680067 
L 1223.457497 294.323848 
L 1223.436379 294.326812 
L 1223.436379 294.222068 
L 1223.330788 293.235115 
L 1223.309669 293.238068 
L 1223.309669 293.132921 
L 1223.204078 292.841567 
L 1223.140723 292.754684 
L 1223.140723 292.74511 
L 1223.035131 292.280695 
L 1222.992894 292.276989 
L 1222.992894 292.18106 
L 1222.887303 291.792501 
L 1222.845066 291.731109 
L 1222.845066 291.692664 
L 1222.739474 291.245591 
L 1222.697238 291.203312 
L 1222.697238 291.145531 
L 1222.591646 290.716794 
L 1222.486055 290.625293 
L 1222.380463 290.185987 
L 1222.359345 290.188908 
L 1222.359345 290.082566 
L 1222.253753 289.845646 
L 1222.211516 289.803085 
L 1222.211516 289.745001 
L 1222.105925 289.478665 
L 1222.04257 289.409862 
L 1222.04257 289.380777 
L 1221.936978 288.774159 
L 1221.91586 288.777064 
L 1221.91586 288.670166 
L 1221.810268 288.285889 
L 1221.768031 288.281956 
L 1221.768031 288.1846 
L 1221.66244 287.584987 
L 1221.577967 287.528243 
L 1221.577967 287.489198 
L 1221.472375 287.054246 
L 1221.40902 286.955336 
L 1221.303428 286.725125 
L 1221.28231 286.728009 
L 1221.28231 286.620302 
L 1221.176718 285.958164 
L 1221.092245 285.900941 
L 1221.092245 285.861662 
L 1220.986653 285.30588 
L 1220.944417 285.242729 
L 1220.944417 285.203358 
L 1220.838825 284.360029 
L 1220.77547 284.269858 
L 1220.77547 284.259982 
L 1220.669879 283.720644 
L 1220.606524 283.630224 
L 1220.606524 283.620325 
L 1220.500932 283.377068 
L 1220.416459 283.27944 
L 1220.310867 283.025901 
L 1220.205275 282.930952 
L 1220.099684 282.537894 
L 1220.057447 282.543571 
L 1220.057447 282.434206 
L 1219.951856 281.731519 
L 1219.888501 281.630329 
L 1219.782909 281.175368 
L 1219.719554 281.073938 
L 1219.613962 280.628003 
L 1219.550607 280.566383 
L 1219.550607 280.526335 
L 1219.445016 280.279957 
L 1219.339424 280.183756 
L 1219.254951 279.853903 
L 1219.233832 279.856712 
L 1219.191596 279.832213 
L 1219.191596 279.751886 
L 1219.086004 279.484596 
L 1219.001531 279.445548 
L 1219.001531 279.385216 
L 1218.895939 278.714584 
L 1218.832584 278.64232 
L 1218.832584 278.61207 
L 1218.726993 277.969836 
L 1218.642519 277.90012 
L 1218.642519 277.869789 
L 1218.579164 277.463308 
L 1218.536928 277.468872 
L 1218.494691 277.413676 
L 1218.494691 277.363034 
L 1218.389099 277.042468 
L 1218.346863 277.048023 
L 1218.346863 276.936447 
L 1218.241271 276.351138 
L 1218.199035 276.275337 
L 1218.199035 276.244829 
L 1218.093443 275.800652 
L 1218.051206 275.755243 
L 1218.051206 275.7043 
L 1217.945615 274.73827 
L 1217.840023 274.649766 
L 1217.734431 274.36676 
L 1217.62884 274.28833 
L 1217.62884 274.278088 
L 1217.523248 273.933112 
L 1217.481011 273.866802 
L 1217.481011 273.836028 
L 1217.37542 273.623947 
L 1217.290947 273.532209 
L 1217.185355 273.227317 
L 1217.143118 273.201936 
L 1217.143118 273.129943 
L 1217.037527 272.577324 
L 1216.974172 272.523659 
L 1216.974172 272.482424 
L 1216.86858 272.145301 
L 1216.847462 272.148022 
L 1216.847462 272.044783 
L 1216.74187 271.727761 
L 1216.678515 271.704894 
L 1216.678515 271.632513 
L 1216.572924 271.201055 
L 1216.509569 271.167752 
L 1216.509569 271.105592 
L 1216.403977 270.569471 
L 1216.36174 270.471051 
L 1216.256149 269.933665 
L 1216.171675 269.882013 
L 1216.171675 269.840386 
L 1216.066084 269.030491 
L 1216.044965 269.033175 
L 1216.044965 268.928792 
L 1215.939374 268.304658 
L 1215.833782 268.234318 
L 1215.833782 268.213385 
L 1215.728191 267.849699 
L 1215.685954 267.792149 
L 1215.685954 267.750215 
L 1215.580362 267.448855 
L 1215.517007 267.372871 
L 1215.517007 267.351873 
L 1215.411416 266.986954 
L 1215.348061 266.921329 
L 1215.348061 266.889779 
L 1215.263587 266.584721 
L 1215.242469 266.587376 
L 1215.179114 266.490033 
L 1215.073522 266.197685 
L 1215.031286 266.129169 
L 1215.031286 266.097528 
L 1214.925694 265.9314 
L 1214.841221 265.92088 
L 1214.841221 265.836422 
L 1214.735629 265.437564 
L 1214.693393 265.358246 
L 1214.693393 265.337091 
L 1214.587801 264.608935 
L 1214.503328 264.524009 
L 1214.503328 264.513402 
L 1214.397736 264.303696 
L 1214.313263 264.229263 
L 1214.313263 264.208023 
L 1214.207671 263.668369 
L 1214.186553 263.67099 
L 1214.186553 263.564569 
L 1214.102079 262.925051 
L 1214.080961 262.927662 
L 1214.038724 262.847534 
L 1214.038724 262.826192 
L 1213.933133 262.262435 
L 1213.912015 262.265038 
L 1213.912015 262.158102 
L 1213.806423 261.678697 
L 1213.785305 261.681292 
L 1213.785305 261.574141 
L 1213.679713 261.222497 
L 1213.574121 261.138852 
L 1213.574121 261.128117 
L 1213.46853 260.979988 
L 1213.426293 260.952937 
L 1213.426293 260.877731 
L 1213.320701 260.385201 
L 1213.236228 260.352462 
L 1213.236228 260.287863 
L 1213.130637 260.020656 
L 1213.067282 259.92058 
L 1212.96169 259.609798 
L 1212.83498 259.528051 
L 1212.83498 259.517253 
L 1212.729388 259.011297 
L 1212.666033 258.954072 
L 1212.666033 258.910788 
L 1212.560442 258.360327 
L 1212.518205 258.278687 
L 1212.518205 258.256995 
L 1212.412613 257.889897 
L 1212.370377 257.873273 
L 1212.370377 257.786373 
L 1212.264785 257.451245 
L 1212.20143 257.350084 
L 1212.138075 257.107334 
L 1212.095839 257.112413 
L 1212.053602 257.019458 
L 1212.053602 257.008564 
L 1211.94801 256.694221 
L 1211.905774 256.590199 
L 1211.8213 256.294659 
L 1211.800182 256.297188 
L 1211.757945 256.247628 
L 1211.757945 256.193001 
L 1211.652354 255.997955 
L 1211.631235 256.000481 
L 1211.631235 255.891115 
L 1211.525644 255.422043 
L 1211.462289 255.363851 
L 1211.462289 255.320013 
L 1211.356697 255.03651 
L 1211.293342 254.956263 
L 1211.293342 254.934312 
L 1211.187751 254.672342 
L 1211.103277 254.605462 
L 1211.103277 254.572492 
L 1211.039922 254.206099 
L 1210.997686 254.211105 
L 1210.955449 254.161083 
L 1210.955449 254.106045 
L 1210.870976 253.245121 
L 1210.849857 253.247611 
L 1210.744266 253.149638 
L 1210.638674 252.719962 
L 1210.575319 252.638911 
L 1210.575319 252.616781 
L 1210.469728 252.075409 
L 1210.427491 251.991661 
L 1210.427491 251.969482 
L 1210.321899 251.737769 
L 1210.279663 251.653904 
L 1210.279663 251.631698 
L 1210.174071 251.166212 
L 1210.110716 251.095744 
L 1210.110716 251.06237 
L 1210.005124 250.607042 
L 1209.941769 250.536401 
L 1209.941769 250.502962 
L 1209.836178 250.002025 
L 1209.709468 249.93854 
L 1209.709468 249.905029 
L 1209.603876 249.615492 
L 1209.56164 249.620379 
L 1209.56164 249.508534 
L 1209.456048 249.117748 
L 1209.413811 249.100218 
L 1209.413811 249.02179 
L 1209.30822 248.820981 
L 1209.265983 248.736122 
L 1209.265983 248.724905 
L 1209.160391 248.231834 
L 1209.097036 248.149204 
L 1209.097036 248.137964 
L 1208.991445 247.688862 
L 1208.906972 247.597196 
L 1208.80138 247.226124 
L 1208.738025 247.165694 
L 1208.738025 247.131855 
L 1208.632433 246.760122 
L 1208.611315 246.762529 
L 1208.611315 246.660858 
L 1208.526842 246.342634 
L 1208.505723 246.345034 
L 1208.400132 246.255216 
L 1208.29454 245.678227 
L 1208.16783 245.59052 
L 1208.062239 245.182521 
L 1208.020002 245.096416 
L 1208.020002 245.085054 
L 1207.91441 244.67629 
L 1207.829937 244.583386 
L 1207.724345 243.96862 
L 1207.703227 243.970989 
L 1207.703227 243.868326 
L 1207.597635 243.606218 
L 1207.576517 243.608582 
L 1207.576517 243.505789 
L 1207.470925 243.289042 
L 1207.386452 243.229878 
L 1207.386452 243.19557 
L 1207.28086 242.909854 
L 1207.238624 242.822964 
L 1207.238624 242.811512 
L 1207.133032 242.513904 
L 1207.069677 242.509489 
L 1207.069677 242.417757 
L 1206.964086 241.947438 
L 1206.879612 241.864898 
L 1206.879612 241.853407 
L 1206.774021 241.612199 
L 1206.752902 241.614537 
L 1206.752902 241.511013 
L 1206.647311 241.142794 
L 1206.605074 241.078333 
L 1206.605074 241.043765 
L 1206.499482 240.755655 
L 1206.457246 240.691089 
L 1206.457246 240.656475 
L 1206.351654 240.321725 
L 1206.288299 240.224695 
L 1206.182708 240.039759 
L 1206.161589 240.042076 
L 1206.161589 239.937979 
L 1206.055998 239.752822 
L 1205.950406 239.694918 
L 1205.950406 239.660178 
L 1205.844814 239.300913 
L 1205.760341 239.217362 
L 1205.760341 239.205763 
L 1205.654749 238.927155 
L 1205.591394 238.910837 
L 1205.591394 238.829543 
L 1205.485803 238.283001 
L 1205.40133 238.199066 
L 1205.40133 238.187425 
L 1205.295738 237.826145 
L 1205.211265 237.77701 
L 1205.211265 237.730376 
L 1205.14791 237.655603 
L 1205.105673 237.660172 
L 1205.084555 237.662457 
L 1205.084555 237.55747 
L 1204.978963 237.171931 
L 1204.936726 237.164804 
L 1204.936726 237.071325 
L 1204.852253 236.776421 
L 1204.831135 236.778694 
L 1204.76778 236.785511 
L 1204.76778 236.680204 
L 1204.662188 236.410551 
L 1204.619952 236.403372 
L 1204.619952 236.309642 
L 1204.51436 236.039598 
L 1204.408768 235.945324 
L 1204.303177 235.698365 
L 1204.239822 235.658158 
L 1204.239822 235.599421 
L 1204.13423 235.199218 
L 1204.00752 235.10682 
L 1203.901928 234.929695 
L 1203.838573 234.865765 
L 1203.838573 234.830423 
L 1203.732982 234.275618 
L 1203.648509 234.178322 
L 1203.542917 233.97689 
L 1203.479562 233.936323 
L 1203.479562 233.877227 
L 1203.37397 233.604557 
L 1203.268379 233.532865 
L 1203.268379 233.509193 
L 1203.162787 233.16502 
L 1203.099432 233.124283 
L 1203.099432 233.065015 
L 1203.014959 232.812978 
L 1202.99384 232.815196 
L 1202.909367 232.740998 
L 1202.909367 232.717259 
L 1202.803776 232.360146 
L 1202.698184 232.323663 
L 1202.698184 232.264224 
L 1202.613711 231.785225 
L 1202.550356 231.70847 
L 1202.550356 231.684647 
L 1202.465882 231.538555 
L 1202.444764 231.540755 
L 1202.381409 231.440067 
L 1202.275817 231.176698 
L 1202.254699 231.178893 
L 1202.254699 231.071468 
L 1202.149107 230.700165 
L 1202.106871 230.680634 
L 1202.106871 230.596943 
L 1202.001279 230.272876 
L 1201.959043 230.21738 
L 1201.959043 230.169484 
L 1201.853451 229.844894 
L 1201.726741 229.750033 
L 1201.642268 229.49476 
L 1201.621149 229.496932 
L 1201.536676 229.409568 
L 1201.536676 229.39756 
L 1201.431084 228.915652 
L 1201.388848 228.883893 
L 1201.388848 228.811709 
L 1201.283256 228.485424 
L 1201.24102 228.489738 
L 1201.24102 228.381309 
L 1201.156546 228.124715 
L 1201.135428 228.126867 
L 1201.029836 228.029057 
L 1200.945363 227.639238 
L 1200.924245 227.641383 
L 1200.818653 227.591694 
L 1200.818653 227.543354 
L 1200.713061 227.082347 
L 1200.649706 226.991906 
L 1200.649706 226.979797 
L 1200.544115 226.772427 
L 1200.438523 226.686126 
L 1200.438523 226.674004 
L 1200.332932 226.611911 
L 1200.22734 226.513401 
L 1200.142867 226.060572 
L 1200.121748 226.062694 
L 1200.079512 225.969727 
L 1200.079512 225.957573 
L 1199.995038 225.808011 
L 1199.97392 225.81013 
L 1199.868328 225.711254 
L 1199.762737 225.454069 
L 1199.699382 225.423879 
L 1199.699382 225.3508 
L 1199.59379 225.10544 
L 1199.572672 225.10755 
L 1199.572672 224.997805 
L 1199.46708 224.715489 
L 1199.424844 224.65865 
L 1199.424844 224.609805 
L 1199.319252 224.473726 
L 1199.21366 224.398679 
L 1199.21366 224.374233 
L 1199.108069 224.25023 
L 1199.044714 224.1709 
L 1199.044714 224.146432 
L 1198.939122 223.85089 
L 1198.875767 223.759172 
L 1198.875767 223.746921 
L 1198.770175 223.463187 
L 1198.70682 223.45718 
L 1198.70682 223.359052 
L 1198.601229 222.988921 
L 1198.516756 222.960383 
L 1198.516756 222.886664 
L 1198.411164 222.688075 
L 1198.305572 222.612354 
L 1198.305572 222.587751 
L 1198.199981 222.241146 
L 1198.136626 222.136482 
L 1198.031034 221.986594 
L 1197.988797 221.916746 
L 1197.988797 221.879752 
L 1197.883206 221.519863 
L 1197.798733 221.416944 
L 1197.693141 221.118257 
L 1197.608668 221.039895 
L 1197.608668 221.015157 
L 1197.503076 220.87693 
L 1197.397484 220.77576 
L 1197.313011 220.523825 
L 1197.291893 220.525868 
L 1197.144064 220.453408 
L 1197.144064 220.428614 
L 1197.038473 220.277606 
L 1196.954 220.198917 
L 1196.954 220.186509 
L 1196.848408 220.134647 
L 1196.785053 220.041443 
L 1196.679461 219.877736 
L 1196.637225 219.856955 
L 1196.637225 219.782394 
L 1196.552751 219.355226 
L 1196.531633 219.357252 
L 1196.468278 219.276197 
L 1196.468278 219.263748 
L 1196.383805 218.947973 
L 1196.362686 218.949993 
L 1196.257095 218.860369 
L 1196.151503 218.521156 
L 1196.088148 218.427323 
L 1195.982557 218.012549 
L 1195.961438 218.014555 
L 1195.961438 217.914512 
L 1195.855847 217.66176 
L 1195.81361 217.578121 
L 1195.81361 217.565599 
L 1195.708018 217.162071 
L 1195.56019 217.075689 
L 1195.454598 216.771876 
L 1195.327888 216.683322 
L 1195.222297 216.441902 
L 1195.18006 216.382998 
L 1195.18006 216.34527 
L 1195.074469 215.952449 
L 1194.989995 215.872183 
L 1194.989995 215.859586 
L 1194.884404 215.592174 
L 1194.842167 215.558284 
L 1194.842167 215.495224 
L 1194.757694 215.28859 
L 1194.736575 215.290556 
L 1194.652102 215.197417 
L 1194.54651 214.954582 
L 1194.483155 214.859343 
L 1194.377564 214.679439 
L 1194.250854 214.589952 
L 1194.145262 214.283169 
L 1194.060789 214.202276 
L 1194.060789 214.189603 
L 1193.955197 214.034546 
L 1193.807369 213.946707 
L 1193.701777 213.689911 
L 1193.617304 213.684981 
L 1193.617304 213.596083 
L 1193.532831 213.451384 
L 1193.511713 213.453322 
L 1193.469476 213.419071 
L 1193.469476 213.355514 
L 1193.363884 212.970845 
L 1193.279411 212.914917 
L 1193.279411 212.876719 
L 1193.173819 212.529616 
L 1193.004873 212.442999 
L 1192.899281 212.235719 
L 1192.835926 212.152123 
L 1192.835926 212.139356 
L 1192.730335 211.931817 
L 1192.66698 211.873672 
L 1192.66698 211.83533 
L 1192.624743 211.698531 
L 1192.561388 211.704267 
L 1192.455796 211.611504 
L 1192.350205 210.955132 
L 1192.329086 210.957032 
L 1192.329086 210.854462 
L 1192.223495 210.530362 
L 1192.03343 210.44468 
L 1191.927838 210.184315 
L 1191.801128 210.092788 
L 1191.695537 209.716191 
L 1191.6533 209.616933 
L 1191.547708 209.381511 
L 1191.420998 209.289623 
L 1191.315407 209.066784 
L 1191.252052 209.033679 
L 1191.252052 208.969136 
L 1191.14646 208.901012 
L 1191.125342 208.902881 
L 1191.125342 208.799552 
L 1191.061987 208.598392 
L 1191.01975 208.602121 
L 1190.956395 208.517208 
L 1190.956395 208.504277 
L 1190.850804 208.190118 
L 1190.787449 208.118008 
L 1190.787449 208.092109 
L 1190.724094 207.929281 
L 1190.681857 207.932988 
L 1190.618502 207.847832 
L 1190.618502 207.834871 
L 1190.51291 207.364159 
L 1190.407319 207.308465 
L 1190.407319 207.269507 
L 1190.343964 207.080173 
L 1190.301727 207.083854 
L 1190.196135 207.015072 
L 1190.196135 206.989072 
L 1190.090544 206.855224 
L 1190.069426 206.857061 
L 1190.069426 206.752989 
L 1189.963834 206.592967 
L 1189.900479 206.494296 
L 1189.794887 206.438326 
L 1189.710414 206.432622 
L 1189.710414 206.341412 
L 1189.604822 205.98544 
L 1189.562586 205.923844 
L 1189.562586 205.884691 
L 1189.456994 205.711017 
L 1189.393639 205.625041 
L 1189.393639 205.611977 
L 1189.330284 205.565167 
L 1189.288048 205.568802 
L 1189.245811 205.533231 
L 1189.245811 205.467877 
L 1189.140219 205.215395 
L 1189.034628 205.172114 
L 1189.034628 205.119765 
L 1188.971273 205.020468 
L 1188.929036 205.024086 
L 1188.760089 204.933783 
L 1188.654498 204.680714 
L 1188.570024 204.596138 
L 1188.570024 204.583023 
L 1188.464433 204.36898 
L 1188.401078 204.282484 
L 1188.401078 204.269354 
L 1188.295486 203.910473 
L 1188.232131 203.850112 
L 1188.232131 203.810664 
L 1188.12654 203.50384 
L 1188.063185 203.417034 
L 1188.063185 203.403866 
L 1187.957593 203.188833 
L 1187.87312 203.103689 
L 1187.87312 203.090506 
L 1187.767528 202.954344 
L 1187.661936 202.91046 
L 1187.661936 202.857684 
L 1187.556345 202.615743 
L 1187.535227 202.617514 
L 1187.535227 202.511849 
L 1187.429635 202.190255 
L 1187.260688 202.111777 
L 1187.260688 202.098548 
L 1187.155097 201.551199 
L 1187.11286 201.448665 
L 1187.007268 201.218689 
L 1186.943913 201.197397 
L 1186.943913 201.11777 
L 1186.838322 200.900777 
L 1186.774967 200.866156 
L 1186.774967 200.799725 
L 1186.669375 200.622344 
L 1186.521547 200.568026 
L 1186.521547 200.528124 
L 1186.458192 200.373673 
L 1186.415955 200.377144 
L 1186.331482 200.290904 
L 1186.331482 200.27759 
L 1186.22589 199.726564 
L 1186.183654 199.676659 
L 1186.183654 199.623297 
L 1186.078062 199.271466 
L 1185.866879 199.208476 
L 1185.866879 199.181751 
L 1185.761287 198.762397 
L 1185.676814 198.702316 
L 1185.676814 198.662159 
L 1185.571222 198.496615 
L 1185.550104 198.49832 
L 1185.550104 198.391146 
L 1185.444512 198.265636 
L 1185.317802 198.181984 
L 1185.317802 198.168574 
L 1185.233329 198.027811 
L 1185.212211 198.029509 
L 1185.148856 198.034602 
L 1185.148856 197.927237 
L 1185.043264 197.694002 
L 1185.001028 197.643647 
L 1185.001028 197.589899 
L 1184.895436 197.369808 
L 1184.853199 197.319383 
L 1184.853199 197.265576 
L 1184.747608 197.031743 
L 1184.642016 196.945883 
L 1184.642016 196.932415 
L 1184.536424 196.442055 
L 1184.346359 196.349148 
L 1184.240768 196.18199 
L 1184.177413 196.092445 
L 1184.177413 196.078936 
L 1184.071821 195.627605 
L 1183.96623 195.527642 
L 1183.860638 195.373466 
L 1183.818401 195.295513 
L 1183.818401 195.268421 
L 1183.71281 194.992069 
L 1183.628336 194.890167 
L 1183.543863 194.747506 
L 1183.522745 194.74915 
L 1183.480508 194.711721 
L 1183.480508 194.643848 
L 1183.374917 194.448345 
L 1183.269325 194.347834 
L 1183.163733 194.179284 
L 1183.100378 194.088979 
L 1183.100378 194.075375 
L 1183.037023 193.944203 
L 1182.994787 193.947465 
L 1182.931432 193.884296 
L 1182.931432 193.843453 
L 1182.846958 193.71378 
L 1182.82584 193.715407 
L 1182.678012 193.658674 
L 1182.678012 193.617793 
L 1182.57242 193.325952 
L 1182.44571 193.226521 
L 1182.340119 192.906912 
L 1182.19229 192.836224 
L 1182.19229 192.808892 
L 1182.086699 192.488763 
L 1182.002225 192.413088 
L 1182.002225 192.385717 
L 1181.896634 192.023978 
L 1181.68545 191.985148 
L 1181.68545 191.930316 
L 1181.579859 191.760025 
L 1181.474267 191.740562 
L 1181.474267 191.658234 
L 1181.368676 191.528932 
L 1181.263084 191.440759 
L 1181.263084 191.427024 
L 1181.157492 191.173881 
L 1180.988546 191.090311 
L 1180.988546 191.076558 
L 1180.882954 190.781748 
L 1180.798481 190.677907 
L 1180.714008 190.505123 
L 1180.692889 190.506698 
L 1180.545061 190.435018 
L 1180.545061 190.407447 
L 1180.439469 190.222232 
L 1180.397233 190.128788 
L 1180.397233 190.114988 
L 1180.291641 189.763807 
L 1180.207168 189.659504 
L 1180.101576 189.570535 
L 1180.038221 189.464579 
L 1179.974866 189.400082 
L 1179.93263 189.403194 
L 1179.848156 189.312551 
L 1179.848156 189.29871 
L 1179.742565 189.168035 
L 1179.531381 189.072742 
L 1179.42579 188.595209 
L 1179.341316 188.504234 
L 1179.341316 188.490353 
L 1179.256843 188.31601 
L 1179.235725 188.317548 
L 1179.151251 188.226456 
L 1179.151251 188.212562 
L 1179.087897 188.00868 
L 1179.04566 188.011746 
L 1178.961187 187.920528 
L 1178.961187 187.906619 
L 1178.855595 187.691631 
L 1178.813358 187.639 
L 1178.813358 187.583306 
L 1178.750003 187.295326 
L 1178.707767 187.298367 
L 1178.623293 187.206865 
L 1178.517702 187.047095 
L 1178.327637 186.963061 
L 1178.264282 186.688345 
L 1178.222045 186.691366 
L 1178.137572 186.599603 
L 1178.03198 186.341514 
L 1177.841915 186.257124 
L 1177.736324 185.956646 
L 1177.65185 185.864576 
L 1177.546259 185.703872 
L 1177.398431 185.616171 
L 1177.292839 185.399146 
L 1177.081656 185.315759 
L 1176.976064 185.182741 
L 1176.912709 185.088839 
L 1176.807117 184.85725 
L 1176.743762 184.763221 
L 1176.638171 184.531339 
L 1176.532579 184.454213 
L 1176.532579 184.440128 
L 1176.448106 184.347402 
L 1176.426988 184.348873 
L 1176.363633 184.339195 
L 1176.363633 184.254635 
L 1176.258041 183.979942 
L 1176.194686 183.885563 
L 1176.089094 183.765831 
L 1175.962384 183.718112 
L 1175.962384 183.675741 
L 1175.877911 183.540296 
L 1175.856793 183.541753 
L 1175.835674 183.543211 
L 1175.835674 183.444275 
L 1175.730083 183.182846 
L 1175.64561 183.146201 
L 1175.64561 183.089594 
L 1175.561136 182.925503 
L 1175.540018 182.926949 
L 1175.476663 182.917127 
L 1175.476663 182.832142 
L 1175.371071 182.754353 
L 1175.286598 182.660912 
L 1175.202125 182.510702 
L 1175.181006 182.512142 
L 1175.033178 182.42291 
L 1174.927586 182.188779 
L 1174.843113 182.095093 
L 1174.737522 181.931734 
L 1174.695285 181.906164 
L 1174.695285 181.83508 
L 1174.589693 181.771116 
L 1174.526338 181.7185 
L 1174.526338 181.675821 
L 1174.462983 181.50932 
L 1174.420747 181.512164 
L 1174.357392 181.431004 
L 1174.357392 181.416764 
L 1174.2518 181.238679 
L 1174.146208 181.217266 
L 1174.146208 181.146001 
L 1174.040617 180.767964 
L 1173.829434 180.682128 
L 1173.74496 180.502081 
L 1173.723842 180.503486 
L 1173.597132 180.440466 
L 1173.597132 180.411882 
L 1173.49154 180.175817 
L 1173.343712 180.099768 
L 1173.343712 180.085459 
L 1173.23812 179.963624 
L 1173.111411 179.871759 
L 1173.026937 179.590756 
L 1173.005819 179.592145 
L 1172.963582 179.551914 
L 1172.963582 179.494559 
L 1172.857991 179.372404 
L 1172.752399 179.321936 
L 1172.752399 179.278883 
L 1172.646807 179.012987 
L 1172.541216 178.948047 
L 1172.541216 178.919309 
L 1172.435624 178.782457 
L 1172.330032 178.688671 
L 1172.224441 178.522891 
L 1172.118849 178.472172 
L 1172.118849 178.428986 
L 1172.013258 178.320632 
L 1171.928784 178.268482 
L 1171.928784 178.225262 
L 1171.823193 178.17445 
L 1171.590891 178.088552 
L 1171.506418 177.906504 
L 1171.485299 177.907864 
L 1171.379708 177.828083 
L 1171.379708 177.813651 
L 1171.274116 177.704953 
L 1171.168525 177.639528 
L 1171.168525 177.610641 
L 1171.062933 177.169314 
L 1170.936223 177.11953 
L 1170.936223 177.076123 
L 1170.85175 176.951242 
L 1170.830631 176.952586 
L 1170.703921 176.859285 
L 1170.619448 176.719788 
L 1170.59833 176.721127 
L 1170.47162 176.6567 
L 1170.47162 176.62771 
L 1170.366028 176.474899 
L 1170.302673 176.420882 
L 1170.302673 176.37736 
L 1170.197082 176.224384 
L 1170.007017 176.134716 
L 1169.943662 175.978906 
L 1169.901425 175.981559 
L 1169.83807 175.898337 
L 1169.83807 175.883802 
L 1169.753597 175.598241 
L 1169.732479 175.59956 
L 1169.648005 175.561186 
L 1169.648005 175.502972 
L 1169.58465 175.375903 
L 1169.542414 175.378534 
L 1169.521295 175.37985 
L 1169.521295 175.277904 
L 1169.436822 175.13746 
L 1169.415704 175.138772 
L 1169.352349 175.113557 
L 1169.352349 175.040673 
L 1169.267875 174.914674 
L 1169.246757 174.915981 
L 1169.07781 174.882679 
L 1169.07781 174.824318 
L 1168.972219 174.62649 
L 1168.803272 174.549279 
L 1168.803272 174.534672 
L 1168.718799 174.408372 
L 1168.697681 174.409671 
L 1168.528734 174.332351 
L 1168.528734 174.31773 
L 1168.423142 174.031649 
L 1168.254196 173.939516 
L 1168.148604 173.858104 
L 1168.106367 173.81674 
L 1168.106367 173.758142 
L 1168.043013 173.718047 
L 1168.000776 173.72062 
L 1167.874066 173.655056 
L 1167.874066 173.625737 
L 1167.789593 173.572229 
L 1167.768474 173.573514 
L 1167.705119 173.548036 
L 1167.705119 173.4747 
L 1167.620646 173.318425 
L 1167.599528 173.319705 
L 1167.493936 173.252705 
L 1167.493936 173.223342 
L 1167.388344 173.024098 
L 1167.282753 173.001082 
L 1167.282753 172.927599 
L 1167.177161 172.698694 
L 1167.050451 172.632744 
L 1167.050451 172.603315 
L 1166.965978 172.446466 
L 1166.94486 172.44773 
L 1166.754795 172.385472 
L 1166.754795 172.356013 
L 1166.649203 172.185505 
L 1166.459138 172.093637 
L 1166.416901 171.94866 
L 1166.353546 171.952426 
L 1166.31131 171.866404 
L 1166.31131 171.851646 
L 1166.205718 171.754583 
L 1166.1846 171.755835 
L 1166.1846 171.652471 
L 1166.079008 171.599638 
L 1165.93118 171.519726 
L 1165.93118 171.504948 
L 1165.825588 171.274629 
L 1165.635523 171.197055 
L 1165.635523 171.182259 
L 1165.529932 171.11447 
L 1165.487695 171.116951 
L 1165.487695 171.013324 
L 1165.42434 170.854128 
L 1165.382104 170.856599 
L 1165.149802 170.76646 
L 1165.04421 170.6392 
L 1164.896382 170.573665 
L 1164.896382 170.543996 
L 1164.811909 170.400527 
L 1164.79079 170.401754 
L 1164.66408 170.305197 
L 1164.600726 170.219768 
L 1164.558489 170.222218 
L 1164.431779 170.155282 
L 1164.431779 170.125564 
L 1164.326187 169.908691 
L 1164.199477 169.826761 
L 1164.199477 169.811885 
L 1164.093886 169.684044 
L 1163.882702 169.591976 
L 1163.777111 169.523575 
L 1163.650401 169.441456 
L 1163.650401 169.426555 
L 1163.544809 169.223906 
L 1163.439218 169.125534 
L 1163.375863 169.084392 
L 1163.333626 169.086801 
L 1163.185798 168.990759 
L 1163.080206 168.772773 
L 1162.91126 168.707656 
L 1162.91126 168.677768 
L 1162.847905 168.576725 
L 1162.805668 168.579116 
L 1162.700076 168.49537 
L 1162.700076 168.480414 
L 1162.636721 168.379279 
L 1162.594485 168.381662 
L 1162.467775 168.284051 
L 1162.362183 168.200172 
L 1162.151 168.107211 
L 1162.087645 167.990898 
L 1162.045408 167.993268 
L 1161.77087 167.903725 
L 1161.707515 167.817286 
L 1161.665278 167.81965 
L 1161.454095 167.726433 
L 1161.39074 167.669934 
L 1161.348503 167.672293 
L 1161.221794 167.604296 
L 1161.221794 167.57426 
L 1161.116202 167.459973 
L 1160.968374 167.378033 
L 1160.968374 167.363002 
L 1160.8839 167.277493 
L 1160.862782 167.278666 
L 1160.75719 167.209332 
L 1160.75719 167.179249 
L 1160.651599 166.853985 
L 1160.461534 166.759031 
L 1160.355942 166.629224 
L 1160.144759 166.535292 
L 1160.102522 166.356604 
L 1160.039167 166.360071 
L 1159.511209 166.283296 
L 1159.426736 166.182189 
L 1159.405618 166.183343 
L 1159.257789 166.085642 
L 1159.152198 165.909981 
L 1159.067724 165.854076 
L 1159.067724 165.808696 
L 1159.025488 165.659674 
L 1158.962133 165.663104 
L 1158.856541 165.59313 
L 1158.856541 165.562848 
L 1158.750949 165.417095 
L 1158.582003 165.320131 
L 1158.476411 165.189372 
L 1158.413056 165.132114 
L 1158.413056 165.08661 
L 1158.349701 165.014152 
L 1158.307465 165.016415 
L 1158.201873 164.931012 
L 1158.201873 164.915833 
L 1158.1174 164.814071 
L 1158.096281 164.815199 
L 1157.885098 164.720146 
L 1157.800625 164.587877 
L 1157.779507 164.589001 
L 1157.631678 164.490436 
L 1157.526087 164.313499 
L 1157.314903 164.21814 
L 1157.209312 164.071442 
L 1156.934774 163.979269 
L 1156.829182 163.878127 
L 1156.702472 163.808546 
L 1156.702472 163.778042 
L 1156.59688 163.722568 
L 1156.512407 163.650704 
L 1156.512407 163.620181 
L 1156.427934 163.594078 
L 1156.406815 163.595185 
L 1156.068922 163.505981 
L 1156.047804 163.476535 
L 1155.963331 163.480952 
L 1155.773266 163.383916 
L 1155.709911 163.28021 
L 1155.667674 163.282411 
L 1155.540964 163.243136 
L 1155.540964 163.181953 
L 1155.540964 163.151357 
L 1155.435372 163.15685 
L 1155.181953 163.078203 
L 1155.181953 163.062895 
L 1155.097479 162.929473 
L 1155.076361 162.930567 
L 1154.928533 162.830991 
L 1154.865178 162.772971 
L 1154.822941 162.775155 
L 1154.717349 162.719297 
L 1154.717349 162.673303 
L 1154.632876 162.585649 
L 1154.611758 162.586737 
L 1154.463929 162.532991 
L 1154.463929 162.48696 
L 1154.358338 162.400304 
L 1154.126036 162.320108 
L 1154.126036 162.30475 
L 1154.062681 162.231197 
L 1154.020445 162.233361 
L 1153.851498 162.134445 
L 1153.745906 162.001478 
L 1153.492487 161.922115 
L 1153.492487 161.90673 
L 1153.386895 161.881335 
L 1153.260185 161.795437 
L 1153.260185 161.780042 
L 1153.175712 161.676549 
L 1153.154593 161.677621 
L 1152.858937 161.615597 
L 1152.858937 161.584779 
L 1152.795582 161.557167 
L 1152.753345 161.559307 
L 1152.43657 161.498267 
L 1152.43657 161.467424 
L 1152.373215 161.331797 
L 1152.330979 161.333928 
L 1152.077559 161.254113 
L 1152.077559 161.238675 
L 1151.993085 161.150287 
L 1151.971967 161.151349 
L 1151.887494 161.140156 
L 1151.887494 161.047473 
L 1151.803021 160.974455 
L 1151.781902 160.975515 
L 1151.528482 160.941855 
L 1151.528482 160.880011 
L 1151.528482 160.864548 
L 1151.422891 160.869837 
L 1151.253944 160.770014 
L 1151.253944 160.754542 
L 1151.148352 160.759821 
L 1150.937169 160.662026 
L 1150.937169 160.631061 
L 1150.831578 160.63633 
L 1150.641513 160.537387 
L 1150.535921 160.418677 
L 1150.282501 160.322743 
L 1150.176909 160.250431 
L 1150.007963 160.165706 
L 1150.007963 160.150187 
L 1149.965726 160.105714 
L 1149.902371 160.108847 
L 1149.564478 160.016848 
L 1149.458886 159.975457 
L 1149.205467 159.894714 
L 1149.205467 159.879169 
L 1149.120993 159.805594 
L 1149.099875 159.806633 
L 1148.867573 159.709178 
L 1148.761982 159.667685 
L 1148.52968 159.570121 
L 1148.424089 159.497433 
L 1148.107314 159.403873 
L 1148.001722 159.362275 
L 1147.64271 159.286246 
L 1147.64271 159.270649 
L 1147.537119 159.16659 
L 1147.347054 159.066581 
L 1147.241462 158.931169 
L 1146.903569 158.838167 
L 1146.840214 158.809973 
L 1146.797977 158.812016 
L 1146.671268 158.73997 
L 1146.671268 158.708695 
L 1146.586794 158.493754 
L 1146.565676 158.494769 
L 1146.375611 158.394328 
L 1146.312256 158.30341 
L 1146.270019 158.305433 
L 1146.143309 158.201838 
L 1146.058836 158.111842 
L 1146.037718 158.112851 
L 1145.953244 158.007134 
L 1145.847653 157.933745 
L 1145.699825 157.846638 
L 1145.699825 157.830946 
L 1145.657588 157.754475 
L 1145.594233 157.75748 
L 1145.404168 157.687983 
L 1145.404168 157.656573 
L 1145.319695 157.613449 
L 1145.298576 157.614448 
L 1145.024038 157.533146 
L 1145.024038 157.517428 
L 1144.918447 157.333729 
L 1144.665027 157.235517 
L 1144.580553 157.097816 
L 1144.559435 157.098806 
L 1144.306015 157.016179 
L 1144.306015 157.000426 
L 1144.221542 156.799513 
L 1144.200424 156.800497 
L 1143.883649 156.720633 
L 1143.883649 156.70486 
L 1143.841412 156.627947 
L 1143.778057 156.630888 
L 1143.587992 156.529231 
L 1143.503519 156.469992 
L 1143.4824 156.470969 
L 1143.228981 156.372128 
L 1143.165626 156.327653 
L 1143.123389 156.329603 
L 1142.891087 156.229672 
L 1142.827732 156.153524 
L 1142.785496 156.155467 
L 1142.701022 156.048617 
L 1142.637667 155.988228 
L 1142.595431 155.990166 
L 1142.384248 155.904864 
L 1142.384248 155.889029 
L 1142.320893 155.796904 
L 1142.278656 155.798834 
L 1142.088591 155.728296 
L 1142.088591 155.696601 
L 1142.067473 155.618313 
L 1141.982999 155.62216 
L 1141.623988 155.527489 
L 1141.539515 155.436128 
L 1141.518396 155.437086 
L 1141.307213 155.335547 
L 1141.201621 155.213275 
L 1140.800373 155.136055 
L 1140.758137 155.026673 
L 1140.694782 155.029526 
L 1140.483598 154.959505 
L 1140.483598 154.943596 
L 1140.399125 154.820088 
L 1140.378007 154.821035 
L 1140.018995 154.757522 
L 1140.018995 154.741596 
L 1139.95564 154.616995 
L 1139.913404 154.618881 
L 1139.744457 154.546741 
L 1139.744457 154.530801 
L 1139.659984 154.438906 
L 1139.638865 154.439846 
L 1139.491037 154.350724 
L 1139.427682 154.273763 
L 1139.385445 154.275636 
L 1139.153144 154.238057 
L 1139.153144 154.190163 
L 1139.110907 154.112194 
L 1139.047552 154.114996 
L 1138.920842 154.024751 
L 1138.857487 153.97961 
L 1138.815251 153.981473 
L 1138.519594 153.898591 
L 1138.414002 153.839271 
L 1138.371766 153.777145 
L 1138.371766 153.745148 
L 1138.329529 153.634988 
L 1138.266174 153.637762 
L 1138.097228 153.549101 
L 1137.991636 153.473638 
L 1137.843808 153.399983 
L 1137.843808 153.383959 
L 1137.738216 153.292392 
L 1137.463678 153.208113 
L 1137.421441 153.177866 
L 1137.358086 153.180615 
L 1137.273613 153.168237 
L 1137.273613 153.08801 
L 1137.210258 152.978398 
L 1137.168021 152.980223 
L 1136.956838 152.909052 
L 1136.956838 152.892991 
L 1136.851246 152.720808 
L 1136.618945 152.634329 
L 1136.513353 152.590613 
L 1136.386643 152.499522 
L 1136.281052 152.391386 
L 1135.858685 152.312785 
L 1135.837567 152.28147 
L 1135.753093 152.285066 
L 1135.647502 152.192882 
L 1135.563029 152.131998 
L 1135.54191 152.132895 
L 1135.351845 152.060337 
L 1135.351845 152.04421 
L 1135.28849 152.014636 
L 1135.246254 152.016424 
L 1134.971715 151.995779 
L 1134.971715 151.931228 
L 1134.971715 151.882807 
L 1134.866124 151.887265 
L 1134.676059 151.798403 
L 1134.676059 151.749949 
L 1134.570467 151.754395 
L 1134.380402 151.697765 
L 1134.380402 151.665443 
L 1134.295929 151.58817 
L 1134.274811 151.589056 
L 1134.063627 151.500885 
L 1133.958036 151.359693 
L 1133.746853 151.271382 
L 1133.704616 151.240758 
L 1133.641261 151.243396 
L 1133.345604 151.174712 
L 1133.345604 151.15851 
L 1133.282249 151.047701 
L 1133.240013 151.049453 
L 1133.092185 150.990732 
L 1133.092185 150.958301 
L 1133.02883 150.912269 
L 1132.986593 150.914015 
L 1132.90212 150.820168 
L 1132.838765 150.790327 
L 1132.796528 150.792069 
L 1132.754291 150.777581 
L 1132.754291 150.696421 
L 1132.669818 150.505024 
L 1132.6487 150.505889 
L 1132.437516 150.417042 
L 1132.331925 150.258787 
L 1132.14186 150.168932 
L 1132.036268 150.108139 
L 1131.803967 150.036178 
L 1131.803967 150.019897 
L 1131.698375 149.910178 
L 1131.613902 149.913592 
L 1131.613902 149.815844 
L 1131.50831 149.754915 
L 1131.444955 149.675961 
L 1131.444955 149.659657 
L 1131.423837 149.530052 
L 1131.339364 149.533434 
L 1131.276009 149.470717 
L 1131.276009 149.438086 
L 1131.170417 149.393347 
L 1130.938115 149.304663 
L 1130.832524 149.178204 
L 1130.663577 149.086868 
L 1130.557986 148.943918 
L 1130.410157 148.85162 
L 1130.346802 148.739583 
L 1130.304566 148.741242 
L 1130.072264 148.652146 
L 1129.966672 148.558023 
L 1129.818844 148.481889 
L 1129.818844 148.465503 
L 1129.776607 148.434376 
L 1129.713253 148.436848 
L 1129.396478 148.383626 
L 1129.396478 148.350829 
L 1129.290886 148.22371 
L 1128.974111 148.137526 
L 1128.86852 148.043095 
L 1128.847401 148.043911 
L 1128.847401 147.94536 
L 1128.74181 147.80154 
L 1128.551745 147.743082 
L 1128.551745 147.710197 
L 1128.446153 147.599111 
L 1128.23497 147.557821 
L 1128.23497 147.50845 
L 1128.129378 147.463095 
L 1127.749248 147.395232 
L 1127.749248 147.37876 
L 1127.643657 147.333349 
L 1127.516947 147.239276 
L 1127.411355 147.177331 
L 1127.263527 147.100464 
L 1127.263527 147.083969 
L 1127.200172 147.020371 
L 1127.157935 147.021963 
L 1126.862279 146.967086 
L 1126.862279 146.934069 
L 1126.756687 146.855478 
L 1126.228729 146.776156 
L 1126.123137 146.631317 
L 1125.933072 146.539165 
L 1125.827481 146.476909 
L 1125.637416 146.417767 
L 1125.637416 146.384655 
L 1125.531824 146.289211 
L 1125.447351 146.259209 
L 1125.447351 146.19294 
L 1125.405114 146.111643 
L 1125.341759 146.113977 
L 1125.024984 146.042747 
L 1125.024984 146.026163 
L 1124.940511 145.929744 
L 1124.919393 145.930518 
L 1124.792683 145.835598 
L 1124.687091 145.756459 
L 1124.5815 145.693892 
L 1124.5815 145.660676 
L 1124.497026 145.530847 
L 1124.475908 145.531613 
L 1124.349198 145.486353 
L 1124.349198 145.436486 
L 1124.285843 145.388903 
L 1124.243606 145.390431 
L 1124.053541 145.297508 
L 1124.032423 145.198443 
L 1123.94795 145.201482 
L 1123.546702 145.116021 
L 1123.44111 144.986553 
L 1123.335518 144.890344 
L 1123.229927 144.827431 
L 1123.018743 144.768249 
L 1123.018743 144.734891 
L 1122.955388 144.653728 
L 1122.913152 144.655226 
L 1122.786442 144.559581 
L 1122.723087 144.478346 
L 1122.68085 144.479837 
L 1122.490785 144.386326 
L 1122.469667 144.303531 
L 1122.385194 144.306497 
L 1122.195129 144.212874 
L 1122.110655 144.148947 
L 1122.089537 144.149685 
L 1121.730526 144.061852 
L 1121.624934 143.864648 
L 1121.434869 143.770738 
L 1121.434869 143.703719 
L 1121.329277 143.707367 
L 1121.139213 143.646883 
L 1121.139213 143.613352 
L 1121.033621 143.516371 
L 1120.822438 143.422959 
L 1120.737964 143.392289 
L 1120.716846 143.393013 
L 1120.400071 143.303115 
L 1120.29448 143.189133 
L 1120.146651 143.11014 
L 1120.146651 143.093332 
L 1120.062178 143.045768 
L 1120.04106 143.046484 
L 1119.935468 142.949166 
L 1119.893231 142.88331 
L 1119.829876 142.885449 
L 1119.766521 142.786625 
L 1119.682048 142.738972 
L 1119.66093 142.739681 
L 1119.53422 142.659752 
L 1119.53422 142.642912 
L 1119.428628 142.579077 
L 1119.132972 142.487854 
L 1119.090735 142.455551 
L 1119.02738 142.457663 
L 1118.90067 142.36071 
L 1118.795078 142.263005 
L 1118.64725 142.200403 
L 1118.64725 142.166646 
L 1118.562777 142.101911 
L 1118.541659 142.102608 
L 1118.224884 142.045499 
L 1118.224884 142.011712 
L 1118.119292 141.930698 
L 1117.908109 141.836199 
L 1117.908109 141.81929 
L 1117.802517 141.822746 
L 1117.485742 141.731606 
L 1117.422387 141.682905 
L 1117.380151 141.684282 
L 1117.253441 141.586835 
L 1117.147849 141.403947 
L 1117.000021 141.307041 
L 1116.894429 141.174807 
L 1116.535418 141.084533 
L 1116.450944 140.849577 
L 1116.429826 140.850248 
L 1116.134169 140.79169 
L 1116.134169 140.757708 
L 1116.028578 140.557077 
L 1115.648448 140.483991 
L 1115.648448 140.466977 
L 1115.542856 140.402222 
L 1115.37391 140.356446 
L 1115.37391 140.305369 
L 1115.289436 140.222856 
L 1115.268318 140.223514 
L 1115.078253 140.161286 
L 1115.078253 140.127206 
L 1115.057135 140.093779 
L 1114.972662 140.0964 
L 1114.698123 140.002613 
L 1114.61365 139.919941 
L 1114.592532 139.920593 
L 1114.423585 139.823417 
L 1114.317994 139.673011 
L 1114.23352 139.62436 
L 1114.23352 139.573116 
L 1114.170165 139.506707 
L 1114.127929 139.507993 
L 1113.916745 139.411862 
L 1113.832272 139.311826 
L 1113.811154 139.312464 
L 1113.431024 139.221297 
L 1113.367669 139.120501 
L 1113.325432 139.121771 
L 1113.029776 139.045022 
L 1113.029776 139.027891 
L 1112.924184 138.945382 
L 1112.713001 138.848838 
L 1112.713001 138.78025 
L 1112.607409 138.783389 
L 1112.227279 138.691739 
L 1112.185043 138.624333 
L 1112.121688 138.626207 
L 1111.847149 138.531284 
L 1111.762676 138.465055 
L 1111.741558 138.465677 
L 1111.255836 138.376819 
L 1111.150245 138.311122 
L 1110.854588 138.233742 
L 1110.854588 138.216532 
L 1110.770115 138.132926 
L 1110.748997 138.13354 
L 1110.474458 138.038189 
L 1110.368867 137.955101 
L 1110.052092 137.860825 
L 1109.9465 137.743136 
L 1109.481897 137.652918 
L 1109.43966 137.619597 
L 1109.376305 137.62141 
L 1109.101767 137.525618 
L 1109.038412 137.458304 
L 1108.996176 137.459506 
L 1108.573809 137.367773 
L 1108.510454 137.283079 
L 1108.468217 137.284274 
L 1108.362626 137.183428 
L 1108.257034 137.065215 
L 1108.045851 136.967212 
L 1108.045851 136.949887 
L 1107.961378 136.952248 
L 1107.792431 136.852978 
L 1107.771313 136.801557 
L 1107.686839 136.803906 
L 1106.884343 136.722097 
L 1106.778751 136.603482 
L 1106.54645 136.523036 
L 1106.54645 136.505661 
L 1106.54645 136.488285 
L 1106.440858 136.491189 
L 1106.018492 136.398481 
L 1105.934018 136.27903 
L 1105.9129 136.279607 
L 1105.617244 136.218057 
L 1105.617244 136.18324 
L 1105.553889 136.080489 
L 1105.511652 136.081633 
L 1105.237114 135.984534 
L 1105.15264 135.934529 
L 1105.131522 135.935099 
L 1104.856984 135.837873 
L 1104.751392 135.788379 
L 1104.476854 135.691027 
L 1104.392381 135.623452 
L 1104.371262 135.624014 
L 1103.948896 135.53045 
L 1103.843304 135.463348 
L 1103.505411 135.367379 
L 1103.484293 135.262984 
L 1103.399819 135.265204 
L 1103.01969 135.187673 
L 1103.01969 135.170165 
L 1102.977453 135.136251 
L 1102.914098 135.137909 
L 1102.280548 135.049337 
L 1102.196075 134.981413 
L 1102.174957 134.981962 
L 1101.689235 134.906879 
L 1101.689235 134.889331 
L 1101.583644 134.821862 
L 1101.435815 134.737894 
L 1101.435815 134.720333 
L 1101.351342 134.669817 
L 1101.330224 134.670359 
L 1101.140159 134.587389 
L 1101.140159 134.569815 
L 1101.055685 134.501667 
L 1101.034567 134.502207 
L 1100.844502 134.436721 
L 1100.844502 134.401546 
L 1100.760029 134.29814 
L 1100.738911 134.298675 
L 1100.126479 134.208537 
L 1100.126479 134.190924 
L 1100.020887 134.193588 
L 1099.809704 134.110813 
L 1099.809704 134.09319 
L 1099.725231 134.042432 
L 1099.704113 134.042962 
L 1099.514048 133.959559 
L 1099.514048 133.941922 
L 1099.429574 133.873471 
L 1099.408456 133.873997 
L 1099.155036 133.792063 
L 1099.155036 133.774412 
L 1099.049445 133.706407 
L 1098.35254 133.617614 
L 1098.289185 133.58382 
L 1098.246948 133.58486 
L 1097.782345 133.490158 
L 1097.740108 133.42041 
L 1097.676753 133.42196 
L 1097.33886 133.359399 
L 1097.33886 133.32398 
L 1097.33886 133.270845 
L 1097.233269 133.273411 
L 1096.810902 133.177329 
L 1096.768665 133.10743 
L 1096.70531 133.108959 
L 1096.5786 133.005588 
L 1096.494127 132.901147 
L 1096.473009 132.901652 
L 1095.691631 132.813768 
L 1095.691631 132.778229 
L 1095.586039 132.780744 
L 1095.353738 132.679603 
L 1095.248146 132.646538 
L 1094.931371 132.547278 
L 1094.846898 132.513671 
L 1094.825779 132.514169 
L 1094.44565 132.434073 
L 1094.44565 132.416261 
L 1094.44565 132.398448 
L 1094.340058 132.400922 
L 1093.769863 132.307316 
L 1093.748745 132.272143 
L 1093.664272 132.274112 
L 1093.115195 132.179827 
L 1093.009604 132.128715 
L 1092.354935 132.036667 
L 1092.354935 132.018792 
L 1092.249344 132.021228 
L 1091.932569 131.921225 
L 1091.911451 131.885931 
L 1091.826977 131.887868 
L 1091.446847 131.789178 
L 1091.362374 131.737384 
L 1091.341256 131.737865 
L 1090.792179 131.642847 
L 1090.686588 131.501796 
L 1090.28534 131.403176 
L 1090.179748 131.351694 
L 1089.926328 131.267573 
L 1089.926328 131.249611 
L 1089.820736 131.198068 
L 1088.997122 131.126467 
L 1088.997122 131.108479 
L 1088.954885 131.073434 
L 1088.89153 131.074835 
L 1088.659229 130.971977 
L 1088.553637 130.902277 
L 1088.448045 130.814533 
L 1088.448045 130.796519 
L 1088.342454 130.744768 
L 1088.067915 130.642578 
L 1087.983442 130.590308 
L 1087.962324 130.590764 
L 1087.539957 130.509666 
L 1087.539957 130.491617 
L 1087.518839 130.43792 
L 1087.434366 130.439732 
L 1087.244301 130.33545 
L 1087.202064 130.264091 
L 1087.138709 130.265438 
L 1086.906408 130.180004 
L 1086.906408 130.161927 
L 1086.800816 130.091833 
L 1086.505159 129.989515 
L 1086.420686 129.955092 
L 1086.399568 129.955534 
L 1085.850491 129.858365 
L 1085.7449 129.78809 
L 1085.449243 129.703589 
L 1085.449243 129.685457 
L 1085.449243 129.667325 
L 1085.343652 129.669505 
L 1084.85793 129.570655 
L 1084.752338 129.50021 
L 1084.372209 129.398999 
L 1084.287735 129.346205 
L 1084.266617 129.346634 
L 1083.041754 129.262343 
L 1082.999517 129.226788 
L 1082.936162 129.228068 
L 1082.408204 129.12942 
L 1082.323731 129.039982 
L 1082.302613 129.040405 
L 1081.605708 128.944883 
L 1081.605708 128.926633 
L 1081.500116 128.928735 
L 1080.655383 128.835933 
L 1080.549792 128.764909 
L 1079.620585 128.673461 
L 1079.514994 128.6023 
L 1078.775852 128.525147 
L 1078.775852 128.506815 
L 1078.712497 128.453047 
L 1078.670261 128.453868 
L 1077.825528 128.360165 
L 1077.719936 128.307119 
L 1077.487635 128.219745 
L 1077.487635 128.201371 
L 1077.382043 128.166641 
L 1076.980795 128.063989 
L 1076.980795 128.045596 
L 1076.875203 128.047604 
L 1076.28389 127.948397 
L 1076.241653 127.89395 
L 1076.178298 127.895145 
L 1075.39692 127.799277 
L 1075.291329 127.727484 
L 1074.362123 127.634067 
L 1074.362123 127.615596 
L 1074.256531 127.617559 
L 1073.644099 127.518019 
L 1073.644099 127.462538 
L 1073.538508 127.464485 
L 1072.989431 127.363546 
L 1072.989431 127.345032 
L 1072.88384 127.346965 
L 1072.461473 127.280594 
L 1072.461473 127.262064 
L 1072.461473 127.243533 
L 1072.355882 127.245455 
L 1071.912397 127.160809 
L 1071.806805 127.125622 
L 1071.025427 127.046914 
L 1070.919836 126.93735 
L 1069.927274 126.862108 
L 1069.927274 126.824894 
L 1069.821683 126.826772 
L 1069.145896 126.782923 
L 1069.145896 126.745666 
L 1069.040305 126.673003 
L 1067.878797 126.600193 
L 1067.773205 126.546044 
L 1066.252686 126.47919 
L 1066.147094 126.443614 
L 1065.492426 126.380122 
L 1065.492426 126.361392 
L 1065.450189 126.305928 
L 1065.386834 126.307023 
L 1064.626575 126.226406 
L 1064.626575 126.207649 
L 1064.520983 126.209464 
L 1064.288681 126.119625 
L 1064.18309 126.083885 
L 1063.655132 125.998958 
L 1063.655132 125.980168 
L 1063.54954 125.981957 
L 1062.641452 125.903289 
L 1062.641452 125.884472 
L 1062.53586 125.886251 
L 1061.353234 125.811972 
L 1061.310998 125.756122 
L 1061.247643 125.757182 
L 1060.508501 125.675189 
L 1060.487383 125.637784 
L 1060.40291 125.639188 
L 1059.663768 125.575881 
L 1059.663768 125.55698 
L 1059.558177 125.502009 
L 1058.396669 125.42649 
L 1058.396669 125.407552 
L 1058.291077 125.409283 
L 1057.699764 125.324199 
L 1057.615291 125.268691 
L 1057.594172 125.269034 
L 1057.087333 125.182382 
L 1056.981741 125.146122 
L 1055.60905 125.073183 
L 1055.60905 125.054163 
L 1055.503458 125.055855 
L 1054.363069 124.978909 
L 1054.363069 124.959856 
L 1054.257477 124.961539 
L 1053.117087 124.903411 
L 1053.117087 124.884326 
L 1053.095969 124.846485 
L 1053.011496 124.847823 
L 1052.061171 124.767315 
L 1052.061171 124.748198 
L 1051.95558 124.74986 
L 1050.984137 124.669445 
L 1050.984137 124.650298 
L 1050.878545 124.65195 
L 1049.759274 124.573594 
L 1049.759274 124.554413 
L 1049.653682 124.556055 
L 1048.830067 124.472855 
L 1048.661121 124.456258 
L 1048.069808 124.369264 
L 1047.985334 124.332096 
L 1047.964216 124.332419 
L 1045.51449 124.2736 
L 1045.451135 124.235973 
L 1045.408899 124.236618 
L 1042.980291 124.196348 
L 1042.980291 124.176988 
L 1042.959173 124.138585 
L 1042.8747 124.139868 
L 1040.699512 124.075905 
L 1040.699512 124.056484 
L 1040.593921 124.058081 
L 1040.087081 123.988006 
L 1040.087081 123.968566 
L 1040.044844 123.930316 
L 1039.981489 123.931266 
L 1039.200111 123.845665 
L 1039.200111 123.826196 
L 1039.09452 123.827768 
L 1037.278344 123.75728 
L 1037.19387 123.719489 
L 1037.172752 123.719802 
L 1036.201309 123.636444 
L 1036.201309 123.616892 
L 1036.095717 123.618443 
L 1033.983885 123.551509 
L 1033.983885 123.531898 
L 1033.878293 123.533443 
L 1032.083236 123.461466 
L 1032.083236 123.422142 
L 1031.977644 123.423676 
L 1030.541598 123.346067 
L 1030.541598 123.326361 
L 1030.436006 123.327886 
L 1028.049636 123.26361 
L 1028.049636 123.243838 
L 1027.944044 123.245357 
L 1025.832212 123.176679 
L 1025.832212 123.156848 
L 1025.72662 123.15836 
L 1023.657024 123.088639 
L 1023.657024 123.068749 
L 1023.551432 123.070254 
L 1021.4396 123.000694 
L 1021.4396 122.980744 
L 1021.334008 122.982241 
L 1019.496714 122.908355 
L 1019.496714 122.88835 
L 1019.391122 122.889839 
L 1016.730213 122.827117 
L 1016.730213 122.807038 
L 1016.624622 122.808522 
L 1015.061866 122.729909 
L 1015.061866 122.689654 
L 1014.956274 122.691126 
L 1011.682934 122.635861 
L 1011.682934 122.615642 
L 1011.577342 122.617111 
L 1009.359918 122.54663 
L 1009.359918 122.526346 
L 1009.254326 122.527807 
L 1006.086578 122.469963 
L 1006.002104 122.409999 
L 1005.980986 122.410289 
L 1004.0381 122.334907 
L 1004.016982 122.294323 
L 1003.932508 122.295475 
L 1000.806996 122.235664 
L 1000.806996 122.215138 
L 1000.701405 122.216573 
L 999.11753 122.135287 
L 999.11753 122.11471 
L 999.011939 122.116135 
L 997.385828 122.035008 
L 997.322473 121.994596 
L 997.280236 121.995161 
L 995.358468 121.917501 
L 995.33735 121.8764 
L 995.273995 121.87724 
L 990.881384 121.831765 
L 990.860265 121.79041 
L 990.775792 121.791528 
L 986.932257 121.738004 
L 986.932257 121.717073 
L 986.826665 121.718468 
L 985.010489 121.637581 
L 985.010489 121.616592 
L 984.904898 121.617976 
L 981.96945 121.551231 
L 981.906095 121.509897 
L 981.863859 121.510447 
L 978.337098 121.450676 
L 978.231507 121.409669 
L 976.542041 121.325399 
L 976.542041 121.304154 
L 976.436449 121.305511 
L 974.113433 121.228874 
L 974.050078 121.18704 
L 974.007842 121.187578 
L 970.5022 121.125312 
L 970.5022 121.103882 
L 970.396608 121.105222 
L 968.453722 121.022488 
L 968.453722 120.979497 
L 968.348131 120.980823 
L 964.377886 120.922884 
L 964.377886 120.901264 
L 964.272294 120.902586 
L 961.67474 120.826734 
L 961.67474 120.805028 
L 961.569148 120.806342 
L 959.034949 120.729061 
L 959.034949 120.707271 
L 958.929358 120.708576 
L 957.598903 120.63771 
L 957.598903 120.615872 
L 957.598903 120.594033 
L 957.493312 120.595324 
L 953.628658 120.533046 
L 953.544185 120.490143 
L 953.523066 120.4904 
L 950.334199 120.419002 
L 950.334199 120.396931 
L 950.228608 120.398207 
L 948.68697 120.306259 
L 948.68697 120.28413 
L 948.581378 120.285393 
L 947.081977 120.192463 
L 947.081977 120.170278 
L 946.976386 120.171527 
L 944.885672 120.107321 
L 944.843435 120.063299 
L 944.78008 120.064042 
L 943.280679 119.99241 
L 943.238442 119.948268 
L 943.175087 119.949002 
L 940.007338 119.896203 
L 940.007338 119.873779 
L 939.901747 119.874998 
L 937.135246 119.816991 
L 937.135246 119.794472 
L 937.029655 119.795684 
L 933.397303 119.747037 
L 933.291711 119.702954 
L 930.356264 119.645614 
L 930.356264 119.622866 
L 930.250672 119.624065 
L 927.589763 119.563025 
L 927.589763 119.540182 
L 927.484172 119.541373 
L 921.676632 119.515275 
L 921.676632 119.492233 
L 921.571041 119.493427 
L 918.403292 119.436803 
L 918.403292 119.413647 
L 918.2977 119.414835 
L 912.997001 119.381572 
L 912.997001 119.358229 
L 912.891409 119.359418 
L 910.146027 119.296685 
L 909.97708 119.275129 
L 906.745976 119.217185 
L 906.745976 119.193616 
L 906.640385 119.19479 
L 903.747174 119.132414 
L 903.747174 119.108735 
L 903.641583 119.109902 
L 901.27633 119.041059 
L 901.27633 119.017287 
L 901.170739 119.018443 
L 896.355761 118.975793 
L 896.355761 118.951841 
L 896.250169 118.952996 
L 892.026504 118.90307 
L 892.026504 118.878956 
L 891.920912 118.880108 
L 885.057457 118.858265 
L 885.057457 118.833892 
L 884.951865 118.835048 
L 882.122009 118.768244 
L 882.122009 118.743755 
L 882.016418 118.744903 
L 879.482219 118.674191 
L 879.482219 118.649596 
L 879.376627 118.650733 
L 875.870985 118.58976 
L 875.870985 118.565022 
L 875.765394 118.566152 
L 870.337984 118.524917 
L 870.337984 118.499961 
L 870.232392 118.50109 
L 864.192551 118.465503 
L 864.192551 118.440301 
L 864.08696 118.441432 
L 861.679471 118.366085 
L 861.679471 118.340776 
L 861.573879 118.341895 
L 854.963843 118.310331 
L 854.963843 118.284746 
L 854.858252 118.285867 
L 848.860647 118.24682 
L 848.860647 118.220978 
L 848.755056 118.2221 
L 844.256853 118.166083 
L 844.256853 118.140042 
L 844.151261 118.141158 
L 839.653058 118.084108 
L 839.589703 118.032283 
L 839.547466 118.032725 
L 837.09774 117.95306 
L 837.09774 117.900332 
L 836.992149 117.90142 
L 832.958549 117.837086 
L 832.958549 117.810533 
L 832.852957 117.811613 
L 828.90383 117.745352 
L 828.90383 117.718613 
L 828.798239 117.719684 
L 823.898787 117.661963 
L 823.898787 117.634993 
L 823.793196 117.636059 
L 818.027893 117.58588 
L 818.027893 117.558635 
L 817.922301 117.559698 
L 809.770628 117.532407 
L 809.770628 117.504769 
L 809.665036 117.505838 
L 807.426494 117.417571 
L 807.426494 117.389812 
L 807.320902 117.390864 
L 804.279863 117.337598 
L 804.279863 117.309681 
L 804.174272 117.310725 
L 795.938125 117.308333 
L 795.938125 117.280002 
L 795.832533 117.281056 
L 788.462238 117.26944 
L 788.462238 117.240726 
L 788.356646 117.241786 
L 787.110665 117.167967 
L 787.089547 117.110591 
L 787.005073 117.111421 
L 781.6199 117.077666 
L 781.6199 117.048582 
L 781.514309 117.049619 
L 778.98011 116.986947 
L 778.98011 116.957715 
L 778.874518 116.95874 
L 774.291842 116.915146 
L 774.291842 116.885656 
L 774.18625 116.886676 
L 766.161286 116.875552 
L 766.161286 116.845611 
L 766.055695 116.846639 
L 761.810912 116.797724 
L 761.810912 116.767532 
L 761.70532 116.768553 
L 755.602124 116.736596 
L 755.517651 116.676298 
L 755.496532 116.676501 
L 753.448055 116.634894 
L 753.448055 116.604206 
L 753.448055 116.573516 
L 753.342463 116.574514 
L 750.787146 116.506246 
L 750.787146 116.475391 
L 750.681554 116.476374 
L 749.646756 116.393255 
L 749.646756 116.362322 
L 749.541165 116.363285 
L 742.529881 116.334042 
L 742.529881 116.302675 
L 742.424289 116.303639 
L 738.263979 116.247059 
L 738.242861 116.183969 
L 738.158387 116.184728 
L 731.886245 116.145629 
L 731.886245 116.113579 
L 731.780653 116.114525 
L 723.924636 116.088309 
L 723.924636 116.055737 
L 723.819045 116.056685 
L 719.785445 115.994679 
L 719.785445 115.961823 
L 719.679853 115.96276 
L 719.004067 115.870025 
L 719.004067 115.837106 
L 718.898475 115.838017 
L 714.315798 115.778235 
L 714.315798 115.744989 
L 714.210207 115.74589 
L 705.572812 115.719318 
L 705.572812 115.685454 
L 705.46722 115.686358 
L 700.018692 115.630749 
L 700.018692 115.596477 
L 699.913101 115.597372 
L 694.316745 115.541288 
L 694.211153 115.472759 
L 687.094277 115.42708 
L 687.094277 115.391819 
L 686.988686 115.392692 
L 683.060677 115.318726 
L 683.060677 115.28314 
L 682.955086 115.283996 
L 676.429523 115.229321 
L 676.429523 115.193197 
L 676.323932 115.194045 
L 673.726378 115.105973 
L 673.726378 115.069617 
L 673.620786 115.07044 
L 668.446796 115.000882 
L 668.446796 114.964078 
L 668.341205 114.964886 
L 663.462872 114.928191 
L 663.336162 114.891916 
L 661.541104 114.830762 
L 661.541104 114.793351 
L 661.456631 114.793974 
L 651.087533 114.795747 
L 651.087533 114.757402 
L 650.981942 114.758192 
L 645.850189 114.71941 
L 645.850189 114.680574 
L 645.744597 114.681354 
L 638.606603 114.656006 
L 638.606603 114.616473 
L 638.501011 114.617251 
L 633.643797 114.573436 
L 633.643797 114.533407 
L 633.538205 114.534173 
L 628.17415 114.492458 
L 628.17415 114.45187 
L 628.068559 114.452625 
L 625.53436 114.38914 
L 625.53436 114.348269 
L 625.428768 114.349002 
L 619.051034 114.310878 
L 618.987679 114.228179 
L 618.945442 114.228464 
L 611.131662 114.197402 
L 611.047189 114.113076 
L 611.026071 114.113215 
L 599.516583 114.103827 
L 599.516583 114.060041 
L 599.410992 114.060743 
L 595.588575 113.997915 
L 595.588575 113.953645 
L 595.504102 113.954188 
L 589.992219 113.900268 
L 589.992219 113.855297 
L 589.886627 113.855958 
L 575.969651 113.85303 
L 575.969651 113.806226 
L 575.864059 113.806899 
L 569.338497 113.753858 
L 569.338497 113.706126 
L 569.232905 113.706781 
L 556.625265 113.688865 
L 556.625265 113.639262 
L 556.519674 113.639921 
L 553.351925 113.55967 
L 553.351925 113.509546 
L 553.246333 113.51017 
L 547.60774 113.441999 
L 547.60774 113.390952 
L 547.502149 113.391547 
L 530.227359 113.386614 
L 530.227359 113.332596 
L 530.121767 113.333206 
L 494.093905 113.446886 
L 493.967195 113.386324 
L 486.808082 113.372974 
L 486.808082 113.309794 
L 486.702491 113.310498 
L 482.985666 113.271501 
L 482.858956 113.208153 
L 433.209773 113.441717 
L 433.209773 113.361826 
L 433.104182 113.362743 
L 429.281765 113.315117 
L 429.281765 113.233618 
L 429.176173 113.234485 
L 412.70388 113.293186 
L 412.70388 113.204256 
L 412.598288 113.205186 
L 397.266384 113.255467 
L 397.266384 113.158284 
L 397.160793 113.159271 
L 377.64746 113.255761 
L 377.64746 113.145598 
L 377.541869 113.146708 
L 343.09788 113.475659 
L 343.09788 113.331703 
L 342.992289 113.333328 
L 331.081553 113.538533 
L 331.081553 113.377361 
L 330.975962 113.379229 
L 329.687744 113.402336 
L 329.687744 113.238836 
L 329.582152 113.240583 
L 309.245205 113.664371 
L 309.245205 113.458432 
L 309.160732 113.460429 
L 306.267521 113.531505 
L 306.267521 113.317372 
L 306.16193 113.319771 
L 300.4811 113.459493 
L 300.4811 113.227548 
L 300.375509 113.23001 
L 284.388937 113.714279 
L 279.67955 113.917068 
L 279.531722 113.592915 
L 273.280698 113.884802 
L 273.280698 113.504944 
L 273.175106 113.509671 
L 269.247098 113.703875 
L 269.247098 113.284021 
L 269.141506 113.28864 
L 268.845849 113.301708 
L 268.71914 112.881239 
L 259.046947 113.317852 
L 258.138859 113.374629 
L 258.11774 112.784908 
L 258.012149 112.789486 
L 251.127575 113.190077 
L 251.127575 112.395861 
L 251.021983 112.399997 
L 244.728722 112.759032 
L 241.011897 113.177044 
L 238.604408 113.657747 
L 236.93606 114.208805 
L 235.732316 114.833603 
L 234.824228 115.546654 
L 234.085086 116.409984 
L 233.472655 117.47479 
L 232.944697 118.860354 
L 232.480094 120.761875 
L 232.078846 123.439961 
L 232.078846 111.6 
L 231.973254 111.6 
L 230.727273 111.6 
L 230.727273 111.6 
" clip-path="url(#p7c494387e1)" style="fill: none; stroke: #000000; stroke-width: 1.5; stroke-linecap: square"/>
   </g>
   <g id="patch_3">
    <path d="M 180 640.8 
L 180 86.4 
" style="fill: none; stroke: #000000; stroke-width: 0.8; stroke-linejoin: miter; stroke-linecap: square"/>
   </g>
   <g id="patch_4">
    <path d="M 1296 640.8 
L 1296 86.4 
" style="fill: none; stroke: #000000; stroke-width: 0.8; stroke-linejoin: miter; stroke-linecap: square"/>
   </g>
   <g id="patch_5">
    <path d="M 180 640.8 
L 1296 640.8 
" style="fill: none; stroke: #000000; stroke-width: 0.8; stroke-linejoin: miter; stroke-linecap: square"/>
   </g>
   <g id="patch_6">
    <path d="M 180 86.4 
L 1296 86.4 
" style="fill: none; stroke: #000000; stroke-width: 0.8; stroke-linejoin: miter; stroke-linecap: square"/>
   </g>
   <g id="text_16">
    <!-- Precision-Recall Curve -->
    <g transform="translate(671.5575 80.4) scale(0.12 -0.12)">
     <defs>
      <path id="DejaVuSans-2d" d="M 313 2009 
L 1997 2009 
L 1997 1497 
L 313 1497 
L 313 2009 
z
" transform="scale(0.015625)"/>
      <path id="DejaVuSans-20" transform="scale(0.015625)"/>
      <path id="DejaVuSans-43" d="M 4122 4306 
L 4122 3641 
Q 3803 3938 3442 4084 
Q 3081 4231 2675 4231 
Q 1875 4231 1450 3742 
Q 1025 3253 1025 2328 
Q 1025 1406 1450 917 
Q 1875 428 2675 428 
Q 3081 428 3442 575 
Q 3803 722 4122 1019 
L 4122 359 
Q 3791 134 3420 21 
Q 3050 -91 2638 -91 
Q 1578 -91 968 557 
Q 359 1206 359 2328 
Q 359 3453 968 4101 
Q 1578 4750 2638 4750 
Q 3056 4750 3426 4639 
Q 3797 4528 4122 4306 
z
" transform="scale(0.015625)"/>
      <path id="DejaVuSans-75" d="M 544 1381 
L 544 3500 
L 1119 3500 
L 1119 1403 
Q 1119 906 1312 657 
Q 1506 409 1894 409 
Q 2359 409 2629 706 
Q 2900 1003 2900 1516 
L 2900 3500 
L 3475 3500 
L 3475 0 
L 2900 0 
L 2900 538 
Q 2691 219 2414 64 
Q 2138 -91 1772 -91 
Q 1169 -91 856 284 
Q 544 659 544 1381 
z
M 1991 3584 
L 1991 3584 
z
" transform="scale(0.015625)"/>
      <path id="DejaVuSans-76" d="M 191 3500 
L 800 3500 
L 1894 563 
L 2988 3500 
L 3597 3500 
L 2284 0 
L 1503 0 
L 191 3500 
z
" transform="scale(0.015625)"/>
     </defs>
     <use xlink:href="#DejaVuSans-50"/>
     <use xlink:href="#DejaVuSans-72" x="58.552734"/>
     <use xlink:href="#DejaVuSans-65" x="97.416016"/>
     <use xlink:href="#DejaVuSans-63" x="158.939453"/>
     <use xlink:href="#DejaVuSans-69" x="213.919922"/>
     <use xlink:href="#DejaVuSans-73" x="241.703125"/>
     <use xlink:href="#DejaVuSans-69" x="293.802734"/>
     <use xlink:href="#DejaVuSans-6f" x="321.585938"/>
     <use xlink:href="#DejaVuSans-6e" x="382.767578"/>
     <use xlink:href="#DejaVuSans-2d" x="446.146484"/>
     <use xlink:href="#DejaVuSans-52" x="482.230469"/>
     <use xlink:href="#DejaVuSans-65" x="547.212891"/>
     <use xlink:href="#DejaVuSans-63" x="608.736328"/>
     <use xlink:href="#DejaVuSans-61" x="663.716797"/>
     <use xlink:href="#DejaVuSans-6c" x="724.996094"/>
     <use xlink:href="#DejaVuSans-6c" x="752.779297"/>
     <use xlink:href="#DejaVuSans-20" x="780.5625"/>
     <use xlink:href="#DejaVuSans-43" x="812.349609"/>
     <use xlink:href="#DejaVuSans-75" x="882.173828"/>
     <use xlink:href="#DejaVuSans-72" x="945.552734"/>
     <use xlink:href="#DejaVuSans-76" x="986.666016"/>
     <use xlink:href="#DejaVuSans-65" x="1045.845703"/>
    </g>
   </g>
  </g>
 </g>
 <defs>
  <clipPath id="p7c494387e1">
   <rect x="180" y="86.4" width="1116" height="554.4"/>
  </clipPath>
 </defs>
</svg>
