<?xml version="1.0" encoding="utf-8" standalone="no"?>
<!DOCTYPE svg PUBLIC "-//W3C//DTD SVG 1.1//EN"
  "http://www.w3.org/Graphics/SVG/1.1/DTD/svg11.dtd">
<svg xmlns:xlink="http://www.w3.org/1999/xlink" width="1440pt" height="720pt" viewBox="0 0 1440 720" xmlns="http://www.w3.org/2000/svg" version="1.1">
 <metadata>
  <rdf:RDF xmlns:dc="http://purl.org/dc/elements/1.1/" xmlns:cc="http://creativecommons.org/ns#" xmlns:rdf="http://www.w3.org/1999/02/22-rdf-syntax-ns#">
   <cc:Work>
    <dc:type rdf:resource="http://purl.org/dc/dcmitype/StillImage"/>
    <dc:date>2025-01-21T13:11:46.152633</dc:date>
    <dc:format>image/svg+xml</dc:format>
    <dc:creator>
     <cc:Agent>
      <dc:title>Matplotlib v3.9.2, https://matplotlib.org/</dc:title>
     </cc:Agent>
    </dc:creator>
   </cc:Work>
  </rdf:RDF>
 </metadata>
 <defs>
  <style type="text/css">*{stroke-linejoin: round; stroke-linecap: butt}</style>
 </defs>
 <g id="figure_1">
  <g id="patch_1">
   <path d="M 0 720 
L 1440 720 
L 1440 0 
L 0 0 
z
" style="fill: #ffffff"/>
  </g>
  <g id="axes_1">
   <g id="patch_2">
    <path d="M 180 640.8 
L 1296 640.8 
L 1296 86.4 
L 180 86.4 
z
" style="fill: #ffffff"/>
   </g>
   <g id="matplotlib.axis_1">
    <g id="xtick_1">
     <g id="line2d_1">
      <defs>
       <path id="m0209f45a1b" d="M 0 0 
L 0 3.5 
" style="stroke: #000000; stroke-width: 0.8"/>
      </defs>
      <g>
       <use xlink:href="#m0209f45a1b" x="230.727273" y="640.8" style="stroke: #000000; stroke-width: 0.8"/>
      </g>
     </g>
     <g id="text_1">
      <!-- 0.0 -->
      <g transform="translate(222.77571 655.398438) scale(0.1 -0.1)">
       <defs>
        <path id="DejaVuSans-30" d="M 2034 4250 
Q 1547 4250 1301 3770 
Q 1056 3291 1056 2328 
Q 1056 1369 1301 889 
Q 1547 409 2034 409 
Q 2525 409 2770 889 
Q 3016 1369 3016 2328 
Q 3016 3291 2770 3770 
Q 2525 4250 2034 4250 
z
M 2034 4750 
Q 2819 4750 3233 4129 
Q 3647 3509 3647 2328 
Q 3647 1150 3233 529 
Q 2819 -91 2034 -91 
Q 1250 -91 836 529 
Q 422 1150 422 2328 
Q 422 3509 836 4129 
Q 1250 4750 2034 4750 
z
" transform="scale(0.015625)"/>
        <path id="DejaVuSans-2e" d="M 684 794 
L 1344 794 
L 1344 0 
L 684 0 
L 684 794 
z
" transform="scale(0.015625)"/>
       </defs>
       <use xlink:href="#DejaVuSans-30"/>
       <use xlink:href="#DejaVuSans-2e" x="63.623047"/>
       <use xlink:href="#DejaVuSans-30" x="95.410156"/>
      </g>
     </g>
    </g>
    <g id="xtick_2">
     <g id="line2d_2">
      <g>
       <use xlink:href="#m0209f45a1b" x="433.636364" y="640.8" style="stroke: #000000; stroke-width: 0.8"/>
      </g>
     </g>
     <g id="text_2">
      <!-- 0.2 -->
      <g transform="translate(425.684801 655.398438) scale(0.1 -0.1)">
       <defs>
        <path id="DejaVuSans-32" d="M 1228 531 
L 3431 531 
L 3431 0 
L 469 0 
L 469 531 
Q 828 903 1448 1529 
Q 2069 2156 2228 2338 
Q 2531 2678 2651 2914 
Q 2772 3150 2772 3378 
Q 2772 3750 2511 3984 
Q 2250 4219 1831 4219 
Q 1534 4219 1204 4116 
Q 875 4013 500 3803 
L 500 4441 
Q 881 4594 1212 4672 
Q 1544 4750 1819 4750 
Q 2544 4750 2975 4387 
Q 3406 4025 3406 3419 
Q 3406 3131 3298 2873 
Q 3191 2616 2906 2266 
Q 2828 2175 2409 1742 
Q 1991 1309 1228 531 
z
" transform="scale(0.015625)"/>
       </defs>
       <use xlink:href="#DejaVuSans-30"/>
       <use xlink:href="#DejaVuSans-2e" x="63.623047"/>
       <use xlink:href="#DejaVuSans-32" x="95.410156"/>
      </g>
     </g>
    </g>
    <g id="xtick_3">
     <g id="line2d_3">
      <g>
       <use xlink:href="#m0209f45a1b" x="636.545455" y="640.8" style="stroke: #000000; stroke-width: 0.8"/>
      </g>
     </g>
     <g id="text_3">
      <!-- 0.4 -->
      <g transform="translate(628.593892 655.398438) scale(0.1 -0.1)">
       <defs>
        <path id="DejaVuSans-34" d="M 2419 4116 
L 825 1625 
L 2419 1625 
L 2419 4116 
z
M 2253 4666 
L 3047 4666 
L 3047 1625 
L 3713 1625 
L 3713 1100 
L 3047 1100 
L 3047 0 
L 2419 0 
L 2419 1100 
L 313 1100 
L 313 1709 
L 2253 4666 
z
" transform="scale(0.015625)"/>
       </defs>
       <use xlink:href="#DejaVuSans-30"/>
       <use xlink:href="#DejaVuSans-2e" x="63.623047"/>
       <use xlink:href="#DejaVuSans-34" x="95.410156"/>
      </g>
     </g>
    </g>
    <g id="xtick_4">
     <g id="line2d_4">
      <g>
       <use xlink:href="#m0209f45a1b" x="839.454545" y="640.8" style="stroke: #000000; stroke-width: 0.8"/>
      </g>
     </g>
     <g id="text_4">
      <!-- 0.6 -->
      <g transform="translate(831.502983 655.398438) scale(0.1 -0.1)">
       <defs>
        <path id="DejaVuSans-36" d="M 2113 2584 
Q 1688 2584 1439 2293 
Q 1191 2003 1191 1497 
Q 1191 994 1439 701 
Q 1688 409 2113 409 
Q 2538 409 2786 701 
Q 3034 994 3034 1497 
Q 3034 2003 2786 2293 
Q 2538 2584 2113 2584 
z
M 3366 4563 
L 3366 3988 
Q 3128 4100 2886 4159 
Q 2644 4219 2406 4219 
Q 1781 4219 1451 3797 
Q 1122 3375 1075 2522 
Q 1259 2794 1537 2939 
Q 1816 3084 2150 3084 
Q 2853 3084 3261 2657 
Q 3669 2231 3669 1497 
Q 3669 778 3244 343 
Q 2819 -91 2113 -91 
Q 1303 -91 875 529 
Q 447 1150 447 2328 
Q 447 3434 972 4092 
Q 1497 4750 2381 4750 
Q 2619 4750 2861 4703 
Q 3103 4656 3366 4563 
z
" transform="scale(0.015625)"/>
       </defs>
       <use xlink:href="#DejaVuSans-30"/>
       <use xlink:href="#DejaVuSans-2e" x="63.623047"/>
       <use xlink:href="#DejaVuSans-36" x="95.410156"/>
      </g>
     </g>
    </g>
    <g id="xtick_5">
     <g id="line2d_5">
      <g>
       <use xlink:href="#m0209f45a1b" x="1042.363636" y="640.8" style="stroke: #000000; stroke-width: 0.8"/>
      </g>
     </g>
     <g id="text_5">
      <!-- 0.8 -->
      <g transform="translate(1034.412074 655.398438) scale(0.1 -0.1)">
       <defs>
        <path id="DejaVuSans-38" d="M 2034 2216 
Q 1584 2216 1326 1975 
Q 1069 1734 1069 1313 
Q 1069 891 1326 650 
Q 1584 409 2034 409 
Q 2484 409 2743 651 
Q 3003 894 3003 1313 
Q 3003 1734 2745 1975 
Q 2488 2216 2034 2216 
z
M 1403 2484 
Q 997 2584 770 2862 
Q 544 3141 544 3541 
Q 544 4100 942 4425 
Q 1341 4750 2034 4750 
Q 2731 4750 3128 4425 
Q 3525 4100 3525 3541 
Q 3525 3141 3298 2862 
Q 3072 2584 2669 2484 
Q 3125 2378 3379 2068 
Q 3634 1759 3634 1313 
Q 3634 634 3220 271 
Q 2806 -91 2034 -91 
Q 1263 -91 848 271 
Q 434 634 434 1313 
Q 434 1759 690 2068 
Q 947 2378 1403 2484 
z
M 1172 3481 
Q 1172 3119 1398 2916 
Q 1625 2713 2034 2713 
Q 2441 2713 2670 2916 
Q 2900 3119 2900 3481 
Q 2900 3844 2670 4047 
Q 2441 4250 2034 4250 
Q 1625 4250 1398 4047 
Q 1172 3844 1172 3481 
z
" transform="scale(0.015625)"/>
       </defs>
       <use xlink:href="#DejaVuSans-30"/>
       <use xlink:href="#DejaVuSans-2e" x="63.623047"/>
       <use xlink:href="#DejaVuSans-38" x="95.410156"/>
      </g>
     </g>
    </g>
    <g id="xtick_6">
     <g id="line2d_6">
      <g>
       <use xlink:href="#m0209f45a1b" x="1245.272727" y="640.8" style="stroke: #000000; stroke-width: 0.8"/>
      </g>
     </g>
     <g id="text_6">
      <!-- 1.0 -->
      <g transform="translate(1237.321165 655.398438) scale(0.1 -0.1)">
       <defs>
        <path id="DejaVuSans-31" d="M 794 531 
L 1825 531 
L 1825 4091 
L 703 3866 
L 703 4441 
L 1819 4666 
L 2450 4666 
L 2450 531 
L 3481 531 
L 3481 0 
L 794 0 
L 794 531 
z
" transform="scale(0.015625)"/>
       </defs>
       <use xlink:href="#DejaVuSans-31"/>
       <use xlink:href="#DejaVuSans-2e" x="63.623047"/>
       <use xlink:href="#DejaVuSans-30" x="95.410156"/>
      </g>
     </g>
    </g>
    <g id="text_7">
     <!-- Recall -->
     <g transform="translate(723.082813 669.076563) scale(0.1 -0.1)">
      <defs>
       <path id="DejaVuSans-52" d="M 2841 2188 
Q 3044 2119 3236 1894 
Q 3428 1669 3622 1275 
L 4263 0 
L 3584 0 
L 2988 1197 
Q 2756 1666 2539 1819 
Q 2322 1972 1947 1972 
L 1259 1972 
L 1259 0 
L 628 0 
L 628 4666 
L 2053 4666 
Q 2853 4666 3247 4331 
Q 3641 3997 3641 3322 
Q 3641 2881 3436 2590 
Q 3231 2300 2841 2188 
z
M 1259 4147 
L 1259 2491 
L 2053 2491 
Q 2509 2491 2742 2702 
Q 2975 2913 2975 3322 
Q 2975 3731 2742 3939 
Q 2509 4147 2053 4147 
L 1259 4147 
z
" transform="scale(0.015625)"/>
       <path id="DejaVuSans-65" d="M 3597 1894 
L 3597 1613 
L 953 1613 
Q 991 1019 1311 708 
Q 1631 397 2203 397 
Q 2534 397 2845 478 
Q 3156 559 3463 722 
L 3463 178 
Q 3153 47 2828 -22 
Q 2503 -91 2169 -91 
Q 1331 -91 842 396 
Q 353 884 353 1716 
Q 353 2575 817 3079 
Q 1281 3584 2069 3584 
Q 2775 3584 3186 3129 
Q 3597 2675 3597 1894 
z
M 3022 2063 
Q 3016 2534 2758 2815 
Q 2500 3097 2075 3097 
Q 1594 3097 1305 2825 
Q 1016 2553 972 2059 
L 3022 2063 
z
" transform="scale(0.015625)"/>
       <path id="DejaVuSans-63" d="M 3122 3366 
L 3122 2828 
Q 2878 2963 2633 3030 
Q 2388 3097 2138 3097 
Q 1578 3097 1268 2742 
Q 959 2388 959 1747 
Q 959 1106 1268 751 
Q 1578 397 2138 397 
Q 2388 397 2633 464 
Q 2878 531 3122 666 
L 3122 134 
Q 2881 22 2623 -34 
Q 2366 -91 2075 -91 
Q 1284 -91 818 406 
Q 353 903 353 1747 
Q 353 2603 823 3093 
Q 1294 3584 2113 3584 
Q 2378 3584 2631 3529 
Q 2884 3475 3122 3366 
z
" transform="scale(0.015625)"/>
       <path id="DejaVuSans-61" d="M 2194 1759 
Q 1497 1759 1228 1600 
Q 959 1441 959 1056 
Q 959 750 1161 570 
Q 1363 391 1709 391 
Q 2188 391 2477 730 
Q 2766 1069 2766 1631 
L 2766 1759 
L 2194 1759 
z
M 3341 1997 
L 3341 0 
L 2766 0 
L 2766 531 
Q 2569 213 2275 61 
Q 1981 -91 1556 -91 
Q 1019 -91 701 211 
Q 384 513 384 1019 
Q 384 1609 779 1909 
Q 1175 2209 1959 2209 
L 2766 2209 
L 2766 2266 
Q 2766 2663 2505 2880 
Q 2244 3097 1772 3097 
Q 1472 3097 1187 3025 
Q 903 2953 641 2809 
L 641 3341 
Q 956 3463 1253 3523 
Q 1550 3584 1831 3584 
Q 2591 3584 2966 3190 
Q 3341 2797 3341 1997 
z
" transform="scale(0.015625)"/>
       <path id="DejaVuSans-6c" d="M 603 4863 
L 1178 4863 
L 1178 0 
L 603 0 
L 603 4863 
z
" transform="scale(0.015625)"/>
      </defs>
      <use xlink:href="#DejaVuSans-52"/>
      <use xlink:href="#DejaVuSans-65" x="64.982422"/>
      <use xlink:href="#DejaVuSans-63" x="126.505859"/>
      <use xlink:href="#DejaVuSans-61" x="181.486328"/>
      <use xlink:href="#DejaVuSans-6c" x="242.765625"/>
      <use xlink:href="#DejaVuSans-6c" x="270.548828"/>
     </g>
    </g>
   </g>
   <g id="matplotlib.axis_2">
    <g id="ytick_1">
     <g id="line2d_7">
      <defs>
       <path id="m77937ccf40" d="M 0 0 
L -3.5 0 
" style="stroke: #000000; stroke-width: 0.8"/>
      </defs>
      <g>
       <use xlink:href="#m77937ccf40" x="180" y="572.952616" style="stroke: #000000; stroke-width: 0.8"/>
      </g>
     </g>
     <g id="text_8">
      <!-- 0.4 -->
      <g transform="translate(157.096875 576.751835) scale(0.1 -0.1)">
       <use xlink:href="#DejaVuSans-30"/>
       <use xlink:href="#DejaVuSans-2e" x="63.623047"/>
       <use xlink:href="#DejaVuSans-34" x="95.410156"/>
      </g>
     </g>
    </g>
    <g id="ytick_2">
     <g id="line2d_8">
      <g>
       <use xlink:href="#m77937ccf40" x="180" y="496.060514" style="stroke: #000000; stroke-width: 0.8"/>
      </g>
     </g>
     <g id="text_9">
      <!-- 0.5 -->
      <g transform="translate(157.096875 499.859732) scale(0.1 -0.1)">
       <defs>
        <path id="DejaVuSans-35" d="M 691 4666 
L 3169 4666 
L 3169 4134 
L 1269 4134 
L 1269 2991 
Q 1406 3038 1543 3061 
Q 1681 3084 1819 3084 
Q 2600 3084 3056 2656 
Q 3513 2228 3513 1497 
Q 3513 744 3044 326 
Q 2575 -91 1722 -91 
Q 1428 -91 1123 -41 
Q 819 9 494 109 
L 494 744 
Q 775 591 1075 516 
Q 1375 441 1709 441 
Q 2250 441 2565 725 
Q 2881 1009 2881 1497 
Q 2881 1984 2565 2268 
Q 2250 2553 1709 2553 
Q 1456 2553 1204 2497 
Q 953 2441 691 2322 
L 691 4666 
z
" transform="scale(0.015625)"/>
       </defs>
       <use xlink:href="#DejaVuSans-30"/>
       <use xlink:href="#DejaVuSans-2e" x="63.623047"/>
       <use xlink:href="#DejaVuSans-35" x="95.410156"/>
      </g>
     </g>
    </g>
    <g id="ytick_3">
     <g id="line2d_9">
      <g>
       <use xlink:href="#m77937ccf40" x="180" y="419.168411" style="stroke: #000000; stroke-width: 0.8"/>
      </g>
     </g>
     <g id="text_10">
      <!-- 0.6 -->
      <g transform="translate(157.096875 422.96763) scale(0.1 -0.1)">
       <use xlink:href="#DejaVuSans-30"/>
       <use xlink:href="#DejaVuSans-2e" x="63.623047"/>
       <use xlink:href="#DejaVuSans-36" x="95.410156"/>
      </g>
     </g>
    </g>
    <g id="ytick_4">
     <g id="line2d_10">
      <g>
       <use xlink:href="#m77937ccf40" x="180" y="342.276308" style="stroke: #000000; stroke-width: 0.8"/>
      </g>
     </g>
     <g id="text_11">
      <!-- 0.7 -->
      <g transform="translate(157.096875 346.075527) scale(0.1 -0.1)">
       <defs>
        <path id="DejaVuSans-37" d="M 525 4666 
L 3525 4666 
L 3525 4397 
L 1831 0 
L 1172 0 
L 2766 4134 
L 525 4134 
L 525 4666 
z
" transform="scale(0.015625)"/>
       </defs>
       <use xlink:href="#DejaVuSans-30"/>
       <use xlink:href="#DejaVuSans-2e" x="63.623047"/>
       <use xlink:href="#DejaVuSans-37" x="95.410156"/>
      </g>
     </g>
    </g>
    <g id="ytick_5">
     <g id="line2d_11">
      <g>
       <use xlink:href="#m77937ccf40" x="180" y="265.384205" style="stroke: #000000; stroke-width: 0.8"/>
      </g>
     </g>
     <g id="text_12">
      <!-- 0.8 -->
      <g transform="translate(157.096875 269.183424) scale(0.1 -0.1)">
       <use xlink:href="#DejaVuSans-30"/>
       <use xlink:href="#DejaVuSans-2e" x="63.623047"/>
       <use xlink:href="#DejaVuSans-38" x="95.410156"/>
      </g>
     </g>
    </g>
    <g id="ytick_6">
     <g id="line2d_12">
      <g>
       <use xlink:href="#m77937ccf40" x="180" y="188.492103" style="stroke: #000000; stroke-width: 0.8"/>
      </g>
     </g>
     <g id="text_13">
      <!-- 0.9 -->
      <g transform="translate(157.096875 192.291321) scale(0.1 -0.1)">
       <defs>
        <path id="DejaVuSans-39" d="M 703 97 
L 703 672 
Q 941 559 1184 500 
Q 1428 441 1663 441 
Q 2288 441 2617 861 
Q 2947 1281 2994 2138 
Q 2813 1869 2534 1725 
Q 2256 1581 1919 1581 
Q 1219 1581 811 2004 
Q 403 2428 403 3163 
Q 403 3881 828 4315 
Q 1253 4750 1959 4750 
Q 2769 4750 3195 4129 
Q 3622 3509 3622 2328 
Q 3622 1225 3098 567 
Q 2575 -91 1691 -91 
Q 1453 -91 1209 -44 
Q 966 3 703 97 
z
M 1959 2075 
Q 2384 2075 2632 2365 
Q 2881 2656 2881 3163 
Q 2881 3666 2632 3958 
Q 2384 4250 1959 4250 
Q 1534 4250 1286 3958 
Q 1038 3666 1038 3163 
Q 1038 2656 1286 2365 
Q 1534 2075 1959 2075 
z
" transform="scale(0.015625)"/>
       </defs>
       <use xlink:href="#DejaVuSans-30"/>
       <use xlink:href="#DejaVuSans-2e" x="63.623047"/>
       <use xlink:href="#DejaVuSans-39" x="95.410156"/>
      </g>
     </g>
    </g>
    <g id="ytick_7">
     <g id="line2d_13">
      <g>
       <use xlink:href="#m77937ccf40" x="180" y="111.6" style="stroke: #000000; stroke-width: 0.8"/>
      </g>
     </g>
     <g id="text_14">
      <!-- 1.0 -->
      <g transform="translate(157.096875 115.399219) scale(0.1 -0.1)">
       <use xlink:href="#DejaVuSans-31"/>
       <use xlink:href="#DejaVuSans-2e" x="63.623047"/>
       <use xlink:href="#DejaVuSans-30" x="95.410156"/>
      </g>
     </g>
    </g>
    <g id="text_15">
     <!-- Precision -->
     <g transform="translate(151.017188 385.907031) rotate(-90) scale(0.1 -0.1)">
      <defs>
       <path id="DejaVuSans-50" d="M 1259 4147 
L 1259 2394 
L 2053 2394 
Q 2494 2394 2734 2622 
Q 2975 2850 2975 3272 
Q 2975 3691 2734 3919 
Q 2494 4147 2053 4147 
L 1259 4147 
z
M 628 4666 
L 2053 4666 
Q 2838 4666 3239 4311 
Q 3641 3956 3641 3272 
Q 3641 2581 3239 2228 
Q 2838 1875 2053 1875 
L 1259 1875 
L 1259 0 
L 628 0 
L 628 4666 
z
" transform="scale(0.015625)"/>
       <path id="DejaVuSans-72" d="M 2631 2963 
Q 2534 3019 2420 3045 
Q 2306 3072 2169 3072 
Q 1681 3072 1420 2755 
Q 1159 2438 1159 1844 
L 1159 0 
L 581 0 
L 581 3500 
L 1159 3500 
L 1159 2956 
Q 1341 3275 1631 3429 
Q 1922 3584 2338 3584 
Q 2397 3584 2469 3576 
Q 2541 3569 2628 3553 
L 2631 2963 
z
" transform="scale(0.015625)"/>
       <path id="DejaVuSans-69" d="M 603 3500 
L 1178 3500 
L 1178 0 
L 603 0 
L 603 3500 
z
M 603 4863 
L 1178 4863 
L 1178 4134 
L 603 4134 
L 603 4863 
z
" transform="scale(0.015625)"/>
       <path id="DejaVuSans-73" d="M 2834 3397 
L 2834 2853 
Q 2591 2978 2328 3040 
Q 2066 3103 1784 3103 
Q 1356 3103 1142 2972 
Q 928 2841 928 2578 
Q 928 2378 1081 2264 
Q 1234 2150 1697 2047 
L 1894 2003 
Q 2506 1872 2764 1633 
Q 3022 1394 3022 966 
Q 3022 478 2636 193 
Q 2250 -91 1575 -91 
Q 1294 -91 989 -36 
Q 684 19 347 128 
L 347 722 
Q 666 556 975 473 
Q 1284 391 1588 391 
Q 1994 391 2212 530 
Q 2431 669 2431 922 
Q 2431 1156 2273 1281 
Q 2116 1406 1581 1522 
L 1381 1569 
Q 847 1681 609 1914 
Q 372 2147 372 2553 
Q 372 3047 722 3315 
Q 1072 3584 1716 3584 
Q 2034 3584 2315 3537 
Q 2597 3491 2834 3397 
z
" transform="scale(0.015625)"/>
       <path id="DejaVuSans-6f" d="M 1959 3097 
Q 1497 3097 1228 2736 
Q 959 2375 959 1747 
Q 959 1119 1226 758 
Q 1494 397 1959 397 
Q 2419 397 2687 759 
Q 2956 1122 2956 1747 
Q 2956 2369 2687 2733 
Q 2419 3097 1959 3097 
z
M 1959 3584 
Q 2709 3584 3137 3096 
Q 3566 2609 3566 1747 
Q 3566 888 3137 398 
Q 2709 -91 1959 -91 
Q 1206 -91 779 398 
Q 353 888 353 1747 
Q 353 2609 779 3096 
Q 1206 3584 1959 3584 
z
" transform="scale(0.015625)"/>
       <path id="DejaVuSans-6e" d="M 3513 2113 
L 3513 0 
L 2938 0 
L 2938 2094 
Q 2938 2591 2744 2837 
Q 2550 3084 2163 3084 
Q 1697 3084 1428 2787 
Q 1159 2491 1159 1978 
L 1159 0 
L 581 0 
L 581 3500 
L 1159 3500 
L 1159 2956 
Q 1366 3272 1645 3428 
Q 1925 3584 2291 3584 
Q 2894 3584 3203 3211 
Q 3513 2838 3513 2113 
z
" transform="scale(0.015625)"/>
      </defs>
      <use xlink:href="#DejaVuSans-50"/>
      <use xlink:href="#DejaVuSans-72" x="58.552734"/>
      <use xlink:href="#DejaVuSans-65" x="97.416016"/>
      <use xlink:href="#DejaVuSans-63" x="158.939453"/>
      <use xlink:href="#DejaVuSans-69" x="213.919922"/>
      <use xlink:href="#DejaVuSans-73" x="241.703125"/>
      <use xlink:href="#DejaVuSans-69" x="293.802734"/>
      <use xlink:href="#DejaVuSans-6f" x="321.585938"/>
      <use xlink:href="#DejaVuSans-6e" x="382.767578"/>
     </g>
    </g>
   </g>
   <g id="line2d_14">
    <path d="M 1245.272727 615.6 
L 1245.167153 551.254644 
L 1245.146038 551.258563 
L 1245.146038 551.147004 
L 1245.040464 530.910242 
L 1245.01935 530.914211 
L 1245.01935 530.801667 
L 1244.913776 516.719032 
L 1244.892661 516.723022 
L 1244.892661 516.611897 
L 1244.787087 506.818109 
L 1244.765972 506.822109 
L 1244.765972 506.712405 
L 1244.660398 491.454425 
L 1244.639283 491.458428 
L 1244.639283 491.347706 
L 1244.533709 481.621228 
L 1244.512594 481.625226 
L 1244.512594 481.513134 
L 1244.40702 473.014783 
L 1244.36479 472.937271 
L 1244.36479 472.910267 
L 1244.259216 460.551997 
L 1244.238102 460.555967 
L 1244.238102 460.44603 
L 1244.132528 454.068316 
L 1244.111413 454.072274 
L 1244.111413 453.963831 
L 1244.005839 449.524693 
L 1243.984724 449.52864 
L 1243.984724 449.41786 
L 1243.87915 445.416333 
L 1243.858035 445.42027 
L 1243.858035 445.307354 
L 1243.752461 440.651661 
L 1243.731346 440.655585 
L 1243.731346 440.545415 
L 1243.625772 436.631229 
L 1243.604657 436.63514 
L 1243.604657 436.522933 
L 1243.499083 433.388285 
L 1243.477969 433.392187 
L 1243.477969 433.283743 
L 1243.372394 429.463202 
L 1243.35128 429.46709 
L 1243.35128 429.35672 
L 1243.245706 423.431139 
L 1243.224591 423.435005 
L 1243.224591 423.327318 
L 1243.119017 419.6663 
L 1243.097902 419.670151 
L 1243.097902 419.560668 
L 1242.992328 417.832684 
L 1242.971213 417.836528 
L 1242.971213 417.726159 
L 1242.865639 415.597222 
L 1242.844524 415.601056 
L 1242.844524 415.489604 
L 1242.73895 413.517087 
L 1242.717835 413.520913 
L 1242.717835 413.408447 
L 1242.612261 412.210645 
L 1242.591147 412.214466 
L 1242.591147 412.10731 
L 1242.485572 408.792087 
L 1242.464458 408.795892 
L 1242.464458 408.687152 
L 1242.358884 405.585805 
L 1242.316654 405.587262 
L 1242.316654 405.483147 
L 1242.21108 402.809917 
L 1242.189965 402.813693 
L 1242.189965 402.702148 
L 1242.084391 397.899954 
L 1242.063276 397.903705 
L 1242.063276 397.796168 
L 1241.957702 395.647616 
L 1241.936587 395.651356 
L 1241.936587 395.542798 
L 1241.831013 394.748945 
L 1241.809899 394.75268 
L 1241.809899 394.643706 
L 1241.704325 393.930329 
L 1241.662095 393.931361 
L 1241.662095 393.828437 
L 1241.556521 391.597594 
L 1241.535406 391.601313 
L 1241.535406 391.490891 
L 1241.429832 389.670408 
L 1241.408717 389.674117 
L 1241.408717 389.562808 
L 1241.303143 388.531224 
L 1241.260914 388.505739 
L 1241.260914 388.426787 
L 1241.15534 386.57592 
L 1241.091995 386.520677 
L 1241.091995 386.474245 
L 1240.986421 385.162325 
L 1240.965306 385.166008 
L 1240.965306 385.059268 
L 1240.859732 383.833406 
L 1240.838617 383.837081 
L 1240.838617 383.729754 
L 1240.733043 380.961518 
L 1240.711929 380.965177 
L 1240.711929 380.856591 
L 1240.606354 379.936336 
L 1240.564125 379.868677 
L 1240.564125 379.834595 
L 1240.458551 378.389734 
L 1240.437436 378.393378 
L 1240.437436 378.283641 
L 1240.331862 377.312031 
L 1240.289632 377.305529 
L 1240.289632 377.209081 
L 1240.184058 373.660364 
L 1240.141829 373.667591 
L 1240.141829 373.555746 
L 1240.036255 372.473671 
L 1240.01514 372.477277 
L 1240.01514 372.364892 
L 1239.909566 369.3224 
L 1239.888451 369.325985 
L 1239.888451 369.219301 
L 1239.782877 367.996382 
L 1239.761762 367.999958 
L 1239.761762 367.892706 
L 1239.656188 365.820906 
L 1239.613958 365.755915 
L 1239.613958 365.71985 
L 1239.508384 364.790924 
L 1239.48727 364.794478 
L 1239.48727 364.685851 
L 1239.381696 364.268638 
L 1239.360581 364.27219 
L 1239.360581 364.163328 
L 1239.255007 362.754347 
L 1239.233892 362.757887 
L 1239.233892 362.648373 
L 1239.128318 361.450968 
L 1239.086088 361.384649 
L 1239.086088 361.34795 
L 1238.980514 359.575695 
L 1238.91717 359.519719 
L 1238.91717 359.475355 
L 1238.811596 357.347024 
L 1238.790481 357.350527 
L 1238.790481 357.238663 
L 1238.684907 355.984986 
L 1238.663792 355.988479 
L 1238.663792 355.876018 
L 1238.558218 355.11239 
L 1238.515988 355.029086 
L 1238.515988 355.014036 
L 1238.410414 354.489102 
L 1238.3893 354.492584 
L 1238.3893 354.386993 
L 1238.283726 353.042971 
L 1238.262611 353.046442 
L 1238.262611 352.940257 
L 1238.157037 352.509628 
L 1238.135922 352.513095 
L 1238.135922 352.406682 
L 1238.030348 351.502473 
L 1238.009233 351.505933 
L 1238.009233 351.3991 
L 1237.903659 349.616591 
L 1237.861429 349.577368 
L 1237.861429 349.515871 
L 1237.755855 348.222851 
L 1237.692511 348.171336 
L 1237.692511 348.124962 
L 1237.586937 347.127577 
L 1237.565822 347.131003 
L 1237.565822 347.022347 
L 1237.460248 346.518847 
L 1237.396904 346.435756 
L 1237.396904 346.420194 
L 1237.291329 345.509653 
L 1237.2491 345.430568 
L 1237.2491 345.407132 
L 1237.164641 344.4346 
L 1237.143526 344.438006 
L 1237.122411 344.441412 
L 1237.122411 344.331609 
L 1237.016837 343.743891 
L 1236.995722 343.747291 
L 1236.995722 343.63719 
L 1236.890148 342.637516 
L 1236.869033 342.640908 
L 1236.869033 342.530338 
L 1236.763459 341.470776 
L 1236.679 341.397043 
L 1236.679 341.37324 
L 1236.573426 340.834107 
L 1236.531196 340.753378 
L 1236.531196 340.729514 
L 1236.425622 340.260682 
L 1236.404508 340.264055 
L 1236.404508 340.152455 
L 1236.298933 339.106766 
L 1236.277819 339.110129 
L 1236.277819 338.998038 
L 1236.172245 338.590067 
L 1236.15113 338.593427 
L 1236.15113 338.481107 
L 1236.045556 338.064213 
L 1236.024441 338.067568 
L 1236.024441 337.963057 
L 1235.939982 337.566068 
L 1235.918867 337.56942 
L 1235.897752 337.572771 
L 1235.897752 337.468056 
L 1235.792178 337.138143 
L 1235.749948 337.128705 
L 1235.749948 337.039945 
L 1235.644374 336.483052 
L 1235.62326 336.486395 
L 1235.62326 336.381232 
L 1235.517686 335.587599 
L 1235.496571 335.590935 
L 1235.496571 335.485411 
L 1235.390997 334.583082 
L 1235.369882 334.586409 
L 1235.369882 334.480483 
L 1235.264308 333.582778 
L 1235.222078 333.564882 
L 1235.222078 333.483087 
L 1235.116504 332.959193 
L 1235.074275 332.941227 
L 1235.074275 332.859233 
L 1234.968701 332.440803 
L 1234.926471 332.389917 
L 1234.926471 332.340617 
L 1234.820897 331.863656 
L 1234.757552 331.766524 
L 1234.651978 331.057291 
L 1234.567519 330.963104 
L 1234.461945 330.400642 
L 1234.419715 330.332702 
L 1234.419715 330.299572 
L 1234.314141 329.710694 
L 1234.293027 329.713981 
L 1234.293027 329.60604 
L 1234.187453 328.898974 
L 1234.166338 328.902254 
L 1234.166338 328.793981 
L 1234.060764 328.001113 
L 1234.018534 327.974235 
L 1234.018534 327.899018 
L 1233.91296 327.597552 
L 1233.891845 327.600821 
L 1233.891845 327.492007 
L 1233.786271 327.00555 
L 1233.701812 326.917933 
L 1233.701812 326.909542 
L 1233.596238 326.127507 
L 1233.554008 326.125605 
L 1233.554008 326.024591 
L 1233.448434 325.391795 
L 1233.406205 325.339212 
L 1233.406205 325.288559 
L 1233.300631 324.467657 
L 1233.216171 324.38745 
L 1233.216171 324.370506 
L 1233.110597 323.427627 
L 1233.068368 323.357562 
L 1233.068368 323.323542 
L 1232.962794 322.428065 
L 1232.941679 322.431288 
L 1232.941679 322.320324 
L 1232.836105 321.960523 
L 1232.81499 321.963743 
L 1232.81499 321.852579 
L 1232.709416 320.814646 
L 1232.603842 320.727643 
L 1232.603842 320.719054 
L 1232.498268 320.184813 
L 1232.477153 320.188017 
L 1232.477153 320.076107 
L 1232.371579 319.290192 
L 1232.329349 319.192939 
L 1232.329349 319.1843 
L 1232.223775 318.707403 
L 1232.202661 318.710593 
L 1232.202661 318.606719 
L 1232.097086 318.137391 
L 1232.075972 318.140577 
L 1232.075972 318.036479 
L 1231.970398 317.78329 
L 1231.949283 317.786472 
L 1231.949283 317.68223 
L 1231.843709 316.697138 
L 1231.822594 316.70031 
L 1231.822594 316.595652 
L 1231.71702 315.95648 
L 1231.695905 315.959645 
L 1231.695905 315.854698 
L 1231.590331 315.634235 
L 1231.569216 315.637397 
L 1231.569216 315.532317 
L 1231.484757 314.93997 
L 1231.463642 314.943126 
L 1231.400298 314.873583 
L 1231.400298 314.847241 
L 1231.294724 313.551545 
L 1231.252494 313.513715 
L 1231.252494 313.451942 
L 1231.14692 313.176238 
L 1231.125805 313.179378 
L 1231.125805 313.073334 
L 1231.020231 312.797187 
L 1230.956887 312.797746 
L 1230.956887 312.700394 
L 1230.872428 312.136965 
L 1230.851313 312.140095 
L 1230.830198 312.143225 
L 1230.830198 312.036762 
L 1230.724624 311.181422 
L 1230.640165 311.113778 
L 1230.640165 311.087065 
L 1230.534591 310.853204 
L 1230.492361 310.761376 
L 1230.492361 310.752459 
L 1230.386787 309.964368 
L 1230.365672 309.967477 
L 1230.365672 309.860147 
L 1230.260098 309.517614 
L 1230.217869 309.434233 
L 1230.217869 309.416311 
L 1230.112294 308.687058 
L 1230.070065 308.693252 
L 1230.070065 308.58541 
L 1229.964491 308.160094 
L 1229.901146 308.133355 
L 1229.901146 308.061312 
L 1229.795572 307.337246 
L 1229.732228 307.238111 
L 1229.626654 306.375851 
L 1229.584424 306.309492 
L 1229.584424 306.273232 
L 1229.47885 305.716863 
L 1229.457735 305.719931 
L 1229.457735 305.610898 
L 1229.352161 304.99846 
L 1229.288817 304.907433 
L 1229.288817 304.898321 
L 1229.183243 304.512399 
L 1229.119898 304.421172 
L 1229.119898 304.412043 
L 1229.014324 303.924773 
L 1228.99321 303.927823 
L 1228.99321 303.818059 
L 1228.887636 303.558698 
L 1228.824291 303.531203 
L 1228.824291 303.457919 
L 1228.718717 302.858625 
L 1228.697602 302.861665 
L 1228.697602 302.751462 
L 1228.592028 302.233386 
L 1228.570913 302.236419 
L 1228.570913 302.125963 
L 1228.486454 301.686607 
L 1228.465339 301.689635 
L 1228.401995 301.643386 
L 1228.401995 301.58804 
L 1228.296421 300.540282 
L 1228.190847 300.490538 
L 1228.190847 300.444224 
L 1228.085273 300.051398 
L 1228.064158 300.05441 
L 1228.064158 299.943061 
L 1227.958584 298.693111 
L 1227.89524 298.646166 
L 1227.89524 298.590218 
L 1227.831895 297.96435 
L 1227.789665 297.97033 
L 1227.726321 297.913866 
L 1227.726321 297.867118 
L 1227.641862 297.532888 
L 1227.620747 297.535874 
L 1227.578517 297.485667 
L 1227.578517 297.438843 
L 1227.472943 297.247642 
L 1227.430714 297.253609 
L 1227.430714 297.150489 
L 1227.32514 296.808867 
L 1227.24068 296.726882 
L 1227.24068 296.71749 
L 1227.135106 296.506875 
L 1227.071762 296.459398 
L 1227.071762 296.412385 
L 1226.966188 295.164418 
L 1226.902843 295.116629 
L 1226.902843 295.069392 
L 1226.797269 294.810054 
L 1226.75504 294.740299 
L 1226.75504 294.711917 
L 1226.649466 294.347991 
L 1226.607236 294.259141 
L 1226.607236 294.249664 
L 1226.501662 293.733176 
L 1226.459433 293.6441 
L 1226.459433 293.634602 
L 1226.353858 292.80267 
L 1226.290514 292.716195 
L 1226.290514 292.706665 
L 1226.18494 291.957872 
L 1226.121596 291.861521 
L 1226.016022 291.273255 
L 1225.994907 291.276176 
L 1225.994907 291.170779 
L 1225.889333 290.494539 
L 1225.847103 290.394674 
L 1225.741529 289.976445 
L 1225.65707 289.901436 
L 1225.65707 289.88218 
L 1225.551496 289.520942 
L 1225.488151 289.520009 
L 1225.488151 289.423574 
L 1225.382577 289.341611 
L 1225.319233 289.282763 
L 1225.319233 289.244155 
L 1225.213659 288.978584 
L 1225.150314 288.890635 
L 1225.150314 288.880969 
L 1225.04474 288.460134 
L 1224.981396 288.449447 
L 1224.981396 288.362298 
L 1224.875822 287.542652 
L 1224.833592 287.470704 
L 1224.833592 287.441557 
L 1224.728018 286.989188 
L 1224.664674 286.929681 
L 1224.664674 286.89074 
L 1224.5591 286.447146 
L 1224.495755 286.367977 
L 1224.495755 286.348467 
L 1224.390181 285.884386 
L 1224.326837 285.805017 
L 1224.326837 285.785466 
L 1224.221263 284.967649 
L 1224.200148 284.970503 
L 1224.200148 284.862643 
L 1224.094574 284.415587 
L 1223.94677 284.347097 
L 1223.94677 284.327443 
L 1223.841196 283.741575 
L 1223.777852 283.700853 
L 1223.777852 283.641749 
L 1223.672278 282.846974 
L 1223.651163 282.849804 
L 1223.651163 282.741115 
L 1223.566704 282.485471 
L 1223.545589 282.488298 
L 1223.46113 282.420454 
L 1223.46113 282.390768 
L 1223.355556 281.998858 
L 1223.271096 281.911022 
L 1223.271096 281.901108 
L 1223.165522 281.786291 
L 1223.102178 281.695539 
L 1223.102178 281.685617 
L 1222.996604 281.213057 
L 1222.954374 281.198803 
L 1222.954374 281.109323 
L 1222.8488 280.565991 
L 1222.806571 280.481922 
L 1222.806571 280.46199 
L 1222.700997 279.797479 
L 1222.595422 279.701551 
L 1222.489848 279.075197 
L 1222.447619 279.060742 
L 1222.447619 278.970577 
L 1222.342045 278.693785 
L 1222.299815 278.649199 
L 1222.299815 278.589 
L 1222.194241 277.939904 
L 1222.130897 277.867765 
L 1222.130897 277.837584 
L 1222.025323 277.468883 
L 1221.983093 277.373664 
L 1221.983093 277.363586 
L 1221.877519 276.782202 
L 1221.856404 276.784965 
L 1221.856404 276.673858 
L 1221.75083 276.202328 
L 1221.666371 276.112138 
L 1221.666371 276.102015 
L 1221.603026 275.806409 
L 1221.560797 275.811913 
L 1221.497452 275.769492 
L 1221.497452 275.708667 
L 1221.391878 275.286126 
L 1221.370764 275.288872 
L 1221.370764 275.177159 
L 1221.26519 275.038472 
L 1221.22296 275.003302 
L 1221.22296 274.932139 
L 1221.117386 274.599942 
L 1221.054041 274.557253 
L 1221.054041 274.496157 
L 1220.948467 274.285705 
L 1220.864008 274.204901 
L 1220.864008 274.194705 
L 1220.758434 273.595971 
L 1220.737319 273.598698 
L 1220.737319 273.496509 
L 1220.631745 272.691334 
L 1220.547286 272.620194 
L 1220.547286 272.599689 
L 1220.441712 272.284978 
L 1220.378368 272.210983 
L 1220.378368 272.190447 
L 1220.293908 271.893068 
L 1220.272793 271.895775 
L 1220.230564 271.860068 
L 1220.230564 271.798375 
L 1220.12499 271.08088 
L 1220.040531 271.009188 
L 1220.040531 270.988563 
L 1219.934957 270.682172 
L 1219.913842 270.684865 
L 1219.913842 270.581606 
L 1219.829383 270.230675 
L 1219.808268 270.233363 
L 1219.766038 270.135313 
L 1219.660464 269.827886 
L 1219.639349 269.830569 
L 1219.639349 269.726992 
L 1219.55489 269.582281 
L 1219.533775 269.584962 
L 1219.470431 269.582637 
L 1219.470431 269.489328 
L 1219.364857 269.12918 
L 1219.280397 269.077576 
L 1219.280397 269.036032 
L 1219.174823 268.820797 
L 1219.153709 268.823469 
L 1219.153709 268.719499 
L 1219.069249 268.386812 
L 1219.048135 268.389479 
L 1218.98479 268.314176 
L 1218.98479 268.293346 
L 1218.879216 267.566266 
L 1218.815872 267.469806 
L 1218.710298 266.928971 
L 1218.668068 266.881942 
L 1218.668068 266.829605 
L 1218.562494 266.360896 
L 1218.520264 266.366181 
L 1218.520264 266.261307 
L 1218.41469 265.697026 
L 1218.330231 265.612957 
L 1218.330231 265.602443 
L 1218.224657 265.436813 
L 1218.140198 265.352634 
L 1218.140198 265.34211 
L 1218.034624 264.902338 
L 1217.950165 264.860127 
L 1217.950165 264.807406 
L 1217.84459 264.535661 
L 1217.781246 264.437946 
L 1217.675672 264.303168 
L 1217.570098 264.221152 
L 1217.570098 264.210582 
L 1217.464524 263.419283 
L 1217.401179 263.427106 
L 1217.401179 263.321105 
L 1217.295605 263.026509 
L 1217.253376 262.978642 
L 1217.253376 262.925562 
L 1217.147802 262.343402 
L 1217.063343 262.258015 
L 1217.063343 262.247373 
L 1216.957768 261.866292 
L 1216.936654 261.868881 
L 1216.936654 261.762294 
L 1216.83108 261.284425 
L 1216.725506 261.265293 
L 1216.725506 261.190525 
L 1216.619932 260.807895 
L 1216.577702 260.759556 
L 1216.577702 260.706056 
L 1216.472128 260.172668 
L 1216.408783 260.116039 
L 1216.408783 260.073144 
L 1216.303209 259.914325 
L 1216.282095 259.91689 
L 1216.282095 259.809558 
L 1216.176521 259.478641 
L 1216.134291 259.408515 
L 1216.134291 259.376261 
L 1216.028717 259.206208 
L 1215.986487 259.114474 
L 1215.986487 259.103712 
L 1215.902028 258.747764 
L 1215.880913 258.750314 
L 1215.796454 258.717406 
L 1215.796454 258.652731 
L 1215.69088 258.201544 
L 1215.669765 258.204087 
L 1215.669765 258.096095 
L 1215.564191 257.741328 
L 1215.500847 257.705678 
L 1215.500847 257.640772 
L 1215.395273 257.317871 
L 1215.289699 257.222198 
L 1215.205239 256.592331 
L 1215.184125 256.594854 
L 1215.141895 256.567323 
L 1215.141895 256.491293 
L 1215.036321 256.27569 
L 1214.951862 256.17703 
L 1214.846288 255.808715 
L 1214.761828 255.775206 
L 1214.761828 255.709848 
L 1214.656254 255.428113 
L 1214.571795 255.372709 
L 1214.571795 255.329074 
L 1214.466221 254.686314 
L 1214.381762 254.619768 
L 1214.381762 254.586957 
L 1214.276188 254.303978 
L 1214.212843 254.23481 
L 1214.212843 254.201953 
L 1214.107269 253.644316 
L 1213.959466 253.573914 
L 1213.959466 253.551958 
L 1213.853892 253.377685 
L 1213.790547 253.319212 
L 1213.790547 253.275255 
L 1213.684973 252.715626 
L 1213.600514 252.626408 
L 1213.600514 252.615392 
L 1213.49494 252.341214 
L 1213.389366 252.287399 
L 1213.389366 252.243279 
L 1213.304907 251.888912 
L 1213.283792 251.891377 
L 1213.199332 251.83496 
L 1213.199332 251.790768 
L 1213.093758 251.582019 
L 1213.051529 251.498468 
L 1213.051529 251.476346 
L 1212.945955 251.045844 
L 1212.903725 251.006436 
L 1212.903725 250.939951 
L 1212.819266 250.495047 
L 1212.798151 250.497493 
L 1212.692577 250.409817 
L 1212.692577 250.398714 
L 1212.587003 249.977581 
L 1212.544773 249.882367 
L 1212.544773 249.871243 
L 1212.439199 249.627471 
L 1212.39697 249.610075 
L 1212.39697 249.520985 
L 1212.291396 249.299162 
L 1212.206936 249.230847 
L 1212.206936 249.197395 
L 1212.101362 248.897134 
L 1212.016903 248.795183 
L 1211.911329 248.650913 
L 1211.890214 248.653337 
L 1211.890214 248.541575 
L 1211.78464 248.441878 
L 1211.742411 248.357242 
L 1211.742411 248.346055 
L 1211.636837 248.134325 
L 1211.615722 248.136743 
L 1211.615722 248.035966 
L 1211.510148 247.59973 
L 1211.404574 247.522036 
L 1211.404574 247.510816 
L 1211.299 246.983796 
L 1211.25677 246.909907 
L 1211.25677 246.88742 
L 1211.172311 246.514475 
L 1211.151196 246.516871 
L 1211.130081 246.519267 
L 1211.130081 246.417924 
L 1211.024507 245.877533 
L 1210.940048 245.819376 
L 1210.940048 245.785518 
L 1210.834474 245.582912 
L 1210.7289 245.493151 
L 1210.644441 245.016398 
L 1210.623326 245.018774 
L 1210.559981 244.924022 
L 1210.454407 244.562031 
L 1210.369948 244.492145 
L 1210.369948 244.469466 
L 1210.264374 244.288455 
L 1210.1588 244.198135 
L 1210.053226 243.960096 
L 1209.989882 243.933095 
L 1209.989882 243.864904 
L 1209.884307 243.558276 
L 1209.842078 243.494711 
L 1209.842078 243.460566 
L 1209.736504 243.073686 
L 1209.694274 242.998593 
L 1209.694274 242.975791 
L 1209.5887 242.496866 
L 1209.546471 242.455868 
L 1209.546471 242.398754 
L 1209.440897 242.341908 
L 1209.398667 242.300877 
L 1209.398667 242.243727 
L 1209.335322 242.079227 
L 1209.293093 242.083902 
L 1209.229748 241.999394 
L 1209.229748 241.987952 
L 1209.124174 241.633249 
L 1209.10306 241.63558 
L 1209.10306 241.532457 
L 1208.997486 241.337747 
L 1208.891911 241.246149 
L 1208.786337 241.005264 
L 1208.744108 240.906548 
L 1208.638534 240.584848 
L 1208.575189 240.580301 
L 1208.575189 240.488285 
L 1208.469615 240.166063 
L 1208.406271 240.09237 
L 1208.406271 240.06933 
L 1208.321812 239.744278 
L 1208.300697 239.746584 
L 1208.258467 239.716594 
L 1208.258467 239.647375 
L 1208.152893 239.243246 
L 1208.00509 239.166894 
L 1208.00509 239.155336 
L 1207.899515 238.877719 
L 1207.793941 238.819764 
L 1207.793941 238.785044 
L 1207.688367 238.62284 
L 1207.646138 238.546342 
L 1207.646138 238.523172 
L 1207.540564 238.29122 
L 1207.477219 238.193705 
L 1207.371645 237.891778 
L 1207.329416 237.896342 
L 1207.329416 237.791818 
L 1207.223842 237.477795 
L 1207.202727 237.480071 
L 1207.202727 237.375398 
L 1207.097153 237.107458 
L 1207.033808 237.009462 
L 1206.928234 236.881002 
L 1206.82266 236.810755 
L 1206.82266 236.787439 
L 1206.738201 236.586583 
L 1206.717086 236.588848 
L 1206.590397 236.544093 
L 1206.590397 236.497411 
L 1206.484823 236.427014 
L 1206.442594 236.326443 
L 1206.33702 235.811715 
L 1206.273675 235.771675 
L 1206.273675 235.713163 
L 1206.189216 235.581692 
L 1206.168101 235.583944 
L 1206.062527 235.501503 
L 1206.062527 235.489789 
L 1205.956953 235.172851 
L 1205.872494 235.11146 
L 1205.872494 235.076267 
L 1205.76692 234.876238 
L 1205.682461 234.779521 
L 1205.576886 234.626245 
L 1205.492427 234.529413 
L 1205.386853 234.317142 
L 1205.323509 234.217938 
L 1205.217935 234.040725 
L 1205.027901 233.954777 
L 1204.922327 233.600435 
L 1204.837868 233.514941 
L 1204.837868 233.50314 
L 1204.732294 233.266318 
L 1204.690064 233.164437 
L 1204.58449 232.903642 
L 1204.542261 232.801616 
L 1204.436687 232.658841 
L 1204.352228 232.620335 
L 1204.352228 232.561132 
L 1204.246654 232.33525 
L 1204.183309 232.258901 
L 1204.183309 232.235191 
L 1204.077735 231.937808 
L 1203.951046 231.856057 
L 1203.951046 231.844184 
L 1203.845472 231.617631 
L 1203.761013 231.555116 
L 1203.761013 231.519458 
L 1203.676554 231.242815 
L 1203.655439 231.245008 
L 1203.613209 231.237494 
L 1203.613209 231.142288 
L 1203.507635 230.927001 
L 1203.423176 230.84044 
L 1203.423176 230.828524 
L 1203.317602 230.481745 
L 1203.275372 230.438382 
L 1203.275372 230.378714 
L 1203.169798 230.174705 
L 1203.064224 230.078077 
L 1202.95865 229.562769 
L 1202.831961 229.51593 
L 1202.831961 229.468039 
L 1202.747502 229.045349 
L 1202.726387 229.047511 
L 1202.663043 228.994036 
L 1202.663043 228.94606 
L 1202.557469 228.57277 
L 1202.451895 228.511472 
L 1202.451895 228.475429 
L 1202.346321 228.366019 
L 1202.240747 228.268573 
L 1202.135173 227.725663 
L 1202.008484 227.642128 
L 1202.008484 227.630077 
L 1201.90291 227.315208 
L 1201.86068 227.259153 
L 1201.86068 227.210882 
L 1201.776221 226.687932 
L 1201.755106 226.69006 
L 1201.607302 226.608218 
L 1201.607302 226.596124 
L 1201.501728 226.401069 
L 1201.438384 226.395338 
L 1201.438384 226.298489 
L 1201.353925 226.22221 
L 1201.33281 226.224332 
L 1201.269465 226.1459 
L 1201.269465 226.121668 
L 1201.163891 225.744283 
L 1201.100547 225.702096 
L 1201.100547 225.641419 
L 1200.994973 225.409151 
L 1200.952743 225.376929 
L 1200.952743 225.304033 
L 1200.868284 225.093668 
L 1200.847169 225.095774 
L 1200.699366 225.001047 
L 1200.593792 224.829028 
L 1200.530447 224.737933 
L 1200.530447 224.725755 
L 1200.445988 224.612353 
L 1200.424873 224.614452 
L 1200.382643 224.582099 
L 1200.382643 224.508982 
L 1200.277069 224.336595 
L 1200.213725 224.2575 
L 1200.213725 224.233101 
L 1200.129266 223.997375 
L 1200.108151 223.999466 
L 1200.023692 223.910129 
L 1200.023692 223.897914 
L 1199.918118 223.517228 
L 1199.770314 223.446182 
L 1199.770314 223.421712 
L 1199.66474 223.16281 
L 1199.453592 223.085596 
L 1199.453592 223.073344 
L 1199.348018 222.863095 
L 1199.326903 222.865169 
L 1199.326903 222.754793 
L 1199.221329 222.396943 
L 1199.157985 222.292595 
L 1199.073525 222.079634 
L 1199.052411 222.081697 
L 1198.946836 222.018231 
L 1198.946836 221.981334 
L 1198.841262 221.683983 
L 1198.799033 221.626529 
L 1198.799033 221.577265 
L 1198.693459 221.427376 
L 1198.56677 221.365742 
L 1198.56677 221.328757 
L 1198.461196 221.104667 
L 1198.397851 221.012086 
L 1198.397851 220.999743 
L 1198.313392 220.958553 
L 1198.292277 220.9606 
L 1198.271163 220.962647 
L 1198.271163 220.85151 
L 1198.165589 220.565168 
L 1198.123359 220.532159 
L 1198.123359 220.457964 
L 1198.017785 220.307338 
L 1197.891096 220.232925 
L 1197.891096 220.208167 
L 1197.785522 220.106905 
L 1197.764407 220.10894 
L 1197.764407 219.997457 
L 1197.658833 219.75973 
L 1197.553259 219.683066 
L 1197.553259 219.658258 
L 1197.447685 219.38295 
L 1197.405455 219.337329 
L 1197.405455 219.287651 
L 1197.299881 219.111394 
L 1197.257652 219.053285 
L 1197.257652 219.01599 
L 1197.152078 218.963912 
L 1197.088733 218.89534 
L 1197.088733 218.870461 
L 1196.983159 218.656532 
L 1196.877585 218.59189 
L 1196.877585 218.566982 
L 1196.772011 218.402627 
L 1196.729782 218.331866 
L 1196.729782 218.306935 
L 1196.624207 217.880351 
L 1196.560863 217.811446 
L 1196.560863 217.786471 
L 1196.455289 217.709044 
L 1196.391945 217.690058 
L 1196.391945 217.615088 
L 1196.307485 217.510589 
L 1196.286371 217.512586 
L 1196.244141 217.504078 
L 1196.244141 217.41655 
L 1196.138567 217.226361 
L 1195.906304 217.16066 
L 1195.906304 217.14814 
L 1195.80073 216.995285 
L 1195.7585 216.974208 
L 1195.7585 216.899027 
L 1195.695156 216.754573 
L 1195.652926 216.758545 
L 1195.526237 216.670134 
L 1195.420663 216.378863 
L 1195.399549 216.380844 
L 1195.399549 216.280383 
L 1195.336204 216.135564 
L 1195.293975 216.139518 
L 1195.167286 216.050828 
L 1195.061712 215.897229 
L 1194.998367 215.802503 
L 1194.892793 215.623554 
L 1194.829449 215.591687 
L 1194.829449 215.528715 
L 1194.744989 215.347591 
L 1194.723875 215.349557 
L 1194.639415 215.281786 
L 1194.639415 215.25657 
L 1194.533841 214.976253 
L 1194.428267 214.935566 
L 1194.428267 214.885069 
L 1194.322693 214.831729 
L 1194.280464 214.835645 
L 1194.280464 214.734598 
L 1194.17489 214.63066 
L 1194.09043 214.537356 
L 1193.984856 214.332113 
L 1193.942627 214.272748 
L 1193.942627 214.234781 
L 1193.837053 214.067282 
L 1193.773708 214.009794 
L 1193.773708 213.971791 
L 1193.689249 213.650011 
L 1193.668134 213.651952 
L 1193.625905 213.630468 
L 1193.625905 213.554359 
L 1193.520331 213.145114 
L 1193.393642 213.067769 
L 1193.393642 213.055061 
L 1193.288068 212.746836 
L 1193.266953 212.748762 
L 1193.266953 212.646974 
L 1193.161379 212.529311 
L 1193.119149 212.431289 
L 1193.013575 212.300767 
L 1192.886886 212.210327 
L 1192.781312 211.888305 
L 1192.696853 211.806617 
L 1192.696853 211.793852 
L 1192.591279 211.675725 
L 1192.527935 211.592041 
L 1192.527935 211.579265 
L 1192.485705 211.480857 
L 1192.422361 211.486581 
L 1192.401246 211.48849 
L 1192.401246 211.386224 
L 1192.295672 210.845501 
L 1192.126753 210.771014 
L 1192.126753 210.758201 
L 1192.021179 210.562603 
L 1191.97895 210.540745 
L 1191.97895 210.463798 
L 1191.873375 210.332134 
L 1191.746687 210.25363 
L 1191.746687 210.240792 
L 1191.641113 209.916266 
L 1191.472194 209.8285 
L 1191.36662 209.554917 
L 1191.32439 209.507193 
L 1191.32439 209.455703 
L 1191.218816 209.181732 
L 1191.176587 209.082376 
L 1191.071013 208.924112 
L 1191.028783 208.824653 
L 1190.923209 208.446688 
L 1190.83875 208.415377 
L 1190.83875 208.350771 
L 1190.733176 208.166165 
L 1190.648717 208.08306 
L 1190.648717 208.070124 
L 1190.564257 207.922273 
L 1190.543143 207.924127 
L 1190.522028 207.92598 
L 1190.522028 207.82242 
L 1190.416454 207.663314 
L 1190.31088 207.607779 
L 1190.31088 207.568902 
L 1190.22642 207.498524 
L 1190.205306 207.500371 
L 1190.099732 207.43181 
L 1190.099732 207.405874 
L 1189.994157 207.324304 
L 1189.930813 207.239008 
L 1189.930813 207.226031 
L 1189.867469 207.166661 
L 1189.825239 207.170346 
L 1189.804124 207.172189 
L 1189.804124 207.068319 
L 1189.719665 206.867834 
L 1189.69855 206.869671 
L 1189.614091 206.79904 
L 1189.614091 206.773041 
L 1189.508517 206.483073 
L 1189.339598 206.393601 
L 1189.255139 206.322801 
L 1189.234024 206.324631 
L 1189.086221 206.233234 
L 1189.043991 206.041413 
L 1188.980647 206.046889 
L 1188.917302 205.948053 
L 1188.811728 205.891957 
L 1188.727269 205.860112 
L 1188.727269 205.794871 
L 1188.621695 205.542867 
L 1188.55835 205.522197 
L 1188.55835 205.443813 
L 1188.452776 205.387557 
L 1188.410547 205.351977 
L 1188.410547 205.286616 
L 1188.304973 205.138754 
L 1188.220514 205.080587 
L 1188.220514 205.041333 
L 1188.136054 204.865314 
L 1188.114939 204.867121 
L 1188.07271 204.857642 
L 1188.07271 204.765966 
L 1187.967136 204.539124 
L 1187.924906 204.450954 
L 1187.924906 204.437841 
L 1187.819332 204.210708 
L 1187.755988 204.124219 
L 1187.755988 204.111091 
L 1187.650414 203.949347 
L 1187.608184 203.874107 
L 1187.608184 203.847827 
L 1187.50261 203.791071 
L 1187.46038 203.768363 
L 1187.46038 203.689481 
L 1187.375921 203.60458 
L 1187.354806 203.606367 
L 1187.291462 203.545955 
L 1187.291462 203.506484 
L 1187.185888 203.3838 
L 1187.143658 203.32154 
L 1187.143658 203.282036 
L 1187.038084 203.06699 
L 1186.93251 203.023165 
L 1186.93251 202.970434 
L 1186.826936 202.887018 
L 1186.742477 202.867745 
L 1186.742477 202.788594 
L 1186.636903 202.427823 
L 1186.44687 202.338045 
L 1186.341296 202.201478 
L 1186.193492 202.108038 
L 1186.109033 201.784225 
L 1186.087918 201.785985 
L 1185.87677 201.710864 
L 1185.87677 201.697616 
L 1185.792311 201.572136 
L 1185.771196 201.573892 
L 1185.750081 201.575649 
L 1185.750081 201.469597 
L 1185.644507 201.398804 
L 1185.433359 201.336745 
L 1185.433359 201.310207 
L 1185.370014 201.235837 
L 1185.327785 201.23934 
L 1185.222211 201.155164 
L 1185.222211 201.141885 
L 1185.116637 200.738712 
L 1184.989948 200.682681 
L 1184.989948 200.642779 
L 1184.884374 200.451892 
L 1184.7788 200.367395 
L 1184.7788 200.354079 
L 1184.673226 200.256216 
L 1184.546537 200.173365 
L 1184.546537 200.160038 
L 1184.440963 200.035409 
L 1184.272044 199.955918 
L 1184.272044 199.942579 
L 1184.16647 199.537444 
L 1184.103126 199.449107 
L 1184.103126 199.435746 
L 1183.997552 199.230498 
L 1183.934207 199.12867 
L 1183.828633 198.923167 
L 1183.659715 198.843166 
L 1183.659715 198.829775 
L 1183.554141 198.543585 
L 1183.427452 198.500214 
L 1183.427452 198.44658 
L 1183.342993 198.27903 
L 1183.321878 198.280735 
L 1183.047385 198.22237 
L 1183.047385 198.195521 
L 1182.941811 198.042892 
L 1182.857352 197.955653 
L 1182.857352 197.942216 
L 1182.751778 197.614586 
L 1182.646204 197.515418 
L 1182.561745 197.414508 
L 1182.54063 197.416199 
L 1182.435056 197.330397 
L 1182.435056 197.31693 
L 1182.350597 197.202447 
L 1182.329482 197.204135 
L 1182.202793 197.119924 
L 1182.202793 197.106445 
L 1182.097219 196.99353 
L 1182.01276 196.986783 
L 1182.01276 196.892361 
L 1181.907186 196.806321 
L 1181.801612 196.70674 
L 1181.696038 196.363905 
L 1181.632693 196.287818 
L 1181.632693 196.260777 
L 1181.527119 195.95799 
L 1181.484889 195.947791 
L 1181.484889 195.853029 
L 1181.379315 195.766564 
L 1181.294856 195.691943 
L 1181.294856 195.664845 
L 1181.231512 195.547862 
L 1181.189282 195.551185 
L 1181.062593 195.466243 
L 1181.062593 195.452682 
L 1180.978134 195.296538 
L 1180.957019 195.298196 
L 1180.87256 195.196251 
L 1180.788101 195.134993 
L 1180.766986 195.136648 
L 1180.703642 195.04655 
L 1180.703642 195.032967 
L 1180.619182 194.794984 
L 1180.598068 194.796633 
L 1180.408034 194.702695 
L 1180.30246 194.561288 
L 1180.006853 194.50266 
L 1180.006853 194.475431 
L 1179.901279 194.361088 
L 1179.859049 194.282635 
L 1179.859049 194.255384 
L 1179.753475 194.140926 
L 1179.669016 194.038403 
L 1179.563442 193.801014 
L 1179.457868 193.727277 
L 1179.457868 193.699971 
L 1179.352294 193.653508 
L 1179.267835 193.550753 
L 1179.16226 193.408571 
L 1179.077801 193.38774 
L 1179.077801 193.305701 
L 1178.972227 193.122313 
L 1178.782194 193.082173 
L 1178.782194 193.027417 
L 1178.67662 192.925977 
L 1178.528816 192.82772 
L 1178.423242 192.616495 
L 1178.359898 192.607627 
L 1178.359898 192.511623 
L 1178.275439 192.38087 
L 1178.254324 192.382482 
L 1178.085405 192.29928 
L 1178.085405 192.285551 
L 1178.000946 192.209595 
L 1177.979831 192.211204 
L 1177.853142 192.179646 
L 1177.853142 192.110952 
L 1177.747568 191.885305 
L 1177.599765 191.814004 
L 1177.599765 191.786491 
L 1177.515305 191.58647 
L 1177.494191 191.588068 
L 1177.346387 191.502869 
L 1177.346387 191.489097 
L 1177.261928 191.330164 
L 1177.240813 191.331759 
L 1177.114124 191.231054 
L 1177.00855 191.059737 
L 1176.924091 191.01091 
L 1176.924091 190.955715 
L 1176.818517 190.825618 
L 1176.586254 190.732576 
L 1176.48068 190.588502 
L 1176.375106 190.485819 
L 1176.269532 190.203214 
L 1176.100613 190.118918 
L 1176.100613 190.105073 
L 1175.995039 189.91903 
L 1175.86835 189.84531 
L 1175.86835 189.817589 
L 1175.783891 189.754552 
L 1175.762776 189.756121 
L 1175.741661 189.757689 
L 1175.741661 189.64675 
L 1175.657202 189.403256 
L 1175.636087 189.404819 
L 1175.509399 189.317006 
L 1175.509399 189.303119 
L 1175.446054 189.155006 
L 1175.403825 189.158123 
L 1175.171562 189.064079 
L 1175.065988 188.904994 
L 1174.897069 188.84787 
L 1174.897069 188.806125 
L 1174.791495 188.535438 
L 1174.728151 188.498294 
L 1174.728151 188.442567 
L 1174.643691 188.281507 
L 1174.622577 188.283052 
L 1174.559232 188.245857 
L 1174.559232 188.190079 
L 1174.474773 188.056756 
L 1174.453658 188.058297 
L 1174.305854 187.999304 
L 1174.305854 187.971389 
L 1174.221395 187.71222 
L 1174.20028 187.713755 
L 1174.052477 187.626683 
L 1173.946903 187.480569 
L 1173.841329 187.418295 
L 1173.841329 187.390319 
L 1173.777984 187.226996 
L 1173.735755 187.23005 
L 1173.545721 187.173793 
L 1173.545721 187.145788 
L 1173.440147 187.08339 
L 1173.292344 187.038025 
L 1173.292344 186.99599 
L 1173.18677 186.765291 
L 1173.10231 186.715266 
L 1173.10231 186.673183 
L 1172.996736 186.568517 
L 1172.870047 186.49339 
L 1172.870047 186.479351 
L 1172.764473 186.276246 
L 1172.701129 186.224574 
L 1172.701129 186.182414 
L 1172.61667 186.019748 
L 1172.595555 186.021255 
L 1172.553325 185.925814 
L 1172.447751 185.848922 
L 1172.321062 185.759421 
L 1172.215488 185.696536 
L 1171.835422 185.624961 
L 1171.750963 185.54641 
L 1171.729848 185.547909 
L 1171.603159 185.472322 
L 1171.603159 185.458222 
L 1171.497585 185.366991 
L 1171.392011 185.289826 
L 1171.392011 185.275715 
L 1171.286437 185.170279 
L 1171.180863 185.093031 
L 1171.180863 185.078909 
L 1171.096403 184.759901 
L 1171.075289 184.761387 
L 1170.927485 184.701097 
L 1170.927485 184.672814 
L 1170.864141 184.493363 
L 1170.821911 184.496327 
L 1170.652992 184.409101 
L 1170.568533 184.315904 
L 1170.547418 184.317383 
L 1170.399615 184.228577 
L 1170.315156 184.106943 
L 1170.294041 184.108419 
L 1170.230696 184.041962 
L 1170.230696 184.013605 
L 1170.125122 183.978432 
L 1169.913974 183.893862 
L 1169.913974 183.879673 
L 1169.8084 183.887035 
L 1169.660596 183.797981 
L 1169.555022 183.663327 
L 1169.512793 183.56682 
L 1169.428334 183.430565 
L 1169.407219 183.432029 
L 1169.174956 183.362825 
L 1169.174956 183.348603 
L 1169.069382 183.213655 
L 1168.879349 183.127172 
L 1168.773774 182.977828 
L 1168.731545 182.980743 
L 1168.731545 182.881019 
L 1168.625971 182.703005 
L 1168.583741 182.70591 
L 1168.583741 182.606092 
L 1168.478167 182.542025 
L 1168.330364 182.48083 
L 1168.330364 182.452287 
L 1168.224789 182.331048 
L 1168.055871 182.242643 
L 1167.971412 182.13412 
L 1167.950297 182.135563 
L 1167.760264 182.062787 
L 1167.760264 182.04849 
L 1167.65469 181.884077 
L 1167.57023 181.789674 
L 1167.464656 181.653713 
L 1167.316853 181.563509 
L 1167.211279 181.427398 
L 1167.126819 181.375792 
L 1167.126819 181.332786 
L 1167.04236 181.252472 
L 1167.021245 181.2539 
L 1166.873442 181.177834 
L 1166.873442 181.163487 
L 1166.767868 181.084522 
L 1166.620064 180.994014 
L 1166.55672 180.825941 
L 1166.51449 180.828784 
L 1166.408916 180.735305 
L 1166.366686 180.651901 
L 1166.303342 180.656156 
L 1166.113309 180.582641 
L 1166.113309 180.568258 
L 1166.007735 180.373905 
L 1165.669898 180.295739 
L 1165.585438 180.243778 
L 1165.564324 180.24519 
L 1165.479864 180.164392 
L 1165.479864 180.149983 
L 1165.395405 180.054733 
L 1165.37429 180.056141 
L 1165.268716 179.976674 
L 1165.268716 179.962254 
L 1165.163142 179.796179 
L 1164.909764 179.711992 
L 1164.80419 179.574596 
L 1164.698616 179.494917 
L 1164.698616 179.480467 
L 1164.593042 179.357381 
L 1164.487468 179.263147 
L 1164.403009 179.239802 
L 1164.381894 179.241198 
L 1164.297435 179.174444 
L 1164.297435 179.145505 
L 1164.191861 178.993256 
L 1164.149631 178.9526 
L 1164.149631 178.894676 
L 1164.044057 178.756755 
L 1163.74845 178.689201 
L 1163.74845 178.674704 
L 1163.685106 178.533846 
L 1163.642876 178.536612 
L 1163.537302 178.441969 
L 1163.431728 178.390825 
L 1163.283924 178.298863 
L 1163.199465 178.231765 
L 1163.17835 178.233143 
L 1162.946087 178.146597 
L 1162.840513 178.008118 
L 1162.523791 177.926921 
L 1162.418217 177.700927 
L 1162.164839 177.615414 
L 1162.164839 177.58628 
L 1162.059265 177.593118 
L 1161.827002 177.50615 
L 1161.721428 177.440089 
L 1161.55251 177.348921 
L 1161.446936 177.297383 
L 1161.383591 177.272289 
L 1161.383591 177.199318 
L 1161.299132 177.102572 
L 1161.278017 177.103931 
L 1161.130214 177.011213 
L 1161.045754 176.826684 
L 1161.02464 176.828039 
L 1160.855721 176.751155 
L 1160.855721 176.736532 
L 1160.771262 176.683444 
L 1160.750147 176.684797 
L 1160.475655 176.599956 
L 1160.41231 176.486906 
L 1160.370081 176.489605 
L 1160.201162 176.397884 
L 1160.116703 176.344677 
L 1160.095588 176.346024 
L 1160.053358 176.319413 
L 1160.053358 176.24614 
L 1159.947784 176.076932 
L 1159.757751 176.01567 
L 1159.757751 175.986328 
L 1159.652177 175.831591 
L 1159.419914 175.743518 
L 1159.31434 175.500409 
L 1159.166536 175.406815 
L 1159.060962 175.266372 
L 1158.849814 175.191353 
L 1158.849814 175.176633 
L 1158.849814 175.132471 
L 1158.74424 175.139101 
L 1158.659781 175.056051 
L 1158.659781 175.041322 
L 1158.596437 174.956909 
L 1158.554207 174.959555 
L 1158.385289 174.881715 
L 1158.385289 174.866976 
L 1158.279714 174.740885 
L 1157.878533 174.66268 
L 1157.772959 174.551188 
L 1157.625155 174.457034 
L 1157.604041 174.414037 
L 1157.519581 174.419294 
L 1157.329548 174.342462 
L 1157.329548 174.327683 
L 1157.287318 174.300748 
L 1157.223974 174.304685 
L 1157.097285 174.253421 
L 1157.097285 174.209059 
L 1156.991711 174.141658 
L 1156.886137 174.089026 
L 1156.886137 174.044634 
L 1156.780563 173.903145 
L 1156.569415 173.827338 
L 1156.569415 173.812525 
L 1156.484956 173.699207 
L 1156.463841 173.700509 
L 1156.273808 173.60846 
L 1156.189348 173.465355 
L 1156.168234 173.466653 
L 1156.041545 173.370575 
L 1156.041545 173.326052 
L 1155.935971 173.33253 
L 1155.661478 173.260285 
L 1155.661478 173.245434 
L 1155.555904 173.043904 
L 1155.49256 172.973455 
L 1155.49256 172.943723 
L 1155.386986 172.816327 
L 1155.196952 172.723758 
L 1155.133608 172.578764 
L 1155.091378 172.581329 
L 1154.859115 172.491181 
L 1154.753541 172.21442 
L 1154.584623 172.135147 
L 1154.584623 172.120231 
L 1154.479049 172.007242 
L 1154.162327 171.921828 
L 1154.077867 171.852242 
L 1154.056753 171.853512 
L 1153.887834 171.759089 
L 1153.803375 171.704383 
L 1153.78226 171.70565 
L 1153.697801 171.635973 
L 1153.697801 171.60607 
L 1153.613342 171.506444 
L 1153.592227 171.507708 
L 1153.064357 171.434549 
L 1152.958783 171.321076 
L 1152.895438 171.249966 
L 1152.895438 171.220004 
L 1152.810979 171.045204 
L 1152.789864 171.04646 
L 1152.494257 170.959071 
L 1152.452027 170.841563 
L 1152.388683 170.845321 
L 1152.15642 170.754027 
L 1152.071961 170.69897 
L 1152.050846 170.70022 
L 1151.818583 170.623843 
L 1151.818583 170.608818 
L 1151.713009 170.494832 
L 1151.607435 170.410858 
L 1151.607435 170.395821 
L 1151.501861 170.311802 
L 1151.459631 170.269156 
L 1151.459631 170.208971 
L 1151.375172 170.033305 
L 1151.354057 170.034543 
L 1151.100679 169.94397 
L 1150.995105 169.784387 
L 1150.678383 169.727506 
L 1150.678383 169.697343 
L 1150.572809 169.628081 
L 1150.319431 169.537214 
L 1150.213857 169.407472 
L 1149.897135 169.320131 
L 1149.791561 169.265809 
L 1149.707102 169.195122 
L 1149.707102 169.164882 
L 1149.601528 169.140755 
L 1149.34815 169.079794 
L 1149.34815 169.049532 
L 1149.34815 169.004135 
L 1149.242576 169.01024 
L 1149.031428 168.931616 
L 1149.031428 168.916474 
L 1148.925854 168.8014 
L 1148.630247 168.712362 
L 1148.545788 168.641425 
L 1148.524673 168.64264 
L 1148.123491 168.559541 
L 1148.017917 168.474554 
L 1147.532277 168.396142 
L 1147.447817 168.279442 
L 1147.426703 168.280652 
L 1147.215555 168.231946 
L 1147.215555 168.186338 
L 1147.15221 168.098723 
L 1147.109981 168.101135 
L 1147.025521 167.999473 
L 1146.919947 167.929406 
L 1146.687684 167.866521 
L 1146.687684 167.836068 
L 1146.62434 167.733059 
L 1146.58211 167.735458 
L 1146.476536 167.665275 
L 1146.476536 167.634797 
L 1146.476536 167.604317 
L 1146.370962 167.610304 
L 1146.265388 167.50957 
L 1146.180929 167.45335 
L 1146.159814 167.454544 
L 1145.885322 167.36327 
L 1145.843092 167.228276 
L 1145.779748 167.231849 
L 1145.441911 167.14398 
L 1145.357451 167.072336 
L 1145.336337 167.073525 
L 1145.104074 166.994872 
L 1145.104074 166.979582 
L 1145.061844 166.93608 
L 1144.9985 166.939638 
L 1144.850696 166.856154 
L 1144.850696 166.840853 
L 1144.745122 166.81617 
L 1144.639548 166.71494 
L 1144.533974 166.659602 
L 1144.153907 166.57362 
L 1144.048333 166.518214 
L 1143.837185 166.438009 
L 1143.837185 166.422674 
L 1143.752726 166.25864 
L 1143.731611 166.259814 
L 1143.583807 166.191295 
L 1143.583807 166.160594 
L 1143.520463 166.118053 
L 1143.478233 166.120396 
L 1143.393774 166.017577 
L 1143.309315 165.945441 
L 1143.2882 165.946609 
L 1143.077052 165.866076 
L 1143.077052 165.850704 
L 1142.992593 165.701598 
L 1142.971478 165.702762 
L 1142.80256 165.604376 
L 1142.76033 165.560532 
L 1142.696985 165.564017 
L 1142.464723 165.469018 
L 1142.380263 165.365836 
L 1142.359149 165.366995 
L 1142.084656 165.274171 
L 1141.979082 165.202867 
L 1141.641245 165.113375 
L 1141.556786 164.855583 
L 1141.535671 164.856732 
L 1141.261178 164.778988 
L 1141.261178 164.763538 
L 1141.176719 164.59812 
L 1141.155604 164.599264 
L 1141.071145 164.511067 
L 1141.071145 164.495602 
L 1140.965571 164.377559 
L 1140.691079 164.299518 
L 1140.691079 164.284037 
L 1140.585505 164.196825 
L 1140.332127 164.117521 
L 1140.332127 164.102026 
L 1140.226553 164.014714 
L 1139.867601 163.925441 
L 1139.783142 163.852405 
L 1139.762027 163.853536 
L 1139.614223 163.768339 
L 1139.614223 163.752818 
L 1139.508649 163.696365 
L 1139.38196 163.609954 
L 1139.38196 163.594422 
L 1139.339731 163.550071 
L 1139.276386 163.553448 
L 1138.959664 163.492626 
L 1138.959664 163.461535 
L 1138.89632 163.278297 
L 1138.85409 163.280538 
L 1138.642942 163.182821 
L 1138.579598 163.108348 
L 1138.537368 163.110584 
L 1138.431794 163.06946 
L 1138.431794 163.007167 
L 1138.431794 162.991592 
L 1138.32622 162.99717 
L 1138.157302 162.897025 
L 1138.051727 162.840247 
L 1137.861694 162.741109 
L 1137.75612 162.606259 
L 1137.650546 162.502549 
L 1137.544972 162.430015 
L 1137.333824 162.331727 
L 1137.22825 162.227856 
L 1136.953757 162.132731 
L 1136.848183 162.060024 
L 1136.721495 161.972734 
L 1136.721495 161.957084 
L 1136.637035 161.836241 
L 1136.61592 161.837335 
L 1136.256969 161.777628 
L 1136.256969 161.746295 
L 1136.214739 161.670134 
L 1136.151395 161.673409 
L 1135.56018 161.609896 
L 1135.56018 161.594211 
L 1135.496836 161.519041 
L 1135.454606 161.52122 
L 1135.095654 161.429857 
L 1134.99008 161.309654 
L 1134.821162 161.224065 
L 1134.821162 161.20835 
L 1134.757817 161.180168 
L 1134.715588 161.182334 
L 1134.525554 161.082021 
L 1134.41998 160.930118 
L 1134.272177 160.843236 
L 1134.272177 160.827495 
L 1134.272177 160.811753 
L 1134.166603 160.817136 
L 1133.807651 160.725183 
L 1133.702077 160.604491 
L 1133.512044 160.503781 
L 1133.427584 160.429205 
L 1133.40647 160.430275 
L 1133.237551 160.32838 
L 1133.216436 160.266314 
L 1133.131977 160.270581 
L 1132.857484 160.189699 
L 1132.857484 160.173904 
L 1132.75191 160.037033 
L 1132.519648 159.93806 
L 1132.456303 159.830539 
L 1132.414074 159.832656 
L 1132.139581 159.767304 
L 1132.139581 159.735652 
L 1132.034007 159.503432 
L 1131.717285 159.408299 
L 1131.632826 159.364949 
L 1131.611711 159.365999 
L 1131.400563 159.281355 
L 1131.400563 159.265495 
L 1131.316103 159.222099 
L 1131.294989 159.223147 
L 1130.999381 159.126717 
L 1130.914922 159.099149 
L 1130.893807 159.100194 
L 1130.788233 158.994256 
L 1130.682659 158.92004 
L 1130.471511 158.850995 
L 1130.471511 158.835099 
L 1130.387052 158.775667 
L 1130.365937 158.776706 
L 1130.175904 158.69063 
L 1130.07033 158.616266 
L 1129.922526 158.543938 
L 1129.922526 158.52802 
L 1129.816952 158.453581 
L 1129.436885 158.376595 
L 1129.331311 158.302067 
L 1129.225737 158.227507 
L 1129.225737 158.211562 
L 1129.120163 158.105061 
L 1128.824556 158.02369 
L 1128.782326 157.945925 
L 1128.718982 157.948997 
L 1128.571178 157.876317 
L 1128.571178 157.860345 
L 1128.486719 157.784557 
L 1128.465604 157.785578 
L 1128.191112 157.70295 
L 1128.191112 157.62301 
L 1128.085538 157.628101 
L 1127.811045 157.545354 
L 1127.768816 157.467376 
L 1127.705471 157.470422 
L 1127.621012 157.442469 
L 1127.621012 157.378432 
L 1127.536553 157.302417 
L 1127.515438 157.303429 
L 1127.219831 157.221466 
L 1127.114256 157.178438 
L 1126.839764 157.095361 
L 1126.77642 157.002144 
L 1126.73419 157.004157 
L 1126.523042 156.917936 
L 1126.417468 156.826634 
L 1126.248549 156.754357 
L 1126.248549 156.738294 
L 1126.142975 156.662968 
L 1125.657335 156.605596 
L 1125.657335 156.589515 
L 1125.59399 156.479922 
L 1125.551761 156.481917 
L 1125.403957 156.40844 
L 1125.403957 156.392346 
L 1125.298383 156.349033 
L 1125.06612 156.263354 
L 1124.960546 156.171662 
L 1124.749398 156.084873 
L 1124.707168 155.973992 
L 1124.643824 155.976955 
L 1124.559365 155.91639 
L 1124.559365 155.884127 
L 1124.474905 155.726701 
L 1124.453791 155.727683 
L 1124.179298 155.643577 
L 1124.115954 155.581913 
L 1124.073724 155.583873 
L 1123.96815 155.524145 
L 1123.96815 155.491825 
L 1123.862576 155.367399 
L 1123.609198 155.298244 
L 1123.609198 155.282068 
L 1123.503624 155.108941 
L 1123.39805 155.04904 
L 1123.39805 155.016658 
L 1123.35582 154.937625 
L 1123.292476 154.940527 
L 1123.039098 154.85492 
L 1123.039098 154.773884 
L 1122.933524 154.778705 
L 1122.637917 154.694906 
L 1122.616802 154.663427 
L 1122.532343 154.667277 
L 1122.25785 154.582415 
L 1122.173391 154.47261 
L 1122.152276 154.473568 
L 1121.687751 154.413435 
L 1121.687751 154.397184 
L 1121.582177 154.336959 
L 1121.518832 154.258539 
L 1121.518832 154.242279 
L 1121.413258 154.133199 
L 1121.180995 154.046039 
L 1121.075421 153.936836 
L 1120.843158 153.865835 
L 1120.843158 153.849545 
L 1120.843158 153.816962 
L 1120.737584 153.821695 
L 1120.463092 153.736203 
L 1120.357518 153.659399 
L 1119.808533 153.586033 
L 1119.787418 153.554331 
L 1119.702959 153.5581 
L 1119.449581 153.471424 
L 1119.386236 153.376228 
L 1119.344007 153.378106 
L 1118.985055 153.295987 
L 1118.921711 153.249745 
L 1118.879481 153.251618 
L 1118.583874 153.166571 
L 1118.541644 153.102982 
L 1118.4783 153.105784 
L 1118.267152 153.016887 
L 1118.182692 152.955103 
L 1118.161577 152.956034 
L 1118.098233 152.860528 
L 1118.056003 152.731274 
L 1117.992659 152.734053 
L 1117.844855 152.642154 
L 1117.739281 152.515541 
L 1117.675937 152.501898 
L 1117.675937 152.419842 
L 1117.654822 152.387934 
L 1117.570363 152.391612 
L 1117.3381 152.319621 
L 1117.3381 152.303197 
L 1117.232526 152.192785 
L 1116.915804 152.107893 
L 1116.831345 152.078663 
L 1116.81023 152.079577 
L 1116.514622 151.993665 
L 1116.409048 151.89948 
L 1115.944523 151.820698 
L 1115.838948 151.676948 
L 1115.606686 151.587998 
L 1115.606686 151.571509 
L 1115.501112 151.57603 
L 1115.332193 151.484287 
L 1115.226619 151.439295 
L 1115.057701 151.347463 
L 1114.994356 151.317139 
L 1114.952127 151.318938 
L 1114.487601 151.239595 
L 1114.382027 151.062239 
L 1113.938616 150.981761 
L 1113.854156 150.902579 
L 1113.833042 150.903471 
L 1113.410745 150.821937 
L 1113.305171 150.710404 
L 1113.199597 150.631967 
L 1113.199597 150.61539 
L 1113.094023 150.553495 
L 1112.988449 150.458398 
L 1112.882875 150.396443 
L 1112.650612 150.306543 
L 1112.566153 150.227034 
L 1112.545038 150.227912 
L 1112.397235 150.134385 
L 1112.33389 150.053924 
L 1112.291661 150.055674 
L 1111.869364 149.973401 
L 1111.84825 149.924373 
L 1111.76379 149.927864 
L 1111.489298 149.839352 
L 1111.383724 149.810412 
L 1110.813624 149.750629 
L 1110.813624 149.733966 
L 1110.729165 149.654112 
L 1110.70805 149.654979 
L 1110.412443 149.633785 
L 1110.412443 149.567077 
L 1110.306869 149.437942 
L 1109.947917 149.35246 
L 1109.842343 149.223155 
L 1109.588965 149.1332 
L 1109.504506 149.086482 
L 1109.483391 149.087339 
L 1109.208898 148.99813 
L 1109.103324 148.918751 
L 1108.807717 148.847004 
L 1108.807717 148.830262 
L 1108.744373 148.799328 
L 1108.702143 148.801031 
L 1108.406536 148.712433 
L 1108.300962 148.632885 
L 1107.667517 148.574474 
L 1107.667517 148.557698 
L 1107.561943 148.461247 
L 1107.435255 148.38238 
L 1107.435255 148.365591 
L 1107.350795 148.30179 
L 1107.32968 148.302632 
L 1106.970729 148.216127 
L 1106.907384 148.168224 
L 1106.865155 148.169902 
L 1106.717351 148.074889 
L 1106.611777 147.994971 
L 1106.252825 147.92503 
L 1106.252825 147.908196 
L 1106.252825 147.891362 
L 1106.147251 147.895532 
L 1105.978333 147.817999 
L 1105.978333 147.801155 
L 1105.936103 147.735434 
L 1105.872759 147.737927 
L 1105.661611 147.645108 
L 1105.661611 147.62825 
L 1105.556037 147.632394 
L 1105.302659 147.541143 
L 1105.239314 147.493011 
L 1105.197085 147.494663 
L 1104.859248 147.406599 
L 1104.753674 147.360062 
L 1104.521411 147.284654 
L 1104.521411 147.267758 
L 1104.415837 147.221169 
L 1104.225804 147.194749 
L 1104.225804 147.127119 
L 1104.141344 147.045834 
L 1104.12023 147.046651 
L 1103.782393 146.958197 
L 1103.782393 146.941271 
L 1103.676819 146.945349 
L 1103.381211 146.855158 
L 1103.275637 146.723685 
L 1102.98003 146.633323 
L 1102.9378 146.584068 
L 1102.874456 146.586493 
L 1102.557734 146.496816 
L 1102.473274 146.466098 
L 1102.45216 146.466904 
L 1102.262126 146.372284 
L 1102.156552 146.308364 
L 1101.818715 146.236243 
L 1101.818715 146.219245 
L 1101.734256 146.188451 
L 1101.713141 146.189252 
L 1101.35419 146.100811 
L 1101.248616 146.036745 
L 1100.720745 145.954529 
L 1100.615171 145.82222 
L 1100.21399 145.735012 
L 1100.21399 145.71796 
L 1100.108416 145.721919 
L 1099.812809 145.630638 
L 1099.707234 145.566319 
L 1099.538316 145.538485 
L 1099.538316 145.470183 
L 1099.538316 145.453105 
L 1099.432742 145.457038 
L 1099.221594 145.379479 
L 1099.221594 145.362391 
L 1099.137135 145.280071 
L 1099.11602 145.280854 
L 1098.651494 145.195461 
L 1098.54592 145.165149 
L 1098.419231 145.135608 
L 1098.419231 145.067143 
L 1098.313657 144.985429 
L 1098.081394 144.908331 
L 1098.081394 144.891198 
L 1097.97582 144.809392 
L 1097.553524 144.739131 
L 1097.553524 144.72198 
L 1097.553524 144.704828 
L 1097.44795 144.708687 
L 1097.046769 144.620378 
L 1096.983424 144.5025 
L 1096.941195 144.504036 
L 1096.286635 144.424727 
L 1096.202176 144.393409 
L 1096.181061 144.394175 
L 1095.927684 144.300165 
L 1095.82211 144.200742 
L 1095.610962 144.139502 
L 1095.610962 144.105067 
L 1095.505387 144.03998 
L 1095.273125 143.944946 
L 1095.188665 143.913503 
L 1095.167551 143.914259 
L 1094.766369 143.825156 
L 1094.68191 143.776421 
L 1094.660795 143.777174 
L 1094.365188 143.684163 
L 1094.365188 143.6669 
L 1094.259614 143.670657 
L 1093.942892 143.578289 
L 1093.858432 143.529451 
L 1093.837318 143.530199 
L 1093.731744 143.447519 
L 1093.731744 143.430232 
L 1093.626169 143.347508 
L 1093.098299 143.262304 
L 1093.077184 143.193806 
L 1092.992725 143.196774 
L 1092.676003 143.1213 
L 1092.676003 143.103977 
L 1092.612659 143.071545 
L 1092.570429 143.073024 
L 1092.338166 142.977154 
L 1092.338166 142.942479 
L 1092.232592 142.946163 
L 1091.768066 142.858276 
L 1091.662492 142.809882 
L 1091.451344 142.747772 
L 1091.451344 142.713039 
L 1091.366885 142.594368 
L 1091.34577 142.595098 
L 1091.071278 142.500294 
L 1091.007933 142.432927 
L 1090.965704 142.43438 
L 1090.458948 142.347414 
L 1090.395604 142.27996 
L 1090.353374 142.281407 
L 1089.318748 142.212313 
L 1089.255404 142.127296 
L 1089.213174 142.128738 
L 1088.790878 142.038464 
L 1088.748649 142.004994 
L 1088.685304 142.00715 
L 1088.178549 141.919599 
L 1088.178549 141.902127 
L 1088.072975 141.905712 
L 1087.988516 141.85615 
L 1087.988516 141.803713 
L 1087.946286 141.770179 
L 1087.882941 141.772321 
L 1087.502875 141.715209 
L 1087.502875 141.680218 
L 1087.418416 141.560564 
L 1087.397301 141.561274 
L 1086.848316 141.474637 
L 1086.848316 141.457117 
L 1086.742742 141.460657 
L 1086.362675 141.368215 
L 1086.278216 141.318429 
L 1086.257101 141.319134 
L 1085.81369 141.228652 
L 1085.81369 141.2111 
L 1085.708116 141.214615 
L 1085.264705 141.123995 
L 1085.180246 141.09166 
L 1085.159131 141.092361 
L 1084.673491 141.002987 
L 1084.610146 140.952319 
L 1084.567916 140.953715 
L 1084.314539 140.856507 
L 1084.272309 140.805092 
L 1084.208965 140.807177 
L 1083.765554 140.716086 
L 1083.65998 140.613814 
L 1083.322143 140.536706 
L 1083.322143 140.519069 
L 1083.216569 140.469594 
L 1082.583124 140.384317 
L 1082.47755 140.317101 
L 1082.076369 140.224081 
L 1082.076369 140.206403 
L 1081.970795 140.209819 
L 1081.696302 140.112578 
L 1081.611843 140.062224 
L 1081.590728 140.062904 
L 1081.337351 139.964855 
L 1081.252891 139.701876 
L 1081.231777 139.702548 
L 1080.85171 139.608276 
L 1080.746136 139.540685 
L 1080.429414 139.444245 
L 1080.408299 139.409412 
L 1080.32384 139.412076 
L 1079.922658 139.318164 
L 1079.922658 139.300398 
L 1079.817084 139.303718 
L 1079.394788 139.210333 
L 1079.352559 139.176091 
L 1079.289214 139.178076 
L 1079.014722 139.079921 
L 1078.993607 139.044986 
L 1078.909148 139.047621 
L 1078.782459 138.962555 
L 1078.782459 138.944748 
L 1078.761344 138.909788 
L 1078.676885 138.912412 
L 1078.022326 138.843632 
L 1078.022326 138.825804 
L 1077.916752 138.739912 
L 1077.726718 138.656581 
L 1077.726718 138.638737 
L 1077.705604 138.603697 
L 1077.621144 138.606296 
L 1077.114389 138.514735 
L 1077.008815 138.41077 
L 1076.797667 138.309966 
L 1076.713208 138.241009 
L 1076.692093 138.241651 
L 1076.016419 138.172706 
L 1076.016419 138.154803 
L 1075.995304 138.119634 
L 1075.910845 138.122193 
L 1075.36186 138.031312 
L 1075.36186 138.013389 
L 1075.256286 138.016577 
L 1074.707301 137.925531 
L 1074.665071 137.87297 
L 1074.601727 137.874875 
L 1073.609331 137.796937 
L 1073.609331 137.778964 
L 1073.503757 137.782132 
L 1072.828083 137.694479 
L 1072.764738 137.642387 
L 1072.722509 137.643649 
L 1072.152409 137.552623 
L 1072.089064 137.518477 
L 1072.046835 137.519734 
L 1071.856801 137.435269 
L 1071.856801 137.417242 
L 1071.793457 137.346998 
L 1071.751227 137.348247 
L 1071.181128 137.256843 
L 1071.075554 137.205799 
L 1070.611028 137.111088 
L 1070.611028 137.093019 
L 1070.505454 137.096117 
L 1069.956469 137.003726 
L 1069.956469 136.985637 
L 1069.850895 136.988725 
L 1069.132991 136.901094 
L 1069.027417 136.813596 
L 1068.605121 136.717112 
L 1068.605121 136.69898 
L 1068.499547 136.70204 
L 1068.140595 136.621726 
L 1068.140595 136.603579 
L 1068.140595 136.567283 
L 1068.035021 136.570329 
L 1067.000395 136.491167 
L 1067.000395 136.472989 
L 1066.894821 136.476028 
L 1066.472525 136.415426 
L 1066.472525 136.379039 
L 1066.472525 136.360844 
L 1066.366951 136.363871 
L 1065.881311 136.268546 
L 1065.817966 136.233927 
L 1065.775737 136.235133 
L 1065.100063 136.145043 
L 1065.036718 136.11037 
L 1064.994489 136.111572 
L 1064.487733 136.016476 
L 1064.382159 135.982952 
L 1064.065437 135.882312 
L 1063.980978 135.811596 
L 1063.959863 135.81219 
L 1063.136385 135.725606 
L 1063.094156 135.690188 
L 1063.030811 135.691964 
L 1061.869497 135.614589 
L 1061.763923 135.562535 
L 1060.729297 135.481301 
L 1060.665953 135.446333 
L 1060.623723 135.447509 
L 1059.610212 135.365407 
L 1059.610212 135.328615 
L 1059.504638 135.331544 
L 1058.15329 135.258523 
L 1058.15329 135.24009 
L 1058.047716 135.243014 
L 1057.66765 135.142866 
L 1057.66765 135.105965 
L 1057.583191 135.108292 
L 1057.203124 135.007989 
L 1057.09755 134.937007 
L 1056.590795 134.839976 
L 1056.590795 134.821487 
L 1056.485221 134.824367 
L 1056.04181 134.725444 
L 1055.936236 134.691295 
L 1055.239447 134.617584 
L 1055.176102 134.545167 
L 1055.133873 134.546308 
L 1054.669347 134.466118 
L 1054.648232 134.429584 
L 1054.563773 134.431855 
L 1054.078132 134.352087 
L 1054.057018 134.315512 
L 1053.972558 134.317773 
L 1053.486918 134.237856 
L 1053.486918 134.219268 
L 1053.381344 134.222085 
L 1052.980162 134.139786 
L 1052.937933 134.103697 
L 1052.874588 134.10538 
L 1052.198914 134.030221 
L 1052.198914 134.011593 
L 1052.09334 134.01439 
L 1051.206518 133.944648 
L 1051.206518 133.925993 
L 1051.100944 133.928783 
L 1050.383041 133.854393 
L 1050.383041 133.817036 
L 1050.277467 133.819815 
L 1049.918515 133.754503 
L 1049.918515 133.735809 
L 1049.834056 133.663234 
L 1049.812941 133.663786 
L 1048.926119 133.593404 
L 1048.926119 133.57468 
L 1048.820545 133.577434 
L 1047.764804 133.511257 
L 1047.764804 133.473745 
L 1047.65923 133.476492 
L 1046.60349 133.410071 
L 1046.497916 133.356443 
L 1045.611094 133.285381 
L 1045.589979 133.229474 
L 1045.50552 133.231653 
L 1044.766502 133.175382 
L 1044.766502 133.156541 
L 1044.766502 133.137698 
L 1044.660928 133.140414 
L 1044.36532 133.05375 
L 1044.323091 132.998256 
L 1044.259746 132.999876 
L 1043.330695 132.92924 
L 1043.26735 132.874188 
L 1043.225121 132.875263 
L 1042.422758 132.801151 
L 1042.317184 132.765998 
L 1041.535936 132.69114 
L 1041.493706 132.654323 
L 1041.430362 132.655923 
L 1040.606884 132.581919 
L 1040.50131 132.546637 
L 1039.910096 132.466587 
L 1039.804522 132.412254 
L 1039.213307 132.332007 
L 1039.149962 132.276539 
L 1039.107733 132.277591 
L 1038.220911 132.204485 
L 1038.220911 132.185441 
L 1038.115337 132.188061 
L 1037.608581 132.105344 
L 1037.566352 132.049194 
L 1037.503007 132.050757 
L 1036.10943 131.989693 
L 1036.10943 131.970588 
L 1036.003856 131.973188 
L 1034.863656 131.905632 
L 1034.779197 131.831142 
L 1034.758082 131.831659 
L 1033.934605 131.756029 
L 1033.850145 131.70058 
L 1033.829031 131.701095 
L 1033.111127 131.622651 
L 1033.111127 131.603456 
L 1033.005553 131.60602 
L 1032.456568 131.5233 
L 1032.456568 131.504085 
L 1032.350994 131.506638 
L 1031.527516 131.449622 
L 1031.527516 131.43038 
L 1031.527516 131.411138 
L 1031.421942 131.413683 
L 1030.408432 131.341792 
L 1030.323972 131.305271 
L 1030.302857 131.305778 
L 1029.669413 131.224526 
L 1029.648298 131.167134 
L 1029.563839 131.16915 
L 1029.057084 131.084671 
L 1028.972625 131.048036 
L 1028.95151 131.048538 
L 1028.592558 130.960393 
L 1028.592558 130.941056 
L 1028.486984 130.943551 
L 1026.882258 130.884657 
L 1026.882258 130.865274 
L 1026.776684 130.867765 
L 1025.256418 130.806589 
L 1025.150844 130.731355 
L 1024.095104 130.65888 
L 1024.095104 130.639417 
L 1023.98953 130.641888 
L 1023.123822 130.564734 
L 1023.123822 130.545242 
L 1023.018248 130.547704 
L 1022.194771 130.46935 
L 1022.110312 130.432271 
L 1022.089197 130.432761 
L 1020.716734 130.366886 
L 1020.695619 130.328251 
L 1020.61116 130.330205 
L 1019.238698 130.264009 
L 1019.238698 130.244406 
L 1019.133124 130.246842 
L 1017.718431 130.20098 
L 1017.718431 130.181335 
L 1017.718431 130.16169 
L 1017.612857 130.16412 
L 1016.599347 130.089107 
L 1016.536002 130.051201 
L 1016.493772 130.052169 
L 1016.008132 129.964823 
L 1015.965902 129.926385 
L 1015.902558 129.927828 
L 1013.896651 129.874877 
L 1013.896651 129.85512 
L 1013.791077 129.857523 
L 1012.334155 129.791754 
L 1012.31304 129.732825 
L 1012.228581 129.734739 
L 1010.518282 129.67432 
L 1010.518282 129.634612 
L 1010.412707 129.636997 
L 1009.378082 129.560972 
L 1009.378082 129.541083 
L 1009.272508 129.543459 
L 1008.068964 129.470972 
L 1008.068964 129.451045 
L 1007.96339 129.453414 
L 1006.886534 129.377812 
L 1006.886534 129.35785 
L 1006.78096 129.36021 
L 1005.345153 129.292351 
L 1005.345153 129.272344 
L 1005.239579 129.274698 
L 1003.951576 129.223287 
L 1003.951576 129.20324 
L 1003.909346 129.164082 
L 1003.846002 129.165488 
L 1001.86121 129.109146 
L 1001.86121 129.089039 
L 1001.755636 129.091379 
L 1000.847699 129.010854 
L 1000.805469 128.971507 
L 1000.742125 128.972904 
L 998.123889 128.929778 
L 998.123889 128.909564 
L 998.018315 128.911892 
L 996.814771 128.837223 
L 996.772541 128.797641 
L 996.709196 128.799031 
L 996.012408 128.712947 
L 996.012408 128.672383 
L 995.906834 128.674686 
L 995.083356 128.611435 
L 995.083356 128.591123 
L 994.998897 128.53201 
L 994.977782 128.532468 
L 994.069845 128.450442 
L 994.006501 128.41111 
L 993.964271 128.41202 
L 993.140794 128.327902 
L 993.098564 128.288047 
L 993.03522 128.289403 
L 991.85279 128.212685 
L 991.85279 128.151422 
L 991.747216 128.153668 
L 989.509047 128.099013 
L 989.424587 128.018839 
L 989.403473 128.019286 
L 988.094354 127.944398 
L 987.98878 127.905549 
L 986.97527 127.844662 
L 986.97527 127.824091 
L 986.97527 127.803518 
L 986.869696 127.805733 
L 984.990478 127.742115 
L 984.990478 127.721484 
L 984.884903 127.723693 
L 982.393356 127.693204 
L 982.393356 127.672499 
L 982.393356 127.651792 
L 982.287782 127.654 
L 980.34522 127.611677 
L 980.34522 127.590911 
L 980.34522 127.570143 
L 980.239646 127.572346 
L 978.444887 127.505778 
L 978.444887 127.484953 
L 978.339313 127.48715 
L 976.945735 127.411862 
L 976.945735 127.390989 
L 976.840161 127.393178 
L 974.81314 127.33065 
L 974.81314 127.309714 
L 974.707566 127.311898 
L 973.313988 127.235877 
L 973.208414 127.175091 
L 970.780211 127.119862 
L 970.780211 127.0988 
L 970.674637 127.100966 
L 967.422956 127.06221 
L 967.422956 127.041049 
L 967.317382 127.043217 
L 965.94492 126.965436 
L 965.860461 126.903526 
L 965.839346 126.903957 
L 963.263339 126.850249 
L 963.263339 126.828955 
L 963.157765 126.831107 
L 961.046284 126.767471 
L 961.046284 126.746108 
L 960.94071 126.748254 
L 959.969429 126.661047 
L 959.969429 126.639647 
L 959.863855 126.641782 
L 956.5066 126.602481 
L 956.5066 126.559468 
L 956.401026 126.561602 
L 954.183971 126.49867 
L 954.183971 126.477089 
L 954.078397 126.479218 
L 952.431442 126.404339 
L 952.431442 126.3827 
L 952.346983 126.384397 
L 951.565735 126.291773 
L 951.481276 126.250113 
L 951.460161 126.250534 
L 949.454254 126.203693 
L 949.454254 126.181953 
L 949.369795 126.140146 
L 949.34868 126.140565 
L 947.807299 126.062256 
L 947.807299 126.040457 
L 947.701725 126.042544 
L 945.928081 125.9684 
L 945.928081 125.946539 
L 945.822507 125.948618 
L 944.217781 125.87071 
L 944.133322 125.828524 
L 944.112207 125.828937 
L 943.542108 125.730386 
L 943.542108 125.708438 
L 943.436534 125.710489 
L 941.135019 125.645244 
L 941.135019 125.623217 
L 941.029445 125.625263 
L 939.086883 125.552559 
L 939.086883 125.530463 
L 938.981309 125.532501 
L 936.61645 125.467455 
L 936.61645 125.445276 
L 936.510876 125.44731 
L 933.597033 125.414583 
L 933.491459 125.372059 
L 932.18234 125.308 
L 932.18234 125.285671 
L 932.076766 125.287695 
L 930.704304 125.224545 
L 930.640959 125.18099 
L 930.59873 125.181795 
L 929.141808 125.119892 
L 929.120693 125.075418 
L 929.036234 125.077019 
L 928.043838 125.00596 
L 928.043838 124.983481 
L 927.938264 124.985472 
L 924.581009 124.958744 
L 924.581009 124.93615 
L 924.475435 124.938144 
L 923.440809 124.889822 
L 923.440809 124.867187 
L 923.440809 124.844551 
L 923.335235 124.846535 
L 921.329329 124.793518 
L 921.329329 124.770808 
L 921.223755 124.772787 
L 919.830177 124.707924 
L 919.830177 124.685159 
L 919.724603 124.68713 
L 917.465319 124.638075 
L 917.465319 124.615227 
L 917.359745 124.617194 
L 915.902823 124.552799 
L 915.902823 124.529895 
L 915.797249 124.531854 
L 914.551475 124.463208 
L 914.551475 124.440253 
L 914.445901 124.442202 
L 912.714487 124.382185 
L 912.714487 124.359163 
L 912.608912 124.361106 
L 909.800643 124.320515 
L 909.800643 124.29739 
L 909.695069 124.299332 
L 906.295585 124.269198 
L 906.295585 124.24595 
L 906.190011 124.247894 
L 903.719578 124.200206 
L 903.635119 124.155072 
L 903.614004 124.15546 
L 901.460293 124.101426 
L 901.31249 124.080706 
L 898.081924 124.045961 
L 897.97635 124.000794 
L 895.717065 123.947707 
L 895.717065 123.924069 
L 895.611491 123.925995 
L 891.494104 123.906411 
L 891.472989 123.859213 
L 891.38853 123.860755 
L 889.952723 123.79163 
L 889.952723 123.767776 
L 889.847148 123.769694 
L 888.01016 123.707461 
L 888.01016 123.683531 
L 887.904586 123.685442 
L 886.447664 123.615914 
L 886.447664 123.591921 
L 886.34209 123.593822 
L 883.195984 123.554298 
L 883.195984 123.530182 
L 883.09041 123.532082 
L 881.612373 123.462048 
L 881.612373 123.437867 
L 881.506799 123.439758 
L 876.671508 123.429554 
L 876.671508 123.405186 
L 876.565934 123.407086 
L 873.208679 123.369834 
L 873.208679 123.345331 
L 873.103105 123.347232 
L 871.582839 123.276402 
L 871.582839 123.251831 
L 871.477265 123.253721 
L 869.513587 123.190391 
L 869.513587 123.165734 
L 869.408013 123.167617 
L 865.818496 123.132808 
L 865.818496 123.108004 
L 865.712922 123.109889 
L 862.081175 123.075299 
L 862.081175 123.050344 
L 861.975601 123.052231 
L 859.082872 123.003867 
L 858.998413 122.930128 
L 858.977298 122.930503 
L 858.069361 122.846159 
L 858.069361 122.821029 
L 857.963787 122.82289 
L 855.598928 122.763822 
L 855.598928 122.738588 
L 855.493354 122.740443 
L 850.721408 122.723211 
L 850.615833 122.674197 
L 847.807564 122.621634 
L 847.807564 122.596071 
L 847.70199 122.597926 
L 844.703687 122.548092 
L 844.703687 122.522396 
L 844.598113 122.524248 
L 840.54407 122.492348 
L 840.54407 122.466472 
L 840.438496 122.468327 
L 838.031407 122.406857 
L 838.031407 122.380868 
L 837.925833 122.382716 
L 836.321108 122.306629 
L 836.321108 122.28056 
L 836.215534 122.282397 
L 833.217231 122.23 
L 833.217231 122.203791 
L 833.111657 122.205624 
L 830.894602 122.139013 
L 830.894602 122.112696 
L 830.789028 122.114521 
L 828.107447 122.05531 
L 828.107447 122.028865 
L 828.022988 122.03032 
L 826.460492 121.951222 
L 826.460492 121.924697 
L 826.354918 121.926502 
L 823.103237 121.875716 
L 823.103237 121.849035 
L 822.997663 121.850838 
L 822.110841 121.759088 
L 822.110841 121.732354 
L 822.005267 121.734139 
L 819.703753 121.665836 
L 819.703753 121.638986 
L 819.598179 121.640762 
L 815.142954 121.608065 
L 815.142954 121.581002 
L 815.03738 121.582782 
L 812.31357 121.520139 
L 812.31357 121.492938 
L 812.207996 121.494711 
L 807.647197 121.462236 
L 807.647197 121.43481 
L 807.541623 121.436587 
L 803.339776 121.397312 
L 803.339776 121.369675 
L 803.234202 121.371454 
L 802.664102 121.270376 
L 802.38961 121.219576 
L 798.166648 121.178666 
L 798.166648 121.150761 
L 798.061074 121.152516 
L 796.435234 121.095652 
L 796.435234 121.067655 
L 796.32966 121.069401 
L 794.640475 121.041243 
L 794.640475 121.013154 
L 794.640475 120.985063 
L 794.534901 120.986799 
L 792.043353 120.943286 
L 792.043353 120.91506 
L 791.937779 120.916791 
L 790.903154 120.848929 
L 790.903154 120.820638 
L 790.79758 120.822355 
L 788.411606 120.77608 
L 788.411606 120.719233 
L 788.306032 120.720939 
L 785.434418 120.681858 
L 785.434418 120.653276 
L 785.328844 120.654979 
L 779.860109 120.657473 
L 779.860109 120.628598 
L 779.754535 120.630314 
L 776.333936 120.599076 
L 776.333936 120.57001 
L 776.228362 120.571726 
L 773.779044 120.524106 
L 773.779044 120.494897 
L 773.67347 120.496607 
L 769.028212 120.484091 
L 769.028212 120.454622 
L 768.922638 120.456339 
L 767.697979 120.387669 
L 767.697979 120.358119 
L 767.61352 120.359481 
L 763.686165 120.333974 
L 763.686165 120.304198 
L 763.580591 120.305903 
L 760.497829 120.266118 
L 760.497829 120.236157 
L 760.392255 120.237859 
L 755.430275 120.227874 
L 755.430275 120.197621 
L 755.324701 120.199332 
L 751.692954 120.167194 
L 751.692954 120.136718 
L 751.58738 120.13843 
L 748.82134 120.091571 
L 748.673536 120.063308 
L 745.400741 120.023967 
L 745.400741 119.993108 
L 745.295166 119.994811 
L 739.361905 119.997988 
L 739.361905 119.96676 
L 739.256331 119.968478 
L 733.85094 119.962694 
L 733.85094 119.931122 
L 733.745366 119.932851 
L 729.796897 119.902571 
L 729.796897 119.870736 
L 729.691323 119.872468 
L 727.74876 119.808546 
L 727.74876 119.776573 
L 727.643186 119.778291 
L 722.364484 119.768193 
L 722.364484 119.735866 
L 722.25891 119.737595 
L 717.698111 119.715087 
L 717.698111 119.682446 
L 717.592537 119.68418 
L 710.350158 119.70554 
L 710.350158 119.672398 
L 710.244584 119.674157 
L 707.753036 119.615909 
L 707.753036 119.582578 
L 707.647462 119.584327 
L 706.042737 119.510641 
L 706.042737 119.477181 
L 705.937163 119.478913 
L 701.27079 119.454845 
L 701.27079 119.421041 
L 701.165216 119.422778 
L 697.301206 119.384624 
L 697.301206 119.350526 
L 697.216747 119.351915 
L 693.183818 119.350029 
L 693.183818 119.315624 
L 693.183818 119.281216 
L 693.078244 119.282953 
L 685.73029 119.300868 
L 685.73029 119.265895 
L 685.624716 119.267656 
L 678.762404 119.277371 
L 678.6146 119.244349 
L 670.041987 119.283356 
L 670.041987 119.247133 
L 669.957528 119.248589 
L 665.417844 119.217839 
L 665.417844 119.181224 
L 665.31227 119.183048 
L 662.377312 119.12347 
L 662.271738 119.051507 
L 660.835931 118.965072 
L 660.835931 118.928042 
L 660.730357 118.929824 
L 657.05638 118.917669 
L 657.035265 118.843295 
L 656.950806 118.844717 
L 655.113818 118.8007 
L 655.113818 118.763154 
L 655.008243 118.76492 
L 650.42633 118.766479 
L 650.42633 118.728511 
L 650.320756 118.730288 
L 647.343568 118.704267 
L 647.343568 118.666011 
L 647.237994 118.667786 
L 644.556413 118.636133 
L 644.556413 118.597613 
L 644.450839 118.599382 
L 641.262503 118.575584 
L 641.262503 118.536749 
L 641.178044 118.538164 
L 633.407794 118.591644 
L 633.407794 118.552053 
L 633.30222 118.55386 
L 631.127395 118.51165 
L 631.127395 118.471825 
L 631.021821 118.473621 
L 629.797162 118.414602 
L 629.797162 118.374635 
L 629.691588 118.376412 
L 624.877411 118.377512 
L 624.877411 118.337042 
L 624.771837 118.338831 
L 623.061538 118.286627 
L 623.061538 118.245959 
L 622.955964 118.247732 
L 617.043817 118.265982 
L 616.959358 118.184798 
L 616.938243 118.185155 
L 616.156995 118.115572 
L 616.030306 118.076268 
L 615.03791 118.00977 
L 615.03791 117.968223 
L 614.953451 117.969611 
L 612.060722 117.933781 
L 611.934033 117.893975 
L 609.463601 117.850353 
L 609.463601 117.808177 
L 609.358027 117.809894 
L 607.478809 117.755814 
L 607.478809 117.713405 
L 607.373235 117.715105 
L 605.494017 117.66025 
L 605.494017 117.617605 
L 605.388442 117.619288 
L 600.194199 117.616733 
L 600.067511 117.575505 
L 597.491504 117.529982 
L 597.491504 117.486393 
L 597.38593 117.488075 
L 593.458575 117.507261 
L 593.458575 117.463184 
L 593.458575 117.419102 
L 593.353001 117.420783 
L 590.249124 117.426178 
L 590.249124 117.381698 
L 590.249124 117.337213 
L 590.14355 117.338886 
L 587.37751 117.293368 
L 587.37751 117.203656 
L 587.271936 117.205303 
L 581.190871 117.210548 
L 581.190871 117.164893 
L 581.085297 117.166558 
L 576.292236 117.150598 
L 576.292236 117.104288 
L 576.186662 117.105958 
L 570.86573 117.097371 
L 570.86573 117.050315 
L 570.760156 117.051996 
L 566.706113 117.022033 
L 566.706113 116.974386 
L 566.600538 116.976063 
L 561.131803 116.967516 
L 561.131803 116.919058 
L 561.026229 116.920746 
L 553.340438 116.947364 
L 553.340438 116.897733 
L 553.234864 116.899456 
L 548.25177 116.881191 
L 548.25177 116.830755 
L 548.146195 116.832483 
L 540.059224 116.864797 
L 540.059224 116.813024 
L 539.95365 116.814792 
L 533.23914 116.823866 
L 533.23914 116.770919 
L 533.133566 116.772712 
L 529.966345 116.720032 
L 529.966345 116.666492 
L 529.860771 116.668268 
L 518.796611 116.750399 
L 518.796611 116.694788 
L 518.691037 116.696643 
L 516.136145 116.68583 
L 516.136145 116.629691 
L 516.030571 116.63154 
L 513.454564 116.620407 
L 513.454564 116.563726 
L 513.34899 116.565568 
L 511.744265 116.536708 
L 511.744265 116.479669 
L 511.638691 116.481491 
L 510.646295 116.441419 
L 510.646295 116.384141 
L 510.540721 116.385935 
L 508.99934 116.354658 
L 508.99934 116.297029 
L 508.893766 116.298801 
L 507.183466 116.269679 
L 507.183466 116.211658 
L 507.077892 116.213409 
L 502.559323 116.230624 
L 502.432634 116.173729 
L 498.125213 116.18697 
L 498.125213 116.12697 
L 498.019639 116.128748 
L 493.268807 116.149101 
L 493.268807 116.087986 
L 493.163233 116.08978 
L 487.588923 116.124174 
L 487.588923 116.061703 
L 487.483349 116.063527 
L 483.619339 116.067873 
L 483.619339 116.004412 
L 483.513765 116.006241 
L 481.423399 115.978748 
L 481.423399 115.914716 
L 481.317825 115.916524 
L 471.37275 116.027182 
L 471.37275 115.960484 
L 471.267176 115.962387 
L 469.493532 115.927378 
L 469.493532 115.860138 
L 469.387958 115.862012 
L 459.801835 115.96927 
L 459.801835 115.899192 
L 459.696261 115.901163 
L 453.931918 115.939692 
L 453.931918 115.867765 
L 453.826344 115.869773 
L 451.968241 115.832861 
L 451.968241 115.760275 
L 451.862667 115.762251 
L 449.645612 115.730811 
L 449.645612 115.657436 
L 449.540038 115.659383 
L 449.033282 115.595164 
L 449.033282 115.521556 
L 448.927708 115.523444 
L 445.866061 115.504296 
L 445.866061 115.429587 
L 445.760487 115.431458 
L 442.234314 115.419018 
L 442.107625 115.345242 
L 435.857642 115.380417 
L 435.857642 115.302037 
L 435.752067 115.303934 
L 433.26052 115.269887 
L 433.26052 115.190479 
L 433.154946 115.192343 
L 430.790087 115.15421 
L 430.790087 115.073797 
L 430.684513 115.075623 
L 423.716626 115.117173 
L 423.716626 115.033805 
L 423.611052 115.035676 
L 423.273215 114.9581 
L 423.273215 114.874505 
L 423.167641 114.876294 
L 419.789272 114.849444 
L 419.789272 114.764284 
L 419.683698 114.766045 
L 411.089971 114.826994 
L 411.089971 114.737721 
L 410.984397 114.739552 
L 405.579006 114.744115 
L 405.452317 114.654212 
L 402.960769 114.604698 
L 402.960769 114.511157 
L 402.87631 114.51258 
L 398.39997 114.493944 
L 398.39997 114.397831 
L 398.294396 114.399587 
L 395.127175 114.355284 
L 395.127175 114.257221 
L 395.021601 114.258923 
L 373.758988 114.539992 
L 373.758988 114.427331 
L 373.653414 114.429412 
L 372.048689 114.461421 
L 372.048689 114.347373 
L 371.943115 114.34942 
L 364.341784 114.505243 
L 364.341784 114.38463 
L 364.23621 114.386824 
L 353.932183 114.61898 
L 353.932183 114.488213 
L 353.826609 114.490681 
L 352.369687 114.525171 
L 352.369687 114.392691 
L 352.264113 114.395108 
L 351.841817 114.404819 
L 351.841817 114.27172 
L 351.736243 114.274043 
L 348.885744 114.338323 
L 348.759055 114.204653 
L 347.682199 114.228553 
L 347.555511 114.093349 
L 342.804679 114.198682 
L 342.804679 114.054771 
L 342.699105 114.057078 
L 336.132399 114.209634 
L 336.132399 114.056617 
L 336.026825 114.059072 
L 334.084262 114.105139 
L 334.084262 113.949046 
L 333.978688 113.95144 
L 330.917041 114.02307 
L 330.917041 113.862008 
L 330.811467 113.864387 
L 326.672965 113.961758 
L 326.672965 113.793543 
L 326.56739 113.795952 
L 324.519254 113.843765 
L 324.392565 113.674427 
L 323.083447 113.703751 
L 322.956758 113.531521 
L 318.776026 113.622992 
L 318.776026 113.439524 
L 318.670452 113.441727 
L 310.140069 113.639037 
L 310.140069 113.43562 
L 310.034495 113.438058 
L 305.874878 113.539543 
L 305.874878 113.324522 
L 305.769304 113.326942 
L 302.243131 113.41189 
L 302.116442 113.18868 
L 293.438255 113.40801 
L 293.438255 113.150244 
L 293.332681 113.152853 
L 279.1013 113.608501 
L 279.1013 113.27448 
L 278.995726 113.278134 
L 276.926475 113.353126 
L 276.926475 113.003141 
L 276.842015 113.005706 
L 275.152831 113.059053 
L 275.152831 112.694809 
L 275.068371 112.696892 
L 264.933263 113.021296 
L 264.933263 112.548115 
L 264.827689 112.551046 
L 264.067556 112.572702 
L 264.067556 112.086659 
L 263.961982 112.088204 
L 251.4409 112.383015 
L 244.958654 112.739142 
L 243.22724 112.896663 
L 243.22724 111.6 
L 243.121666 111.6 
L 230.727273 111.6 
L 230.727273 111.6 
" clip-path="url(#p9bea7f98a7)" style="fill: none; stroke: #000000; stroke-width: 1.5; stroke-linecap: square"/>
   </g>
   <g id="patch_3">
    <path d="M 180 640.8 
L 180 86.4 
" style="fill: none; stroke: #000000; stroke-width: 0.8; stroke-linejoin: miter; stroke-linecap: square"/>
   </g>
   <g id="patch_4">
    <path d="M 1296 640.8 
L 1296 86.4 
" style="fill: none; stroke: #000000; stroke-width: 0.8; stroke-linejoin: miter; stroke-linecap: square"/>
   </g>
   <g id="patch_5">
    <path d="M 180 640.8 
L 1296 640.8 
" style="fill: none; stroke: #000000; stroke-width: 0.8; stroke-linejoin: miter; stroke-linecap: square"/>
   </g>
   <g id="patch_6">
    <path d="M 180 86.4 
L 1296 86.4 
" style="fill: none; stroke: #000000; stroke-width: 0.8; stroke-linejoin: miter; stroke-linecap: square"/>
   </g>
   <g id="text_16">
    <!-- Precision-Recall Curve -->
    <g transform="translate(671.5575 80.4) scale(0.12 -0.12)">
     <defs>
      <path id="DejaVuSans-2d" d="M 313 2009 
L 1997 2009 
L 1997 1497 
L 313 1497 
L 313 2009 
z
" transform="scale(0.015625)"/>
      <path id="DejaVuSans-20" transform="scale(0.015625)"/>
      <path id="DejaVuSans-43" d="M 4122 4306 
L 4122 3641 
Q 3803 3938 3442 4084 
Q 3081 4231 2675 4231 
Q 1875 4231 1450 3742 
Q 1025 3253 1025 2328 
Q 1025 1406 1450 917 
Q 1875 428 2675 428 
Q 3081 428 3442 575 
Q 3803 722 4122 1019 
L 4122 359 
Q 3791 134 3420 21 
Q 3050 -91 2638 -91 
Q 1578 -91 968 557 
Q 359 1206 359 2328 
Q 359 3453 968 4101 
Q 1578 4750 2638 4750 
Q 3056 4750 3426 4639 
Q 3797 4528 4122 4306 
z
" transform="scale(0.015625)"/>
      <path id="DejaVuSans-75" d="M 544 1381 
L 544 3500 
L 1119 3500 
L 1119 1403 
Q 1119 906 1312 657 
Q 1506 409 1894 409 
Q 2359 409 2629 706 
Q 2900 1003 2900 1516 
L 2900 3500 
L 3475 3500 
L 3475 0 
L 2900 0 
L 2900 538 
Q 2691 219 2414 64 
Q 2138 -91 1772 -91 
Q 1169 -91 856 284 
Q 544 659 544 1381 
z
M 1991 3584 
L 1991 3584 
z
" transform="scale(0.015625)"/>
      <path id="DejaVuSans-76" d="M 191 3500 
L 800 3500 
L 1894 563 
L 2988 3500 
L 3597 3500 
L 2284 0 
L 1503 0 
L 191 3500 
z
" transform="scale(0.015625)"/>
     </defs>
     <use xlink:href="#DejaVuSans-50"/>
     <use xlink:href="#DejaVuSans-72" x="58.552734"/>
     <use xlink:href="#DejaVuSans-65" x="97.416016"/>
     <use xlink:href="#DejaVuSans-63" x="158.939453"/>
     <use xlink:href="#DejaVuSans-69" x="213.919922"/>
     <use xlink:href="#DejaVuSans-73" x="241.703125"/>
     <use xlink:href="#DejaVuSans-69" x="293.802734"/>
     <use xlink:href="#DejaVuSans-6f" x="321.585938"/>
     <use xlink:href="#DejaVuSans-6e" x="382.767578"/>
     <use xlink:href="#DejaVuSans-2d" x="446.146484"/>
     <use xlink:href="#DejaVuSans-52" x="482.230469"/>
     <use xlink:href="#DejaVuSans-65" x="547.212891"/>
     <use xlink:href="#DejaVuSans-63" x="608.736328"/>
     <use xlink:href="#DejaVuSans-61" x="663.716797"/>
     <use xlink:href="#DejaVuSans-6c" x="724.996094"/>
     <use xlink:href="#DejaVuSans-6c" x="752.779297"/>
     <use xlink:href="#DejaVuSans-20" x="780.5625"/>
     <use xlink:href="#DejaVuSans-43" x="812.349609"/>
     <use xlink:href="#DejaVuSans-75" x="882.173828"/>
     <use xlink:href="#DejaVuSans-72" x="945.552734"/>
     <use xlink:href="#DejaVuSans-76" x="986.666016"/>
     <use xlink:href="#DejaVuSans-65" x="1045.845703"/>
    </g>
   </g>
  </g>
 </g>
 <defs>
  <clipPath id="p9bea7f98a7">
   <rect x="180" y="86.4" width="1116" height="554.4"/>
  </clipPath>
 </defs>
</svg>
